<?xml version="1.0" encoding="UTF-8" standalone="no"?>
<!-- Created with Inkscape (http://www.inkscape.org/) -->

<svg
   xmlns:dc="http://purl.org/dc/elements/1.1/"
   xmlns:cc="http://creativecommons.org/ns#"
   xmlns:rdf="http://www.w3.org/1999/02/22-rdf-syntax-ns#"
   xmlns:svg="http://www.w3.org/2000/svg"
   xmlns="http://www.w3.org/2000/svg"
   xmlns:xlink="http://www.w3.org/1999/xlink"
   xmlns:sodipodi="http://sodipodi.sourceforge.net/DTD/sodipodi-0.dtd"
   xmlns:inkscape="http://www.inkscape.org/namespaces/inkscape"
   width="10.5in"
   height="7.25in"
   viewBox="0 0 945 652.49999"
   id="svg2"
   version="1.1"
   inkscape:version="0.91 r13725"
   sodipodi:docname="serialization-processing.svg">
  <defs
     id="defs4">
    <linearGradient
       gradientTransform="matrix(0.43081124,0,0,3.7319245,501.70926,-4558.0554)"
       id="linearGradient6633"
       y2="1341.3"
       xlink:href="#linearGradient6613"
       gradientUnits="userSpaceOnUse"
       x2="-674.71997"
       y1="1666.1"
       x1="-691.07001"
       inkscape:collect="always" />
    <linearGradient
       id="linearGradient6613">
      <stop
         id="stop6615"
         style="stop-color:#000000;stop-opacity:.49412"
         offset="0" />
      <stop
         id="stop6617"
         style="stop-color:#000000;stop-opacity:0"
         offset="1" />
    </linearGradient>
    <linearGradient
       gradientTransform="matrix(0.56825101,0,0,4.9225036,1271.0158,-6226.9199)"
       id="linearGradient6633-9"
       y2="1341.3"
       xlink:href="#linearGradient6613"
       gradientUnits="userSpaceOnUse"
       x2="-674.71997"
       y1="1666.1"
       x1="-691.07001"
       inkscape:collect="always" />
    <linearGradient
       id="linearGradient2071">
      <stop
         id="stop2073"
         style="stop-color:#3333d3"
         offset="0" />
      <stop
         id="stop2079"
         style="stop-color:#3333d3;stop-opacity:.49804"
         offset="0" />
      <stop
         id="stop2075"
         style="stop-color:#3333d3;stop-opacity:0"
         offset="1" />
    </linearGradient>
    <linearGradient
       id="linearGradient3156"
       y2="477.59"
       gradientUnits="userSpaceOnUse"
       x2="426.07001"
       gradientTransform="translate(0,-360)"
       y1="485.67001"
       x1="193.95"
       inkscape:collect="always">
      <stop
         id="stop3152"
         style="stop-color:#4d4d4d"
         offset="0" />
      <stop
         id="stop3154"
         style="stop-color:#4d4d4d;stop-opacity:0"
         offset="1" />
    </linearGradient>
  </defs>
  <sodipodi:namedview
     id="base"
     pagecolor="#ffffff"
     bordercolor="#666666"
     borderopacity="1.0"
     inkscape:pageopacity="0.0"
     inkscape:pageshadow="2"
     inkscape:zoom="1"
     inkscape:cx="199.1477"
     inkscape:cy="381.03579"
     inkscape:document-units="px"
     inkscape:current-layer="layer1"
     showgrid="false"
     inkscape:window-width="2560"
     inkscape:window-height="1391"
     inkscape:window-x="0"
     inkscape:window-y="1"
     inkscape:window-maximized="1"
     units="in" />
  <metadata
     id="metadata7">
    <rdf:RDF>
      <cc:Work
         rdf:about="">
        <dc:format>image/svg+xml</dc:format>
        <dc:type
           rdf:resource="http://purl.org/dc/dcmitype/StillImage" />
        <dc:title></dc:title>
      </cc:Work>
    </rdf:RDF>
  </metadata>
  <g
     inkscape:label="Layer 1"
     inkscape:groupmode="layer"
     id="layer1"
     transform="translate(0,-399.86221)">
    <g
       id="g12756"
       transform="matrix(1.0009006,0,0,0.81446689,-0.42150745,169.37798)">
      <g
         transform="matrix(0.85177867,0,0,0.85177867,3.7562681,53.768245)"
         id="g8415" />
      <text
         sodipodi:linespacing="125%"
         id="text8599"
         y="439.08072"
         x="789.09619"
         style="font-style:normal;font-weight:normal;font-size:14.90612698px;line-height:125%;font-family:sans-serif;letter-spacing:0px;word-spacing:0px;fill:#000000;fill-opacity:1;stroke:none;stroke-width:1px;stroke-linecap:butt;stroke-linejoin:miter;stroke-opacity:1"
         xml:space="preserve"><tspan
           y="439.08072"
           x="789.09619"
           id="tspan8601"
           sodipodi:role="line" /></text>
      <rect
         x="126.20557"
         y="434.88641"
         width="154.87231"
         height="476.38019"
         rx="25.191256"
         style="fill:url(#linearGradient6633);stroke:#000000;stroke-width:6.33986378"
         ry="229.26329"
         id="rect4849" />
      <g
         transform="matrix(0.75813546,0,0,0.75813546,66.906595,162.79333)"
         id="g8133">
        <rect
           id="rect4849-3"
           ry="302.40414"
           style="fill:url(#linearGradient6633-9);stroke:#000000;stroke-width:8.36244202"
           rx="33.227909"
           height="628.3576"
           width="204.28053"
           y="358.89771"
           x="775.71686" />
        <path
           inkscape:connector-curvature="0"
           sodipodi:nodetypes="ccc"
           d="m 768.72364,503.40308 c -65.32919,0.48404 -1.75111,170.87582 -47.27987,170.46011 45.79795,1.42912 -12.79687,172.28022 48.89549,171.77464"
           style="fill:none;stroke:#000000;stroke-width:5.617589"
           id="path5013-5" />
      </g>
      <path
         sodipodi:nodetypes="ccc"
         inkscape:connector-curvature="0"
         id="path8141"
         d="m 313.04111,673.65841 306.4121,0.53762 0.60918,0.003"
         style="fill:#000000;fill-opacity:1;fill-rule:evenodd;stroke:#000000;stroke-width:4.38528728;stroke-linecap:butt;stroke-linejoin:miter;stroke-miterlimit:4;stroke-dasharray:none;stroke-opacity:1" />
      <path
         id="rect4857"
         style="fill:#e6e6e6;fill-opacity:1;stroke:#000000;stroke-width:1.19015312"
         d="m 438.75348,657.29826 -79.64952,0 c -23.88836,9.58341 -24.08679,21.78831 0,31.23154 l 79.64952,0 c 21.50589,-2.63498 41.99753,-6.28502 57.50588,-15.47191 -15.90348,-6.90058 -30.21864,-13.35337 -57.50588,-15.75963 z"
         sodipodi:nodetypes="cccccc"
         inkscape:connector-curvature="0" />
      <text
         xml:space="preserve"
         style="font-style:italic;font-variant:normal;font-weight:normal;font-stretch:normal;font-size:20.84872437px;line-height:125%;font-family:sans-serif;-inkscape-font-specification:'sans-serif Italic';letter-spacing:0px;word-spacing:0px;fill:#000000;fill-opacity:1;stroke:none;stroke-width:1px;stroke-linecap:butt;stroke-linejoin:miter;stroke-opacity:1"
         x="356.62604"
         y="680.11627"
         id="text8401"
         sodipodi:linespacing="125%"><tspan
           sodipodi:role="line"
           id="tspan8403"
           x="356.62604"
           y="680.11627">10101011</tspan></text>
      <path
         inkscape:connector-curvature="0"
         sodipodi:nodetypes="ccc"
         d="m 287.95158,544.44105 c 49.52838,0.36698 1.32758,129.54702 35.84455,129.23186 -34.72105,1.08347 9.70176,130.61175 -37.06941,130.22845"
         style="fill:none;stroke:#000000;stroke-width:4.25889349"
         id="path5013" />
      <text
         sodipodi:linespacing="125%"
         id="text8223"
         y="482.49463"
         x="150.92126"
         style="font-style:italic;font-variant:normal;font-weight:normal;font-stretch:normal;font-size:20.84872627px;line-height:125%;font-family:sans-serif;-inkscape-font-specification:'sans-serif Italic';letter-spacing:0px;word-spacing:0px;fill:#000000;fill-opacity:1;stroke:none;stroke-width:1px;stroke-linecap:butt;stroke-linejoin:miter;stroke-opacity:1"
         xml:space="preserve"><tspan
           y="482.49463"
           x="150.92126"
           id="tspan8225"
           sodipodi:role="line">11011011</tspan><tspan
           id="tspan8227"
           y="508.55554"
           x="150.92126"
           sodipodi:role="line">10101011</tspan><tspan
           id="tspan8231"
           y="534.61646"
           x="150.92126"
           sodipodi:role="line">10101110</tspan><tspan
           id="tspan8235"
           y="560.67737"
           x="150.92126"
           sodipodi:role="line">11101110</tspan><tspan
           id="tspan8237"
           y="586.73828"
           x="150.92126"
           sodipodi:role="line">10101011</tspan><tspan
           id="tspan8239"
           y="612.79919"
           x="150.92126"
           sodipodi:role="line">11010110</tspan><tspan
           id="tspan8243"
           y="638.86005"
           x="150.92126"
           sodipodi:role="line">11111010</tspan><tspan
           id="tspan8247"
           y="664.92096"
           x="150.92126"
           sodipodi:role="line">11101101</tspan><tspan
           id="tspan8251"
           y="690.98187"
           x="150.92126"
           sodipodi:role="line">10111010</tspan><tspan
           id="tspan8255"
           y="717.04279"
           x="150.92126"
           sodipodi:role="line">11110101</tspan><tspan
           id="tspan8257"
           y="743.1037"
           x="150.92126"
           sodipodi:role="line">11111011</tspan><tspan
           id="tspan8259"
           y="769.16461"
           x="150.92126"
           sodipodi:role="line">10001011</tspan><tspan
           id="tspan8261"
           y="795.22552"
           x="150.92126"
           sodipodi:role="line">00010101</tspan><tspan
           id="tspan8263"
           y="821.28644"
           x="150.92126"
           sodipodi:role="line">11101011</tspan><tspan
           id="tspan8265"
           y="847.34735"
           x="150.92126"
           sodipodi:role="line">11110110</tspan><tspan
           id="tspan8267"
           y="873.40826"
           x="150.92126"
           sodipodi:role="line">11111011</tspan></text>
      <text
         sodipodi:linespacing="125%"
         id="text8223-7"
         y="474.86008"
         x="681.97491"
         style="font-style:italic;font-variant:normal;font-weight:normal;font-stretch:normal;font-size:20.84872627px;line-height:125%;font-family:sans-serif;-inkscape-font-specification:'sans-serif Italic';letter-spacing:0px;word-spacing:0px;fill:#000000;fill-opacity:1;stroke:none;stroke-width:1px;stroke-linecap:butt;stroke-linejoin:miter;stroke-opacity:1"
         xml:space="preserve"><tspan
           y="474.86008"
           x="681.97491"
           id="tspan8225-7"
           sodipodi:role="line">11011011</tspan><tspan
           id="tspan8227-6"
           y="500.92099"
           x="681.97491"
           sodipodi:role="line">11010101</tspan><tspan
           id="tspan8231-5"
           y="526.98187"
           x="681.97491"
           sodipodi:role="line">01110101</tspan><tspan
           id="tspan8235-7"
           y="553.04279"
           x="681.97491"
           sodipodi:role="line">01110111</tspan><tspan
           id="tspan8267-3"
           y="579.1037"
           x="681.97491"
           sodipodi:role="line" /></text>
    </g>
    <g
       transform="matrix(0.07210764,0,0,0.07210764,169.74023,435.1486)"
       id="g8516">
      <path
         d="m 41.7498,-445.8596 c 49.9301,-28.5423 111.1862,-30.9188 166.0462,-17.0395 26.6463,3.4888 51.4722,13.9552 76.6017,22.8794 37.8205,14.7389 72.3039,36.3795 106.8632,57.3628 49.3992,31.6266 99.026,65.5033 135.8859,111.8688 15.2192,12.7417 36.2531,2.882 53.4947,9.4551 28.239,9.1264 49.3487,31.1968 69.1185,52.256 17.09,18.5563 28.5171,41.8402 47.756,58.4246 7.5338,6.927 14.84,14.1321 23.3344,19.8709 17.0142,12.2866 37.239,19.1125 54.0509,31.7025 21.6153,14.2585 39.211,33.7755 53.2673,55.3656 1.3147,2.3511 3.2361,4.9551 2.4271,7.8371 -0.1517,1.1124 -0.4803,3.3118 -0.632,4.4242 l -1.34,-2.0225 c -8.2164,-11.3259 -15.118,-23.6884 -24.7501,-33.9019 -16.7108,-17.6968 -36.5313,-32.4609 -58.5005,-42.9778 -24.3204,-11.8316 -48.5397,-26.2165 -64.4415,-48.7419 -21.1855,-30.489 -44.1155,-60.5988 -74.377,-82.6692 -12.0085,-8.09 -25.4074,-15.0928 -39.9946,-16.6603 -15.3456,-1.4157 -29.4272,5.7388 -43.433,10.8456 4.8287,-4.0703 9.8344,-7.913 14.8906,-11.7051 -25.812,-8.4186 -51.0678,-19.1125 -78.068,-23.2333 -23.0816,-5.0309 -46.8459,-4.4242 -70.3067,-3.691 -9.8596,0.4045 -20.0985,1.3652 -29.4778,-2.3511 -15.2445,-5.132 -26.899,-17.5451 -34.18,-31.5255 -5.9916,-11.427 -7.6855,-24.371 -11.5282,-36.5312 -2.4017,7.559 -5.1827,15.3962 -4.222,23.4608 1.4157,12.5647 8.1658,23.562 11.958,35.4188 -12.1602,-6.0169 -23.2839,-13.8793 -33.9273,-22.2473 l -1.2893,-1.8203 c 8.2416,4.6012 16.4579,9.2529 24.6996,13.854 -7.104,-21.0591 -9.3792,-45.6324 4.3989,-64.6184 8.7979,22.576 8.2417,50.2841 27.8598,67.3994 20.2501,15.2192 46.9217,13.9046 70.9134,13.1462 23.0058,-1.0112 45.6071,3.9944 68.1326,7.8371 10.9214,4.2978 22.0956,8.0141 33.6743,10.1883 -10.7697,-14.9411 -24.5732,-27.3036 -38.5536,-39.1351 -43.5846,-36.0255 -91.6187,-66.2365 -140.4364,-94.6018 -19.2389,-12.5394 -40.7784,-20.8316 -62.1409,-28.9974 -16.281,-6.1433 -32.6632,-12.1349 -49.5762,-16.2557 -24.3457,-5.8652 -48.7672,-12.8681 -74.0483,-12.413 -43.7616,-1.4916 -88.7619,9.3793 -124.484,35.4188 -35.3935,26.3935 -74.5034,47.6296 -115.5093,63.9864 -5.6882,2.3259 -11.4776,4.5 -17.0647,7.104 -1.6433,-0.4551 -4.9298,-1.3652 -6.5731,-1.8203 4.7528,-3.3118 9.809,-6.1686 15.2192,-8.1658 30.9188,-11.1995 60.3965,-26.1912 88.2815,-43.5846 17.1405,-10.4159 32.1828,-24.0424 49.9807,-33.3964 z"
         id="path5"
         inkscape:connector-curvature="0"
         style="fill:#b3a032;stroke:#b3a032;stroke-width:0.40000001" />
      <path
         d="m 27.4154,-429.9831 c 35.7222,-26.0395 80.7225,-36.9104 124.484,-35.4188 25.2811,-0.4551 49.7026,6.5478 74.0483,12.413 16.9131,4.1208 33.2952,10.1125 49.5762,16.2557 21.3625,8.1658 42.9019,16.458 62.1409,28.9974 48.8178,28.3654 96.8518,58.5763 140.4364,94.6018 13.9804,11.8315 27.784,24.194 38.5536,39.1351 -11.5787,-2.1742 -22.753,-5.8905 -33.6743,-10.1883 -32.9666,-24.1434 -65.377,-49.5762 -101.9587,-68.1325 -20.5535,-7.9635 -40.0705,-18.5057 -61.2055,-24.9777 -13.3231,-4.3231 -26.1913,-10.2136 -39.9694,-12.9439 -20.6799,-4.1461 -41.2588,-8.8737 -62.242,-10.9973 -23.4608,-2.9832 -47.1493,-2.3511 -70.7365,-2.6039 -27.8345,-0.5309 -55.2139,6.1686 -81.5062,14.7642 -31.4243,11.4523 -60.2195,29.3513 -92.3264,39.0846 -14.9664,4.7276 -30.0592,12.3372 -46.1886,9.6574 -9.2023,-1.0618 -14.7895,-9.177 -20.5788,-15.4467 1.8961,-3.4129 3.7669,-6.8006 5.6377,-10.2136 41.0059,-16.3569 80.1158,-37.593 115.5093,-63.9865 z"
         id="path7"
         inkscape:connector-curvature="0"
         style="fill:#fef6ca;stroke:#fef6ca;stroke-width:0.40000001" />
      <path
         d="m 65.3623,-389.0783 c 26.2924,-8.5956 53.6718,-15.2951 81.5062,-14.7642 23.5872,0.2528 47.2757,-0.3792 70.7365,2.6039 20.9833,2.1236 41.5621,6.8512 62.242,10.9973 13.7781,2.7304 26.6463,8.6209 39.9694,12.9439 21.1349,6.472 40.6519,17.0142 61.2055,24.9777 36.5817,18.5563 68.9921,43.9891 101.9587,68.1325 -22.5255,-3.8427 -45.1268,-8.8484 -68.1326,-7.8371 -23.9917,0.7584 -50.6633,2.073 -70.9134,-13.1462 -19.6181,-17.1153 -19.062,-44.8234 -27.8598,-67.3994 -13.7781,18.9861 -11.5029,43.5593 -4.3989,64.6184 -8.2416,-4.6011 -16.458,-9.2529 -24.6996,-13.854 -9.7332,-13.7023 -18.1519,-28.694 -30.9188,-39.9188 0.8596,17.5198 7.9382,33.7755 12.59,50.4863 -16.1799,0.7332 -32.562,0.0506 -48.5144,3.3118 -37.5677,8.1405 -74.9585,17.0394 -112.1216,26.8738 -38.9329,9.8091 -79.4585,13.2726 -119.4531,9.9608 -35.6211,-4.3736 -71.1916,-16.6349 -98.8238,-40.0958 -6.7247,-6.3961 -13.854,-14.208 -14.6883,-23.8401 2.8568,-10.2894 12.0085,-17.2417 19.7951,-23.8654 5.5871,-2.604 11.3765,-4.7781 17.0647,-7.104 -1.8708,3.413 -3.7416,6.8006 -5.6377,10.2136 5.7894,6.2697 11.3765,14.3849 20.5788,15.4467 16.1293,2.6798 31.2222,-4.9298 46.1886,-9.6574 32.1069,-9.733 60.9021,-27.632 92.3265,-39.0843 z"
         id="path9"
         inkscape:connector-curvature="0"
         style="fill:#fff1b0;stroke:#fff1b0;stroke-width:0.40000001" />
      <path
         d="m -125.7374,-351.2831 c 3.3118,-4.5759 8.4944,-8.1911 14.0057,-9.4298 1.6432,0.455 4.9298,1.3652 6.5731,1.8203 -7.7866,6.6236 -16.9383,13.5759 -19.7951,23.8654 0.8343,9.6321 7.9636,17.4439 14.6883,23.8401 27.6322,23.4608 63.2027,35.7222 98.8238,40.0958 39.9947,3.3118 80.5202,-0.1517 119.4531,-9.9608 37.1632,-9.8344 74.5539,-18.7333 112.1216,-26.8738 15.9523,-3.2613 32.3344,-2.5787 48.5144,-3.3118 -4.6518,-16.7108 -11.7304,-32.9666 -12.59,-50.4863 12.7669,11.2248 21.1856,26.2165 30.9188,39.9188 l 1.2893,1.8203 c -8.9747,-5.3343 -16.4832,-12.6153 -23.4861,-20.2502 3.691,14.1827 8.7725,28.5929 19.0367,39.4385 11.0225,12.5647 26.1153,20.1743 39.9441,29.0732 -6.6743,5.663 -14.5872,9.4045 -22.3991,13.1714 -0.2528,-2.1489 -0.5056,-4.2978 -0.7584,-6.4467 3.0085,-1.618 5.9916,-3.2613 9.0001,-4.9045 -1.8202,-1.8455 -3.6405,-3.691 -5.4607,-5.486 -11.0225,-9.2023 -20.2249,-20.5535 -31.9553,-28.8204 -24.826,-4.2472 -50.1577,1.1882 -74.4022,6.7753 -39.4133,7.1292 -76.5259,24.017 -116.5964,28.0114 -29.1997,5.1826 -58.9808,5.9158 -88.5344,4.0703 -43.5088,-4.5506 -87.5989,-20.9074 -117.9616,-53.4189 -7.3568,-7.8624 -3.8427,-19.2895 -2.604,-28.6941 0.531,-0.9607 1.6181,-2.8821 2.1743,-3.8175 z"
         id="path11"
         inkscape:connector-curvature="0"
         style="fill:#bea029;stroke:#bea029;stroke-width:0.40000001" />
      <path
         d="m 310.2349,-333.1565 c -0.9607,-8.0647 1.8203,-15.9018 4.222,-23.4608 3.8427,12.1602 5.5366,25.1041 11.5282,36.5312 7.281,13.9804 18.9355,26.3935 34.18,31.5255 9.3793,3.7163 19.6182,2.7556 29.4778,2.3511 23.4608,-0.7332 47.225,-1.3399 70.3067,3.691 27.0002,4.1208 52.256,14.8147 78.068,23.2333 -5.0562,3.7922 -10.0619,7.6349 -14.8906,11.7051 14.0057,-5.1068 28.0873,-12.2613 43.433,-10.8456 14.5872,1.5674 27.9861,8.5703 39.9946,16.6603 30.2615,22.0704 53.1915,52.1801 74.377,82.6692 15.9018,22.5254 40.1211,36.9104 64.4415,48.7419 21.9692,10.5169 41.7897,25.2811 58.5005,42.9778 9.6321,10.2135 16.5338,22.576 24.7501,33.9019 -10.8962,-2.1742 -22.0198,-2.4775 -33.0424,-1.4157 -29.2502,-0.7079 -57.6661,7.0281 -85.6017,14.7894 7.2051,-15.7501 12.9187,-32.6379 11.8569,-50.2082 -0.2528,-21.2867 -12.0844,-40.5256 -27.0255,-54.9358 -6.75,-6.7501 -16.6602,-8.1405 -25.5844,-10.0113 -15.7501,-3.5393 -31.8289,1.6686 -46.1633,7.9383 -31.576,19.2389 -55.2139,52.7111 -59.2335,89.8743 -2.1741,23.0058 4.7275,48.2616 22.4496,63.9359 8.5956,7.9888 20.5789,9.8343 31.8036,11.0984 -4.5001,4.5506 -8.8484,9.2023 -13.1967,13.8541 -15.1686,4.0955 -31.02,7.2304 -46.5425,3.1348 4.9803,-0.4045 9.9354,-1.0618 14.9158,-1.7697 -15.9777,-5.6882 -33.1436,-4.677 -49.8038,-4.5253 -37.9975,0.632 -75.0343,18.6322 -99.6075,47.4779 -2.7303,3.2612 -4.2472,7.2809 -5.7641,11.1742 4.4242,-2.5787 8.7979,-5.2585 12.9692,-8.2669 -2.4523,5.2585 -4.9045,10.7698 -9.5057,14.5619 -12.236,10.5927 -25.3316,20.1237 -38.2755,29.8064 -9.0254,-1.1882 -18.0507,-2.5281 -27.1519,-3.1601 8.1405,-9.3793 16.0282,-20.149 16.281,-33.1182 C 374.2721,89.7709 364.4378,74.9815 357.1568,60.5207 346.3871,39.1835 324.0133,26.9474 302.2211,19.54 c -29.1239,-9.5815 -63.2027,-9.0506 -89.1917,8.6967 -7.5591,-3.868 -16.7867,-6.6742 -21.0845,-14.6377 -6.0168,-11.1995 -7.9382,-23.9665 -10.4916,-36.2531 9.0507,-19.8709 28.062,-34.4581 49.9301,-36.8346 0.177,-1.2388 0.531,-3.7669 0.7079,-5.0056 -13.3989,-2.6798 -29.1743,-7.9383 -40.6014,2.6798 -3.2613,-4.7023 -9.1517,-9.2276 -7.559,-15.649 3.7416,-15.8765 13.5759,-31.2727 28.8457,-38.1745 18.6827,-10.3905 40.6773,-7.736 61.1802,-7.8371 4.5,0.632 9.0254,1.1882 13.576,1.618 -13.7024,-10.6686 -31.1463,-13.7782 -47.3262,-18.8597 -6.0675,-1.8708 -12.135,-3.8427 -18.2024,-5.7135 0.455,-16.6602 5.1826,-32.7643 10.3905,-48.4638 5.208,-8.6967 11.0226,-17.1406 18.4299,-24.1434 15.4215,-14.8147 31.2727,-29.7811 50.5369,-39.5143 7.8119,-3.7669 15.7248,-7.5085 22.3991,-13.1714 -13.8288,-8.899 -28.9216,-16.5086 -39.9441,-29.0732 -10.2642,-10.8456 -15.3456,-25.2558 -19.0367,-39.4385 7.0028,7.6349 14.5113,14.9159 23.4861,20.2502 10.6434,8.368 21.7671,16.2304 33.9273,22.2473 -3.7925,-11.8572 -10.5426,-22.8544 -11.9583,-35.4191 m 240.145,129.161 c 19.7446,6.0169 40.7784,2.0731 60.8264,6.0169 9.0506,4.3231 16.913,11.0478 26.6715,13.9804 -3.1854,-11.149 -14.5113,-16.2557 -22.2979,-23.7389 -11.8315,-10.6181 -27.3542,-20.4018 -43.9385,-16.6602 -10.7698,1.4916 -17.5452,11.0225 -21.2615,20.4018 z"
         id="path13"
         inkscape:connector-curvature="0"
         style="fill:#fff6cb;stroke:#fff6cb;stroke-width:0.40000001" />
      <path
         d="m -143.4089,-325.7492 c -0.632,-11.3512 7.8372,-21.0339 17.6715,-25.5339 -0.5562,0.9354 -1.6433,2.8568 -2.1742,3.8174 -3.7416,6.5478 -9.1517,12.2866 -11.3512,19.6181 -1.1377,6.8765 3.9691,12.5141 8.3427,17.1406 41.638,39.7924 90.7085,74.6803 147.7932,87.3967 50.4358,11.958 103.6777,0.4551 149.4365,-22.1462 14.6125,-6.9523 27.4552,-17.3428 42.8009,-22.8541 14.4355,-5.0815 29.0986,-11.8063 44.7981,-10.4664 16.7361,1.0871 33.4469,2.7051 50.2335,3.3877 1.8203,1.795 3.6405,3.6405 5.4607,5.486 -26.1659,0.1517 -52.4836,-8.0394 -78.4219,-1.6432 -20.7305,4.0955 -37.6183,17.5198 -55.8207,27.3541 -53.697,29.7558 -119.5795,39.4385 -178.535,20.5282 -21.135,-7.0534 -41.7391,-15.9776 -60.6493,-27.8092 -25.2558,-15.2698 -47.4526,-34.8879 -69.346,-54.5313 -5.6377,-5.0309 -10.3399,-11.882 -10.2388,-19.7445 z"
         id="path15"
         inkscape:connector-curvature="0"
         style="fill:#be6a74;stroke:#be6a74;stroke-width:0.40000001" />
      <path
         d="m -139.2628,-327.8475 c 2.1994,-7.3315 7.6096,-13.0703 11.3512,-19.6181 -1.2387,9.4046 -4.7529,20.8316 2.604,28.6941 30.3626,32.5115 74.4528,48.8683 117.9616,53.4189 29.5536,1.8455 59.3347,1.1124 88.5344,-4.0703 40.0705,-3.9944 77.1831,-20.8822 116.5964,-28.0114 24.2446,-5.5871 49.5762,-11.0226 74.4022,-6.7753 11.7304,8.2669 20.9327,19.6181 31.9553,28.8204 -16.7866,-0.6826 -33.4974,-2.3006 -50.2335,-3.3877 -15.6995,-1.3399 -30.3626,5.3849 -44.7981,10.4664 -15.3456,5.5113 -28.1884,15.9018 -42.8009,22.8541 -45.7588,22.6013 -99.0007,34.1042 -149.4365,22.1462 -57.0847,-12.7164 -106.1553,-47.6043 -147.7932,-87.3967 -4.3738,-4.6265 -9.4806,-10.2641 -8.3429,-17.1406 z"
         id="path17"
         inkscape:connector-curvature="0"
         style="fill:#fdc5c3;stroke:#fdc5c3;stroke-width:0.40000001" />
      <path
         d="m 220.4112,-188.7762 c 19.517,-31.9553 48.6156,-56.7308 80.1916,-76.2225 0.2528,2.1489 0.5056,4.2978 0.7584,6.4467 -19.2642,9.7332 -35.1154,24.6996 -50.5369,39.5143 -7.4073,7.0029 -13.222,15.4467 -18.4299,24.1434 -13.1714,17.4692 -26.1659,35.3682 -34.4075,55.8206 13.9551,-1.8202 28.1631,-3.6911 42.2194,-1.6433 16.1799,5.0815 33.6238,8.1911 47.3262,18.8597 -4.5506,-0.4298 -9.076,-0.986 -13.576,-1.618 -25.5338,-13.8035 -56.3515,-15.7501 -83.8573,-7.0534 -18.7838,6.8259 -31.3485,24.0676 -39.6407,41.4863 -12.8681,27.0508 -12.312,57.7926 -12.2108,87.0681 -0.177,27.5058 6.8006,55.0369 2.4017,82.4922 -4.5506,22.0198 -14.031,42.5733 -22.3232,63.3797 -11.9074,32.3345 -19.694,67.2983 -14.6378,101.8322 1.5927,15.017 6.2697,29.4272 9.3287,44.1661 0.0758,1.0871 0.2275,3.236 0.3287,4.323 -6.6742,-7.3568 -9.0759,-17.1659 -11.6546,-26.4693 -7.0534,-25.003 -5.5871,-51.447 -3.1601,-77.0315 4.6011,-18.6069 9.4046,-37.3401 16.7361,-55.1128 9.9102,-22.9805 19.7698,-46.6942 21.9187,-71.8236 -1.0365,-19.1883 -4.399,-38.1744 -5.031,-57.3881 0,-15.6237 -0.0759,-31.2474 0.1517,-46.8458 0.4803,-10.7445 3.1601,-21.2108 5.8652,-31.5508 1.1882,-4.5506 2.3764,-9.1012 3.6152,-13.6265 0.3034,-1.1124 0.9102,-3.3371 1.2388,-4.4495 0.7837,-3.0084 1.5926,-5.9916 2.4017,-9.0001 -19.8962,-0.0505 -39.843,0.4551 -59.5875,3.059 -22.5002,3.236 -45.329,0.455 -67.905,2.8315 -37.9469,2.3007 -74.4528,14.5873 -108.734,30.4386 -12.3372,5.6377 -24.194,12.4383 -34.8373,20.8569 -18.8597,14.9411 -38.7812,28.5171 -56.9836,44.2419 -17.5451,14.4355 -34.6857,29.3766 -52.6858,43.2306 -32.1575,22.9805 -67.0707,42.9273 -105.1693,54.1774 -33.2952,10.9972 -69.7758,13.3231 -103.8294,4.2472 -8.2163,-2.3259 -17.0394,-3.9691 -24.0676,-9.1012 -5.6377,-5.6882 -7.0787,-14.031 -9.354,-21.4131 0.809,-4.1208 1.6433,-8.2417 2.6292,-12.3119 9.986,-19.9973 27.076,-35.2924 41.0312,-52.5088 16.9383,-19.694 32.0564,-40.9048 45.8852,-62.8741 13.7782,-21.5142 23.9159,-45.6576 41.9413,-64.2393 29.6294,-31.1715 68.7899,-52.2813 109.7957,-64.3656 34.6857,-7.8371 69.5735,-16.3822 105.321,-17.0647 40.475,-2.3511 81.127,0.4045 121.2481,5.7388 57.5903,6.1433 115.484,16.0535 169.4086,37.9722 11.427,4.6012 21.2614,12.1602 32.0059,18.0254 7.3315,-18.1265 16.5591,-35.3429 28.871,-50.6379 m -408.9216,0.8342 c -14.9664,3.4888 -29.9075,7.0281 -44.8233,10.7445 -40.9807,12.1096 -80.7225,32.4609 -109.7957,64.3909 -14.1321,14.5366 -23.2586,32.8401 -33.093,50.3347 -20.7305,36.6322 -46.7195,70.0033 -74.8826,101.1749 -11.3765,10.2388 -20.0732,24.5226 -19.6434,40.2475 0,7.4832 5.9663,13.3484 12.6405,15.7501 29.048,10.2135 60.9021,12.3877 91.0625,6.2697 48.7672,-10.163 93.5906,-34.2811 132.9785,-64.2645 29.326,-23.8148 58.0201,-48.388 88.5597,-70.6606 18.3793,-15.4215 38.6042,-28.4665 60.624,-37.9975 36.4553,-15.8007 75.4893,-25.9637 115.2565,-28.0621 40.2728,-1.8202 80.672,-3.236 120.8183,-6.8765 8.722,-5.1573 14.1069,-14.8906 21.2109,-22.1209 4.3484,0.0253 7.281,-4.2978 10.8203,-6.3708 -18.6828,-14.6377 -41.9413,-21.2108 -64.1634,-28.3148 -57.3376,-16.8625 -116.8745,-25.1294 -176.4115,-28.9721 -43.6857,-4.8793 -87.8518,-2.0731 -131.1583,4.7275 z"
         id="path19"
         inkscape:connector-curvature="0"
         style="fill:#b6a045;stroke:#b6a045;stroke-width:0.40000001" />
      <path
         d="m 550.3799,-203.9955 c 3.7163,-9.3793 10.4917,-18.9102 21.2614,-20.4018 16.5844,-3.7416 32.107,6.0422 43.9385,16.6602 7.7866,7.4832 19.1125,12.59 22.2979,23.7389 -9.7585,-2.9326 -17.6209,-9.6574 -26.6715,-13.9804 -20.0479,-3.9438 -41.0817,0 -60.8263,-6.0169 m 15.1434,-10.795 c 14.0057,1.795 28.062,3.4888 41.7643,7.1798 -11.0225,-9.8596 -28.694,-18.4299 -41.7643,-7.1798 z"
         id="path21"
         inkscape:connector-curvature="0"
         style="fill:#c4a114;stroke:#c4a114;stroke-width:0.40000001" />
      <path
         d="m 565.5233,-214.7905 c 13.0703,-11.2501 30.7418,-2.6798 41.7643,7.1798 -13.7023,-3.691 -27.7585,-5.3848 -41.7643,-7.1798 z"
         id="path23"
         inkscape:connector-curvature="0"
         style="fill:#f6da59;stroke:#f6da59;stroke-width:0.40000001" />
      <path
         d="m -188.5104,-187.942 c 43.3065,-6.8006 87.4726,-9.6068 131.1583,-4.7276 59.537,3.8427 119.0739,12.1096 176.4114,28.9721 22.2221,7.104 45.4806,13.6771 64.1634,28.3148 -3.5393,2.0731 -6.472,6.3961 -10.8203,6.3708 -24.9524,-2.0983 -47.5284,-13.1967 -71.1663,-20.3007 -45.8852,-8.6967 -92.8574,-14.0563 -139.6022,-10.163 -21.5648,1.0618 -43.4835,0.177 -64.4162,6.4214 -39.1098,7.0787 -77.2843,19.0619 -113.3351,35.798 -16.6097,7.7613 -34.1042,13.8035 -49.6521,23.6884 -14.2585,9.0001 -28.8204,18.0001 -40.5761,30.2362 -23.5367,24.6744 -42.1436,53.6212 -66.8179,77.259 -16.8878,18.3035 -36.1772,39.9947 -62.9246,40.8796 -9.531,0.6826 -12.9692,-8.5956 -15.017,-16.1041 28.1631,-31.1716 54.1521,-64.5426 74.8826,-101.1749 9.8344,-17.4945 18.9608,-35.798 33.093,-50.3347 29.0732,-31.93 68.8151,-52.2813 109.7957,-64.3909 14.9159,-3.7162 29.857,-7.2556 44.8234,-10.7444 z"
         id="path25"
         inkscape:connector-curvature="0"
         style="fill:#fef6ca;stroke:#fef6ca;stroke-width:0.40000001" />
      <path
         d="m 197.9869,-139.0736 c 8.2417,-20.4524 21.2361,-38.3514 34.4075,-55.8206 -5.2079,15.6996 -9.9355,31.8036 -10.3905,48.4638 6.0674,1.8708 12.1349,3.8427 18.2024,5.7135 -14.0563,-2.0478 -28.2643,-0.177 -42.2194,1.6433 z"
         id="path27"
         inkscape:connector-curvature="0"
         style="fill:#fcf2ad;stroke:#fcf2ad;stroke-width:0.40000001" />
      <path
         d="m -38.366,-159.4755 c 46.7447,-3.8933 93.717,1.4663 139.6022,10.163 23.6378,7.104 46.2139,18.2024 71.1663,20.3007 -7.104,7.2304 -12.4889,16.9636 -21.2109,22.1209 -40.1463,3.6405 -80.5455,5.0562 -120.8183,6.8765 -39.7672,2.0984 -78.8012,12.2614 -115.2565,28.0621 -22.0198,9.5309 -42.2447,22.576 -60.624,37.9975 -30.5396,22.2726 -59.2336,46.8458 -88.5597,70.6606 -39.3879,29.9834 -84.2113,54.1015 -132.9785,64.2645 -30.1603,6.118 -62.0145,3.9438 -91.0625,-6.2697 -6.6742,-2.4017 -12.6405,-8.2669 -12.6405,-15.7501 -0.4298,-15.7248 8.2669,-30.0086 19.6434,-40.2475 2.0478,7.5085 5.486,16.7866 15.017,16.1041 26.7474,-0.8849 46.0368,-22.576 62.9246,-40.8796 24.6743,-23.6378 43.2812,-52.5846 66.8179,-77.259 11.7557,-12.236 26.3176,-21.2361 40.5761,-30.2362 15.5479,-9.8849 33.0424,-15.9271 49.6521,-23.6884 36.0508,-16.7361 74.2253,-28.7193 113.3351,-35.798 20.9327,-6.2444 42.8514,-5.3596 64.4162,-6.4214 z"
         id="path29"
         inkscape:connector-curvature="0"
         style="fill:#fff1b0;stroke:#fff1b0;stroke-width:0.40000001" />
      <path
         d="m 190.0992,-130.5286 c 27.5058,-8.6967 58.3235,-6.75 83.8573,7.0534 -20.5029,0.1011 -42.4975,-2.5534 -61.1802,7.8371 -15.2698,6.9018 -25.1041,22.2979 -28.8457,38.1745 -1.5927,6.4214 4.2977,10.9467 7.559,15.649 -13.8793,17.267 -22.0956,38.9329 -25.0283,60.7757 6.3708,-6.1433 11.0478,-13.7276 14.9917,-21.6153 2.5534,12.2866 4.4748,25.0535 10.4916,36.2531 4.2978,7.9635 13.5254,10.7697 21.0845,14.6377 -6.6489,7.8118 -14.1322,15.3203 -18.5058,24.6996 -8.1405,29.857 2.3511,63.7842 26.4945,83.3264 11.9327,11.0984 27.9357,15.2698 43.2055,19.4665 -29.9329,11.8315 -57.8685,28.062 -83.731,47.1492 0.986,0.8596 2.9832,2.5534 3.9691,3.3877 -21.8681,13.2726 -38.9834,32.8149 -54.9357,52.5089 -7.9636,9.4298 -12.3878,21.1349 -15.4974,32.9413 l -1.0112,-1.8202 c -3.059,-14.7389 -7.736,-29.1491 -9.3287,-44.1661 -5.0562,-34.534 2.7304,-69.4978 14.6378,-101.8322 8.2922,-20.8063 17.7726,-41.3599 22.3232,-63.3797 4.3989,-27.4553 -2.5787,-54.9864 -2.4017,-82.4922 -0.1012,-29.2755 -0.6573,-60.0173 12.2108,-87.0681 8.2922,-17.4187 20.8569,-34.6604 39.6407,-41.4863 z"
         id="path31"
         inkscape:connector-curvature="0"
         style="fill:#fef1b0;stroke:#fef1b0;stroke-width:0.40000001" />
      <path
         d="m 623.063,-127.3179 c 14.3344,-6.2697 30.4133,-11.4776 46.1633,-7.9383 8.9242,1.8708 18.8344,3.2613 25.5844,10.0113 14.9412,14.4102 26.7727,33.6491 27.0255,54.9358 1.0618,17.5704 -4.6517,34.4581 -11.8569,50.2082 -3.4128,1.0871 -6.75,2.4017 -9.986,3.9438 3.5646,-5.7894 6.7248,-11.8568 9.2023,-18.2024 9.5815,-32.3345 -5.9916,-71.773 -38.0733,-84.7422 -19.4158,-5.5366 -41.4357,0.177 -56.5032,13.4496 -11.8821,8.6967 -21.2361,20.149 -29.0226,32.562 -5.5366,7.2051 -11.8316,14.3597 -14.2079,23.3345 -2.0984,9.0759 -0.6826,18.4046 0.3539,27.5058 0.9102,15.2698 2.8568,32.1828 15.2698,42.8009 9.7333,10.2388 24.5732,10.8203 37.7447,10.618 -2.2753,2.0983 -4.5001,4.2219 -6.6742,6.4214 -11.2248,-1.2641 -23.2081,-3.1096 -31.8036,-11.0984 -17.722,-15.6743 -24.6237,-40.93 -22.4496,-63.9359 4.0195,-37.1631 27.6573,-70.6352 59.2334,-89.8741 m 0.531,6.4719 c 10.618,-1.1629 20.781,-4.9298 31.4243,-5.9663 13.576,-0.0253 26.4946,6.3456 36.9357,14.6883 11.6799,9.5563 17.3682,23.8907 23.9412,37.0115 -1.7191,-20.5788 -14.2079,-38.579 -30.1097,-50.9667 -19.8205,-8.6966 -44.0144,-6.4972 -62.1915,5.2332 z"
         id="path33"
         inkscape:connector-curvature="0"
         style="fill:#838581;stroke:#838581;stroke-width:0.40000001" />
      <path
         d="m 623.594,-120.846 c 18.1771,-11.7304 42.371,-13.9299 62.1915,-5.2332 15.9017,12.3877 28.3906,30.3878 30.1097,50.9667 -6.573,-13.1209 -12.2612,-27.4553 -23.9412,-37.0115 -10.441,-8.3427 -23.3597,-14.7136 -36.9357,-14.6883 -10.6433,1.0365 -20.8063,4.8034 -31.4243,5.9663 z"
         id="path35"
         inkscape:connector-curvature="0"
         style="fill:#b2b2b1;stroke:#b2b2b1;stroke-width:0.40000001" />
      <path
         d="m 614.6191,-105.652 c 15.0676,-13.2726 37.0874,-18.9861 56.5032,-13.4496 32.0817,12.9692 47.6548,52.4077 38.0733,84.7422 -14.9158,8.0394 -27.5058,20.0985 -43.534,26.0648 -0.3539,-0.986 -1.0366,-2.9326 -1.3652,-3.9186 4.8793,-12.6911 8.4691,-27.0255 3.5394,-40.2728 -3.767,-11.7557 -13.2979,-20.1743 -23.2839,-26.7221 -0.4297,1.441 -1.2893,4.2725 -1.7191,5.6882 -0.3792,1.2641 -1.1124,3.8175 -1.4662,5.1068 -5.1827,1.8455 -10.4664,5.0056 -16.1547,3.6657 -2.9073,-2.2753 -4.7023,-5.5618 -6.3708,-8.7725 -0.4298,-1.3399 -1.3146,-3.9944 -1.7697,-5.3343 -0.3287,-1.0365 -1.0366,-3.0843 -1.3904,-4.1208 -11.0731,-1.1377 -20.9327,4.4495 -30.0845,9.8849 7.7866,-12.4129 17.1406,-23.8653 29.0226,-32.5619 z"
         id="path37"
         inkscape:connector-curvature="0"
         style="fill:#e5f8f7;stroke:#e5f8f7;stroke-width:0.40000001" />
      <path
         d="m 85.84,-96.0199 c 19.7445,-2.604 39.6913,-3.1096 59.5875,-3.059 -0.809,3.0085 -1.618,5.9916 -2.4017,9.0001 -43.3065,0.9101 -86.3097,6.8765 -128.4785,16.5844 -38.402,9.3287 -75.9191,23.6884 -109.5682,44.5958 -17.899,14.8147 -34.534,31.753 -46.8459,51.5987 -32.6632,48.2869 -81.0764,87.8012 -138.4139,101.8575 -61.2055,15.5479 -125.4701,3.8427 -184.3497,-15.6743 -6.7248,-2.6293 -14.1321,-6.5984 -16.6097,-13.8793 -1.1629,-7.3315 2.1236,-14.4355 3.5141,-21.5142 2.2753,7.3821 3.7163,15.7248 9.354,21.4131 7.0282,5.1321 15.8513,6.7753 24.0676,9.1012 34.0536,9.0759 70.5342,6.75 103.8294,-4.2472 38.0986,-11.2501 73.0118,-31.1969 105.1693,-54.1774 18.0001,-13.854 35.1407,-28.7952 52.6858,-43.2306 18.2024,-15.7248 38.1239,-29.3008 56.9836,-44.2419 10.6433,-8.4186 22.5002,-15.2192 34.8373,-20.8569 34.2811,-15.8513 70.787,-28.1379 108.7339,-30.4384 22.5761,-2.3766 45.4049,0.4043 67.9051,-2.8316 z"
         id="path39"
         inkscape:connector-curvature="0"
         style="fill:#fdc4c3;stroke:#fdc4c3;stroke-width:0.40000001" />
      <path
         d="m 14.5473,-73.4945 c 42.1688,-9.708 85.172,-15.6743 128.4785,-16.5844 -0.3287,1.1124 -0.9355,3.3371 -1.2388,4.4495 -5.2584,0.7331 -10.4916,1.2641 -15.7501,1.7697 -20.0479,1.7697 -40.1969,2.3259 -60.1184,5.3849 -55.8459,9.1517 -112.2733,23.9158 -160.1052,55.2644 -16.0029,13.4748 -31.6519,28.1126 -42.5228,46.1885 -28.9468,43.2559 -69.3207,80.2169 -118.4419,98.7985 -27.2278,10.8203 -56.6802,15.3709 -85.9304,14.3344 -38.8318,1.3652 -76.9809,-7.7866 -113.7902,-19.2894 -11.8316,-3.0085 -25.635,-7.2051 -30.8177,-19.517 -3.1096,-12.8428 3.1854,-25.8878 10.5928,-36.1267 -0.986,4.0703 -1.8202,8.1911 -2.6292,12.3119 -1.3904,7.0787 -4.677,14.1827 -3.5141,21.5142 2.4776,7.281 9.8849,11.2501 16.6097,13.8793 58.8796,19.517 123.1442,31.2221 184.3497,15.6743 57.3376,-14.0563 105.7508,-53.5707 138.414,-101.8576 12.3119,-19.8456 28.9469,-36.784 46.8459,-51.5987 33.6491,-20.9074 71.1662,-35.2671 109.5682,-44.5958 z"
         id="path41"
         inkscape:connector-curvature="0"
         style="fill:#be6e6a;stroke:#be6e6a;stroke-width:0.40000001" />
      <path
         d="m 126.0369,-83.8597 c 5.2585,-0.5056 10.4917,-1.0365 15.7501,-1.7697 -1.2388,4.5253 -2.427,9.0759 -3.6152,13.6265 -0.6067,-3.4635 -1.2135,-6.927 -1.8202,-10.3653 -3.4382,-0.5056 -6.8765,-1.0112 -10.3147,-1.4915 z"
         id="path43"
         inkscape:connector-curvature="0"
         style="fill:#e6c6b3;stroke:#e6c6b3;stroke-width:0.40000001" />
      <path
         d="m 585.5965,-73.09 c 9.1517,-5.4354 19.0114,-11.0226 30.0845,-9.8849 0.3539,1.0365 1.0618,3.0843 1.3904,4.1208 -12.3877,1.3399 -25.3063,5.4355 -32.8148,16.1041 -15.5479,19.4159 -9.1012,49.6773 10.163,64.1381 3.7416,2.8315 7.8119,5.1826 12.0844,7.1292 10.9214,1.7444 22.5255,1.1377 32.6126,-3.7163 18.6575,-9.3793 30.3121,-32.3598 23.9412,-52.7869 -2.2247,-11.3512 -11.4017,-19.0367 -20.2249,-25.5339 0.4298,-1.4157 1.2894,-4.2472 1.7191,-5.6882 9.986,6.5478 19.517,14.9664 23.2839,26.7221 4.9297,13.2473 1.3399,27.5816 -3.5394,40.2728 -7.3821,12.6405 -19.0872,23.6125 -33.9778,25.989 -16.8878,3.8427 -35.2672,-2.3511 -46.77,-15.1687 -5.3597,-6.0674 -8.4945,-13.6012 -11.8063,-20.8569 -1.0365,-9.1012 -2.4523,-18.4299 -0.3539,-27.5058 2.3764,-8.9748 8.6714,-16.1294 14.208,-23.3345 z"
         id="path45"
         inkscape:connector-curvature="0"
         style="fill:#458e6e;stroke:#458e6e;stroke-width:0.40000001" />
      <path
         d="m 584.2566,-62.75 c 7.5085,-10.6686 20.4271,-14.7642 32.8148,-16.1041 0.4551,1.3399 1.3399,3.9944 1.7697,5.3343 -24.0676,-1.2135 -43.1295,26.7474 -34.357,48.8431 2.1741,6.9523 7.4832,12.2108 12.5394,17.1911 -0.8595,2.9579 -1.7191,5.9158 -2.6039,8.8736 -19.2642,-14.4607 -25.7109,-44.7222 -10.163,-64.138 z"
         id="path47"
         inkscape:connector-curvature="0"
         style="fill:#6ec69c;stroke:#6ec69c;stroke-width:0.40000001" />
      <path
         d="m 584.4841,-24.6767 c -8.7725,-22.0957 10.2894,-50.0566 34.357,-48.8431 1.6685,3.2107 3.4635,6.4973 6.3708,8.7725 5.6882,1.3399 10.972,-1.8202 16.1547,-3.6657 9.2276,8.5956 16.7108,20.4271 15.6237,33.5227 -0.455,14.031 -9.8596,26.8485 -22.5507,32.4609 -6.6995,2.6798 -14.031,2.3259 -21.0844,2.6292 -2.3765,-2.882 -4.3231,-6.2444 -7.4579,-8.3933 -2.9832,-0.1517 -5.9411,0.3792 -8.8737,0.7079 -5.0563,-4.9803 -10.3653,-10.2388 -12.5395,-17.1911 z"
         id="path49"
         inkscape:connector-curvature="0"
         style="fill:#020202;stroke:#020202;stroke-width:0.40000001" />
      <path
         d="m 642.8328,-73.5198 c 8.8232,6.4973 18.0001,14.1827 20.2249,25.5339 6.3709,20.4271 -5.2837,43.4076 -23.9412,52.7869 -10.0872,4.854 -21.6912,5.4607 -32.6126,3.7163 2.2501,-2.7809 4.5506,-5.5618 6.8512,-8.3175 7.0534,-0.3034 14.3849,0.0506 21.0844,-2.6292 12.6912,-5.6124 22.0957,-18.4299 22.5507,-32.4609 1.0871,-13.0956 -6.3961,-24.9272 -15.6237,-33.5227 0.354,-1.2893 1.0871,-3.8427 1.4663,-5.1068 z"
         id="path51"
         inkscape:connector-curvature="0"
         style="fill:#6ec89c;stroke:#6ec89c;stroke-width:0.40000001" />
      <path
         d="m 191.4896,-61.8146 c 11.4271,-10.618 27.2025,-5.3596 40.6014,-2.6798 -0.1769,1.2388 -0.5309,3.7669 -0.7079,5.0056 -21.8681,2.3764 -40.8795,16.9636 -49.9301,36.8346 -3.9438,7.8877 -8.6209,15.472 -14.9917,21.6153 2.9327,-21.8429 11.149,-43.5087 25.0283,-60.7757 m -9.8343,25.0535 c 11.0984,-9.7838 21.9945,-19.8709 35.0649,-27.0508 -17.6968,-5.3595 -30.388,12.3625 -35.0649,27.0508 z"
         id="path53"
         inkscape:connector-curvature="0"
         style="fill:#bfa31e;stroke:#bfa31e;stroke-width:0.40000001" />
      <path
         d="m 181.6553,-36.7611 c 4.6769,-14.6883 17.3681,-32.4104 35.0649,-27.0508 -13.0704,7.1799 -23.9665,17.267 -35.0649,27.0508 z"
         id="path55"
         inkscape:connector-curvature="0"
         style="fill:#f3d859;stroke:#f3d859;stroke-width:0.40000001" />
      <path
         d="m 128.4639,-24.8284 c -0.1517,-5.486 1.3904,-10.7698 3.8427,-15.6237 -0.2275,15.5984 -0.1517,31.2222 -0.1517,46.8458 -5.0562,-9.6321 -3.691,-20.7557 -3.691,-31.2221 z"
         id="path57"
         inkscape:connector-curvature="0"
         style="fill:#e0ecd4;stroke:#e0ecd4;stroke-width:0.40000001" />
      <path
         d="m 709.9794,-20.1008 c 27.9357,-7.7613 56.3516,-15.4973 85.6017,-14.7894 -22.9046,8.6967 -48.0087,8.2922 -71.0145,16.635 -21.9946,8.1911 -44.9498,15.1181 -64.0876,29.2249 -19.062,11.5282 -34.9638,27.253 -50.36,43.2054 -9.177,9.7332 -16.5591,21.0844 -26.5956,30.0339 3.5646,-12.9186 12.3119,-23.2839 21.3625,-32.7643 4.3483,-4.6517 8.6966,-9.3035 13.1967,-13.8541 2.1741,-2.1994 4.3989,-4.323 6.6742,-6.4214 22.4243,-19.5928 48.5144,-34.4076 75.2365,-47.3262 3.2361,-1.5421 6.5732,-2.8568 9.9861,-3.9438 z"
         id="path59"
         inkscape:connector-curvature="0"
         style="fill:#ababab;stroke:#ababab;stroke-width:0.40000001" />
      <path
         d="m 795.5811,-34.8903 c 11.0226,-1.0618 22.1462,-0.7584 33.0424,1.4157 l 1.34,2.0225 c 13.3736,29.8823 20.0732,62.5454 20.0226,95.2844 -0.6573,43.8374 -20.8316,86.7899 -53.1156,116.293 -17.6462,9.3034 -34.2559,20.6041 -52.6858,28.3654 -20.6294,9.4551 -42.9272,14.5872 -65.301,17.8231 -15.0422,2.1742 -30.9946,1.4917 -44.8739,8.5198 -17.8231,8.4186 -26.2671,28.0872 -43.2054,37.7193 -25.989,16.3822 -57.8431,16.9889 -87.5737,15.6743 -18.6321,-0.5815 -36.8851,-6.6742 -55.6184,-4.9551 -10.6686,0.9102 -20.149,6.295 -29.1743,11.5535 -25.0536,14.8906 -52.256,26.1913 -80.5456,33.1941 -22.8035,5.9411 -46.5425,3.0843 -69.7758,3.3623 -22.6771,0.531 -45.0003,-8.7725 -61.9387,-23.5367 -14.6883,-16.0029 -25.3822,-37.3654 -23.8654,-59.5622 0.5815,-18.6068 13.0957,-33.6743 17.6209,-51.2447 40.8795,-32.0564 92.7563,-47.5032 144.1022,-50.5116 20.0226,-1.4157 39.7419,3.7922 59.7392,2.8315 -6.4973,-3.059 -13.399,-5.2584 -20.5029,-6.3202 12.9439,-9.6827 26.0395,-19.2136 38.2755,-29.8064 4.6012,-3.7922 7.0535,-9.3035 9.5057,-14.5619 11.0478,-14.84 27.3288,-24.6743 43.4582,-33.1435 25.8625,-13.045 55.6183,-12.9439 83.8321,-10.9467 15.5225,4.0956 31.3738,0.9607 46.5425,-3.1348 -9.0507,9.4804 -17.7979,19.8456 -21.3625,32.7643 10.0366,-8.9495 17.4186,-20.3007 26.5956,-30.0339 15.3962,-15.9524 31.298,-31.6772 50.36,-43.2054 19.1378,-14.1069 42.093,-21.0338 64.0876,-29.2249 23.0058,-8.343 48.1099,-7.9385 71.0145,-16.6352 M 508.9442,69.3437 c -21.8429,1.441 -42.3205,13.4495 -55.4667,30.7418 -4.7528,6.0928 -7.104,16.0029 -1.0871,22.1209 6.4214,6.5478 14.9664,10.9973 23.8401,13.1967 12.5142,1.1882 25.1799,0.2023 37.6941,-0.6573 6.9776,15.3962 11.7303,31.6519 17.899,47.3768 1.6685,5.5366 5.6124,12.0085 1.2893,17.3681 -11.4776,18.4299 -27.7586,34.9132 -48.5144,42.4217 -20.8316,5.8905 -43.4582,1.7949 -62.3432,-8.2417 -10.5422,-5.0562 -19.5675,-13.0703 -30.944,-16.3062 1.7697,3.5646 3.8175,7.1798 7.4326,9.2276 10.8961,7.2557 22.5002,13.6012 34.7109,18.3541 25.4834,9.7585 56.7308,6.6236 77.6888,-11.6546 12.1097,-9.4551 19.9468,-22.8541 29.68,-34.4834 18.2529,7.6096 39.0087,12.9439 58.4246,6.4213 18.6827,-5.6882 30.9693,-22.5255 39.2615,-39.2867 6.5478,-14.1322 13.1209,-28.8963 13.6518,-44.697 -6.4214,4.1208 -7.2303,12.0844 -9.3539,18.7333 -4.9299,17.4439 -12.7164,34.6857 -25.7867,47.6043 -5.2584,5.0815 -11.7305,10.4916 -19.5928,9.3793 -18.7333,-1.1629 -37.4413,-2.6545 -56.1493,-4.0197 -7.7613,-19.4917 -14.1827,-39.4638 -21.3372,-59.183 19.5422,-7.7613 30.489,-27.5058 37.3401,-46.2897 2.0477,-5.6377 3.6404,-13.5507 -2.4776,-17.2923 -13.8287,-9.1771 -30.8176,-1.9973 -45.8599,-0.8343 m 114.5233,48.3121 c 9.7332,0.2275 20.0226,-2.4523 29.326,1.4157 8.191,4.677 12.7164,13.677 20.6294,18.8344 -1.9719,-22.576 -33.017,-33.6238 -49.9554,-20.2501 M 379.2523,222.6482 c -2.2754,7.9888 -3.4383,17.9496 3.4887,24.0423 1.3146,-10.5169 -0.1011,-22.2726 6.4467,-31.3485 5.8399,-9.177 17.5198,-11.8062 23.9917,-20.3766 -15.3456,1.6938 -29.7558,12.5646 -33.9271,27.6828 z"
         id="path61"
         inkscape:connector-curvature="0"
         style="fill:#ffffff;stroke:#ffffff;stroke-width:0.40000001" />
      <path
         d="m 665.6617,-8.2946 c 16.0282,-5.9663 28.6182,-18.0254 43.534,-26.0648 -2.4775,6.3455 -5.6376,12.413 -9.2023,18.2024 -26.7221,12.9186 -52.8122,27.7334 -75.2365,47.3262 -13.1714,0.2023 -28.0114,-0.3792 -37.7447,-10.618 -12.413,-10.618 -14.3596,-27.5311 -15.2698,-42.8009 3.3118,7.2557 6.4467,14.7895 11.8063,20.8569 11.5028,12.8175 29.8821,19.0114 46.77,15.1687 14.8906,-2.3764 26.5957,-13.3484 33.9778,-25.989 0.3286,0.9859 1.0112,2.9326 1.3652,3.9185 z"
         id="path63"
         inkscape:connector-curvature="0"
         style="fill:#c7ecea;stroke:#c7ecea;stroke-width:0.40000001" />
      <path
         d="m 830.5955,-35.8763 c 9.6574,12.3119 13.5759,27.8092 17.8484,42.5481 13.3736,50.3852 6.3203,107.3688 -24.6997,150.0938 -18.4045,25.003 -40.8289,48.4891 -69.3965,61.6858 -27.152,12.9186 -56.4274,20.9074 -86.1327,25.1041 -18.0001,2.3764 -34.8373,10.6939 -48.4386,22.6013 2.9579,14.3344 12.7417,25.3316 20.9075,36.9609 -1.1376,0.1264 -3.3877,0.3792 -4.5253,0.5056 -10.9973,-7.7108 -16.0282,-20.5535 -20.8317,-32.5367 -14.5114,8.2416 -26.444,20.7557 -42.3711,26.4187 -12.59,4.4748 -25.2559,9.531 -38.6548,10.8709 -12.2866,-0.2275 -24.4721,-2.0478 -36.7334,-2.3764 18.3035,-1.4916 37.1632,0.177 54.8347,-5.8399 24.9019,-6.6996 45.5818,-22.753 65.655,-38.1998 10.5421,-8.4692 21.4636,-17.2922 34.8626,-20.5788 16.6602,-4.1461 33.8513,-5.8652 50.4863,-10.2894 34.7109,-8.4945 69.8769,-23.0058 93.4641,-50.9667 32.284,-29.5031 52.4583,-72.4556 53.1156,-116.293 0.0506,-32.739 -6.649,-65.4022 -20.0226,-95.2844 0.1519,-1.1122 0.4805,-3.3117 0.6322,-4.4241 z"
         id="path65"
         inkscape:connector-curvature="0"
         style="fill:#ababab;stroke:#ababab;stroke-width:0.40000001" />
      <path
         d="m 597.0235,-7.4856 c 2.9326,-0.3287 5.8906,-0.8596 8.8737,-0.7079 3.1348,2.1489 5.0814,5.5113 7.4579,8.3933 -2.3006,2.7556 -4.6011,5.5366 -6.8512,8.3175 -4.2725,-1.9466 -8.3427,-4.2978 -12.0844,-7.1292 0.8849,-2.9579 1.7445,-5.9158 2.604,-8.8737 z"
         id="path67"
         inkscape:connector-curvature="0"
         style="fill:#f7fcf5;stroke:#f7fcf5;stroke-width:0.40000001" />
      <path
         d="m 213.0291,28.2366 c 25.989,-17.7473 60.0678,-18.2782 89.1917,-8.6967 21.7923,7.4074 44.166,19.6434 54.9357,40.9807 7.281,14.4608 17.1154,29.2502 15.2445,46.2391 -0.2528,12.9692 -8.1405,23.7389 -16.281,33.1182 -3.4129,-0.0506 -6.8006,0.1011 -10.1883,0.3539 15.1181,-9.8343 24.4974,-27.8092 20.8317,-45.9357 C 361.6314,73.1864 347.8784,54.2509 329.398,42.748 308.1113,29.9558 282.6532,25.1018 258.0295,26.113 c -24.3457,2.7809 -49.9554,21.9693 -49.5762,48.3627 0.1012,14.5366 4.1208,28.7446 9.6322,42.1183 8.0394,22.7024 32.8906,34.1042 55.4919,35.9244 -3.1601,0.9607 -6.2697,2.0225 -9.3539,3.2108 -15.2698,-4.1967 -31.2728,-8.368 -43.2055,-19.4665 -24.1434,-19.5423 -34.635,-53.4695 -26.4945,-83.3264 4.3735,-9.3794 11.8567,-16.8879 18.5056,-24.6997 m 21.3372,-5.9916 c -14.9664,4.4242 -24.9271,17.7473 -33.2446,30.1098 -6.3961,16.7361 -4.9551,36.4553 3.0843,52.4583 -1.7444,-14.8653 -4.2219,-30.489 1.5422,-44.8234 4.8792,-17.0142 19.3653,-30.0592 35.7727,-35.7475 11.9832,-4.3989 24.9019,-2.1489 37.2896,-4.0703 -14.7136,-2.5281 -30.1603,-2.705 -44.4442,2.0731 z"
         id="path69"
         inkscape:connector-curvature="0"
         style="fill:#858583;stroke:#858583;stroke-width:0.40000001" />
      <path
         d="m 234.3663,22.245 c 14.2839,-4.7781 29.7306,-4.6012 44.4442,-2.0731 -12.3877,1.9214 -25.3064,-0.3286 -37.2896,4.0703 -16.4074,5.6882 -30.8935,18.7333 -35.7727,35.7475 -5.7641,14.3344 -3.2866,29.9581 -1.5422,44.8234 -8.0394,-16.0029 -9.4804,-35.7222 -3.0843,-52.4583 8.3175,-12.3625 18.2782,-25.6856 33.2446,-30.1098 z"
         id="path71"
         inkscape:connector-curvature="0"
         style="fill:#bab9bf;stroke:#bab9bf;stroke-width:0.40000001" />
      <path
         d="m 208.4532,74.4757 c -0.3792,-26.3935 25.2305,-45.5818 49.5762,-48.3627 24.6237,-1.0112 50.0818,3.8427 71.3685,16.635 5.8399,14.9917 15.4467,30.6912 10.5169,47.3515 -6.9523,24.0929 -30.8934,38.0986 -53.5959,44.6717 -2.1489,-1.5674 -4.2725,-3.1096 -6.4214,-4.6517 12.8934,-7.8624 22.6771,-20.7558 26.6968,-35.3177 3.6658,-15.3456 -2.5028,-30.9693 -11.149,-43.4835 -0.5814,0.9101 -1.7444,2.7556 -2.3258,3.6658 -2.6292,3.0843 -5.3849,6.0169 -8.1405,9.0001 -3.6405,0.177 -7.2304,0 -10.7951,-0.5562 -3.868,-3.5646 -5.7641,-8.5703 -8.2163,-13.0703 0.809,-2.0225 1.618,-4.0449 2.427,-6.0674 1.0618,-2.7556 2.1236,-5.5113 3.1601,-8.2669 -13.5254,-1.8961 -27.9356,-1.1376 -39.7166,6.472 -12.1348,6.6487 -19.4663,19.1122 -23.3849,31.9803 z"
         id="path73"
         inkscape:connector-curvature="0"
         style="fill:#e6f8f7;stroke:#e6f8f7;stroke-width:0.40000001" />
      <path
         d="m 231.8382,42.4951 c 11.781,-7.6096 26.1912,-8.368 39.7166,-6.472 -1.0365,2.7556 -2.0984,5.5113 -3.1601,8.2669 -10.2136,-0.3287 -21.0339,-2.5787 -30.8177,1.3652 -18.076,8.3933 -28.5677,30.2362 -23.562,49.5509 2.4776,10.972 9.7079,20.1743 18.2276,27.2277 1.3147,0.7837 3.9691,2.4017 5.3091,3.2107 13.1462,4.6264 28.5677,6.1433 41.2588,-0.6826 14.2332,-8.1152 24.017,-24.1434 23.8907,-40.652 -0.1518,-10.5422 -5.3596,-19.9721 -9.5816,-29.3261 0.5814,-0.9101 1.7444,-2.7556 2.3258,-3.6658 8.6461,12.5141 14.8148,28.1379 11.149,43.4835 -4.0197,14.5619 -13.8034,27.4553 -26.6968,35.3177 -11.781,4.5506 -25.2558,6.3455 -37.3654,1.9972 -9.2276,-3.1854 -17.1153,-9.2276 -24.4468,-15.5226 -5.5113,-13.3737 -9.531,-27.5816 -9.6322,-42.1183 3.9186,-12.8679 11.2501,-25.3314 23.385,-31.9804 z"
         id="path75"
         inkscape:connector-curvature="0"
         style="fill:#2e875e;stroke:#2e875e;stroke-width:0.40000001" />
      <path
         d="m 237.5771,45.6553 c 9.7838,-3.9438 20.6041,-1.6938 30.8177,-1.3652 -0.809,2.0225 -1.618,4.045 -2.427,6.0674 -7.8624,-1.4663 -16.3821,-3.9438 -24.017,-0.2781 -17.0647,7.6602 -26.267,29.4778 -19.5422,47.0228 2.2753,6.295 6.9017,11.3006 11.6799,15.8512 -0.632,3.1348 -1.2388,6.295 -1.8456,9.4804 -8.5197,-7.0534 -15.7501,-16.2558 -18.2276,-27.2277 -5.0059,-19.3147 5.4858,-41.1575 23.5618,-49.5508 z"
         id="path77"
         inkscape:connector-curvature="0"
         style="fill:#6ec69b;stroke:#6ec69b;stroke-width:0.40000001" />
      <path
         d="m 329.398,42.7479 c 18.4805,11.5029 32.2334,30.4384 37.3654,51.5481 3.6657,18.1265 -5.7136,36.1014 -20.8317,45.9357 -24.4215,1.9719 -48.7672,5.5366 -72.3545,12.2866 -22.6013,-1.8202 -47.4526,-13.222 -55.4919,-35.9244 7.3315,6.295 15.2192,12.3372 24.4468,15.5226 12.1097,4.3483 25.5844,2.5534 37.3654,-1.9972 2.1489,1.5421 4.2725,3.0843 6.4214,4.6517 22.7024,-6.5731 46.6436,-20.5788 53.5959,-44.6717 4.9299,-16.6601 -4.6769,-32.3597 -10.5168,-47.3514 z"
         id="path79"
         inkscape:connector-curvature="0"
         style="fill:#c8ecec;stroke:#c8ecec;stroke-width:0.40000001" />
      <path
         d="m 241.9506,50.0794 c 7.6349,-3.6657 16.1546,-1.1882 24.017,0.2781 2.4523,4.5 4.3483,9.5057 8.2163,13.0703 3.5646,0.5562 7.1546,0.7332 10.7951,0.5562 4.2472,6.9523 8.9748,14.208 9.7585,22.5255 -0.632,13.1715 -9.6321,24.5226 -20.5535,31.1463 -8.1657,5.0309 -18.1265,3.868 -27.1519,2.4775 -3.3118,-4.045 -7.6349,-6.8512 -12.9439,-7.1798 -4.7782,-4.5506 -9.4046,-9.5563 -11.6799,-15.8512 -6.7247,-17.5451 2.4776,-39.3627 19.5423,-47.0229 z"
         id="path81"
         inkscape:connector-curvature="0"
         style="fill:#020202;stroke:#020202;stroke-width:0.40000001" />
      <path
         d="m 423.8481,95.7624 c 24.5732,-28.8457 61.61,-46.8459 99.6075,-47.4779 16.6602,-0.1517 33.8261,-1.1629 49.8038,4.5253 -4.9804,0.7079 -9.9355,1.3652 -14.9158,1.7697 -28.2137,-1.9972 -57.9696,-2.0983 -83.8321,10.9467 -16.1294,8.4692 -32.4104,18.3035 -43.4582,33.1435 -4.1714,3.0085 -8.545,5.6882 -12.9692,8.2669 1.5168,-3.8933 3.0337,-7.913 5.764,-11.1742 z"
         id="path83"
         inkscape:connector-curvature="0"
         style="fill:#c1b057;stroke:#c1b057;stroke-width:0.40000001" />
      <path
         d="m 284.9791,63.984 c 2.7556,-2.9832 5.5113,-5.9158 8.1405,-9.0001 4.2219,9.354 9.4298,18.7839 9.5816,29.3261 0.1264,16.5085 -9.6574,32.5368 -23.8907,40.652 -12.6911,6.8259 -28.1126,5.309 -41.2588,0.6826 3.1601,-1.8455 6.3203,-3.691 9.4804,-5.5113 9.0254,1.3905 18.9861,2.5534 27.1519,-2.4775 10.9214,-6.6237 19.9215,-17.9749 20.5535,-31.1463 -0.7836,-8.3175 -5.5112,-15.5732 -9.7584,-22.5255 z"
         id="path85"
         inkscape:connector-curvature="0"
         style="fill:#6dc79b;stroke:#6dc79b;stroke-width:0.40000001" />
      <path
         d="m 508.9442,69.3437 c 15.0423,-1.1629 32.0312,-8.3428 45.8599,0.8342 6.118,3.7416 4.5253,11.6546 2.4776,17.2923 -6.8512,18.7838 -17.7979,38.5283 -37.3401,46.2897 -1.4916,0.2528 -4.5001,0.7331 -6.0169,0.986 -12.5142,0.8595 -25.18,1.8455 -37.6941,0.6573 -8.8737,-2.1994 -17.4186,-6.6489 -23.8401,-13.1967 -6.0169,-6.118 -3.6658,-16.0282 1.0871,-22.1209 13.1461,-17.2924 33.6237,-29.3009 55.4666,-30.7419 m 3.8681,3.8932 c -20.8822,1.795 -37.8964,15.3709 -54.1015,27.4047 -1.9214,3.7163 -4.5506,7.2557 -5.1574,11.4776 -0.809,5.1826 4.2978,8.3933 7.7866,11.1995 15.472,11.3007 35.8233,8.6461 53.7476,7.4074 13.4495,-4.2219 25.4833,-15.6743 28.8457,-29.6042 4.7275,-3.9186 7.0787,-9.9607 9.1517,-15.5984 1.6432,-4.2978 1.5169,-10.5169 -3.4382,-12.5394 -11.6799,-5.3596 -24.7249,-1.1629 -36.8345,0.2528 z"
         id="path87"
         inkscape:connector-curvature="0"
         style="fill:#bc706c;stroke:#bc706c;stroke-width:0.40000001" />
      <path
         d="m 512.8123,73.2369 c 12.1096,-1.4157 25.1547,-5.6124 36.8345,-0.2528 4.9551,2.0225 5.0814,8.2417 3.4382,12.5394 -2.0731,5.6377 -4.4242,11.6798 -9.1517,15.5984 -18.1771,10.9214 -37.9975,22.8794 -60.1689,19.7951 -11.8568,-0.8848 -18.6321,-11.7052 -25.0536,-20.2754 C 474.9159,88.6078 491.93,75.0319 512.8123,73.2369 M 481.0592,91.768 c 0.8595,2.3764 1.7444,4.7781 2.6292,7.1798 17.4439,-0.2781 36.1266,-5.5113 47.7054,-19.3653 -9.1265,-0.8596 -18.5058,-1.8708 -27.5059,0.4298 -8.4184,2.1236 -15.5983,7.1798 -22.8287,11.7557 z"
         id="path89"
         inkscape:connector-curvature="0"
         style="fill:#fcd5d5;stroke:#fcd5d5;stroke-width:0.40000001" />
      <path
         d="m 481.0592,91.768 c 7.2303,-4.5759 14.4102,-9.6321 22.8288,-11.7557 9.0001,-2.3006 18.3793,-1.2893 27.5059,-0.4298 -11.5788,13.8541 -30.2615,19.0872 -47.7054,19.3653 -0.8849,-2.4017 -1.7698,-4.8034 -2.6293,-7.1798 z"
         id="path91"
         inkscape:connector-curvature="0"
         style="fill:#fcfafb;stroke:#fcfafb;stroke-width:0.40000001" />
      <path
         d="m 453.5533,112.1192 c 0.6068,-4.2219 3.236,-7.7613 5.1574,-11.4776 6.4214,8.5703 13.1967,19.3906 25.0536,20.2754 22.1715,3.0843 41.9919,-8.8736 60.1689,-19.7951 -3.3624,13.9299 -15.3962,25.3822 -28.8457,29.6042 -17.9243,1.2387 -38.2755,3.8933 -53.7476,-7.4074 -3.4887,-2.8061 -8.5955,-6.0169 -7.7866,-11.1995 z"
         id="path93"
         inkscape:connector-curvature="0"
         style="fill:#fcc3c1;stroke:#fcc3c1;stroke-width:0.40000001" />
      <path
         d="m 234.0883,112.9535 c 5.3091,0.3286 9.6321,3.1348 12.9439,7.1798 -3.1601,1.8202 -6.3203,3.6657 -9.4804,5.5113 -1.3399,-0.809 -3.9944,-2.427 -5.3091,-3.2107 0.6068,-3.1854 1.2135,-6.3455 1.8456,-9.4804 z"
         id="path95"
         inkscape:connector-curvature="0"
         style="fill:#f1fdf2;stroke:#f1fdf2;stroke-width:0.40000001" />
      <path
         d="m 623.4675,117.6558 c 16.9384,-13.3737 47.9835,-2.3259 49.9554,20.2501 -7.913,-5.1574 -12.4384,-14.1574 -20.6294,-18.8344 -9.3033,-3.868 -19.5928,-1.1882 -29.326,-1.4157 z"
         id="path97"
         inkscape:connector-curvature="0"
         style="fill:#ababab;stroke:#ababab;stroke-width:0.40000001" />
      <path
         d="m 642.8076,139.979 c 2.1236,-6.6489 2.9326,-14.6125 9.3539,-18.7333 -0.5309,15.8007 -7.104,30.5648 -13.6518,44.697 -8.2922,16.7613 -20.5788,33.5985 -39.2615,39.2867 -19.4159,6.5226 -40.1717,1.1882 -58.4246,-6.4213 -9.7332,11.6292 -17.5703,25.0283 -29.68,34.4834 -20.958,18.2783 -52.2054,21.4131 -77.6888,11.6546 -12.2107,-4.7529 -23.8147,-11.0984 -34.7109,-18.3541 -3.6152,-2.0478 -5.6629,-5.6629 -7.4326,-9.2276 11.3765,3.236 20.4019,11.25 30.944,16.3062 18.885,10.0366 41.5116,14.1321 62.3432,8.2417 20.7557,-7.5085 37.0368,-23.9917 48.5144,-42.4217 4.3231,-5.3596 0.3792,-11.8315 -1.2893,-17.3681 -6.1686,-15.7248 -10.9214,-31.9805 -17.899,-47.3768 1.5168,-0.2528 4.5253,-0.7332 6.0169,-0.986 7.1545,19.7192 13.5759,39.6913 21.3372,59.183 18.708,1.3652 37.416,2.8568 56.1493,4.0197 7.8624,1.1124 14.3344,-4.2978 19.5928,-9.3793 13.0704,-12.9185 20.8569,-30.1602 25.7868,-47.6041 z"
         id="path99"
         inkscape:connector-curvature="0"
         style="fill:#ababab;stroke:#ababab;stroke-width:0.40000001" />
      <path
         d="m 345.9318,140.2318 c 3.3877,-0.2528 6.7754,-0.4045 10.1883,-0.3539 9.1012,0.632 18.1266,1.9719 27.1519,3.1601 7.104,1.0618 14.0057,3.2612 20.5029,6.3202 -19.9973,0.9607 -39.7166,-4.2472 -59.7392,-2.8315 -51.3459,3.0085 -103.2226,18.4552 -144.1022,50.5116 -5.0815,3.2107 -10.34,6.1433 -15.472,9.2276 -0.9859,-0.8342 -2.9832,-2.5281 -3.9691,-3.3877 25.8626,-19.0872 53.7981,-35.3177 83.731,-47.1492 3.0843,-1.1882 6.1938,-2.2501 9.3539,-3.2108 23.5873,-6.7498 47.9329,-10.3145 72.3545,-12.2864 z"
         id="path101"
         inkscape:connector-curvature="0"
         style="fill:#a6afad;stroke:#a6afad;stroke-width:0.40000001" />
      <path
         d="m 744.1847,208.4907 c 18.4299,-7.7613 35.0396,-19.062 52.6858,-28.3654 -23.5872,27.9609 -58.7532,42.4722 -93.4641,50.9667 -16.635,4.4242 -33.8261,6.1433 -50.4863,10.2894 -13.399,3.2865 -24.3205,12.1096 -34.8626,20.5788 -20.0732,15.4468 -40.7531,31.5002 -65.655,38.1998 -17.6714,6.0169 -36.5312,4.3484 -54.8347,5.8399 -30.5143,3.5646 -61.8881,10.9467 -87.4979,28.694 -31.8036,24.3456 -70.1044,38.6547 -108.7339,48.0088 -36.6829,8.1911 -77.1832,7.281 -110.8071,-11.0478 -10.2893,-5.5872 -21.2108,-10.3399 -30.3373,-17.8232 -19.3653,-17.4186 -33.5985,-39.5143 -46.1633,-62.1156 3.1096,-11.8063 7.5338,-23.5114 15.4974,-32.9413 15.9524,-19.694 33.0676,-39.2363 54.9357,-52.5089 5.1321,-3.0843 10.3906,-6.0169 15.472,-9.2276 -4.5253,17.5704 -17.0394,32.6379 -17.6209,51.2447 -1.5168,22.1968 9.177,43.5593 23.8654,59.5622 16.9384,14.7642 39.2615,24.0677 61.9387,23.5367 23.2333,-0.278 46.9723,2.5787 69.7758,-3.3623 28.2896,-7.0028 55.492,-18.3035 80.5456,-33.1941 9.0253,-5.2584 18.5057,-10.6433 29.1743,-11.5535 18.7333,-1.7191 36.9863,4.3737 55.6184,4.9551 29.7306,1.3146 61.5847,0.7079 87.5737,-15.6743 16.9383,-9.6321 25.3823,-29.3008 43.2054,-37.7193 13.8793,-7.0281 29.8317,-6.3456 44.8739,-8.5198 22.3737,-3.2358 44.6716,-8.3679 65.301,-17.823 z"
         id="path103"
         inkscape:connector-curvature="0"
         style="fill:#eeeeee;stroke:#eeeeee;stroke-width:0.40000001" />
      <path
         d="m 379.2523,222.6482 c 4.1714,-15.1181 18.5815,-25.989 33.9272,-27.6828 -6.472,8.5703 -18.1518,11.1995 -23.9917,20.3766 -6.5478,9.0759 -5.1321,20.8317 -6.4467,31.3485 -6.9271,-6.0928 -5.7642,-16.0535 -3.4888,-24.0423 z"
         id="path105"
         inkscape:connector-curvature="0"
         style="fill:#aaaaaa;stroke:#aaaaaa;stroke-width:0.40000001" />
      <path
         d="m 884.3936,272.9322 c 16.6603,-15.8765 39.2869,-24.4468 61.9387,-26.6462 11.3765,0.5562 21.9946,5.6124 32.7643,8.9747 8.1404,2.0983 11.8315,10.1124 17.09,15.8007 10.1124,3.9691 22.2726,4.4242 30.1097,12.9692 11.5281,11.0984 11.4524,29.4271 3.7417,42.6492 6.3453,9.4551 8.0646,22.0451 3.7415,32.6379 -5.2584,10.0619 -18.3034,5.9916 -27.4047,6.7753 -11.8568,1.1882 -24.9524,-7.5085 -35.5452,0.6573 -13.5001,9.1771 -20.8316,24.8008 -34.1042,34.357 -9.7585,8.1658 -22.7277,9.9608 -34.8373,12.0844 -1.8709,14.2585 -7.1545,28.7446 -18.9357,37.77 -9.1264,9.2023 -23.5114,11.3512 -35.3935,6.8258 -8.1657,-3.4129 -13.4747,-13.2726 -10.8203,-21.9186 7.0787,-8.3933 16.8372,-16.0282 15.3961,-28.4159 -20.1743,-1.4916 -39.3878,6.2191 -58.0453,12.7922 -13.8035,4.8539 -25.7867,13.4748 -39.1098,19.34 -1.0619,0.3792 -3.1855,1.1629 -4.2725,1.5674 0.6572,-1.4662 1.9213,-4.3989 2.5533,-5.8904 27.9355,-18.2783 59.9668,-29.6801 93.1609,-33.2194 -4.4242,-9.9861 -10.0873,-20.4271 -8.4692,-31.7277 1.5421,-11.8316 10.1883,-20.7811 17.4693,-29.5536 -0.0506,12.6153 -12.9439,21.1097 -12.5648,33.9525 -0.1517,14.1321 12.6659,24.1687 13.7783,37.9469 0,11.3007 -10.163,18.5563 -15.017,27.8597 0.986,3.4635 2.6797,6.6743 4.3989,9.8596 7.913,3.6152 17.5198,6.6995 25.7614,2.1742 10.4158,-5.6377 17.5704,-16.1799 21.1098,-27.3036 3.6656,-11.4017 -0.4552,-23.5619 2.4269,-35.0142 5.1321,-10.4917 18.1014,-14.3344 23.2839,-24.826 2.6798,-8.0142 2.8062,-16.6097 4.1462,-24.8766 2.4269,4.1461 4.9297,8.368 6.2443,13.045 -1.8455,6.0421 -3.6658,12.2361 -7.1293,17.5956 -5.4606,7.9888 -14.7136,12.2866 -20.4019,20.0479 -1.7949,4.5254 -1.5168,9.5057 -2.0225,14.2838 3.2361,0.2275 6.472,0.4298 9.7333,0.5815 16.2304,-0.8849 29.0226,-12.1349 38.6041,-24.2952 8.3427,-9.1264 16.104,-21.0591 28.9215,-23.8906 16.1547,-0.2023 32.2334,6.1938 48.4387,2.7051 7.9888,-8.6715 7.7864,-27.6323 -4.9046,-32.0312 -18.9608,-5.2079 -38.6802,-1.1124 -57.9695,-2.4523 15.6995,-5.8399 32.7136,-5.2838 49.0958,-3.514 5.7387,0.2022 13.399,1.5674 16.7614,-4.4748 5.6123,-9.0506 0.05,-20.3007 -4.9046,-28.3654 -4.7529,-7.8119 -14.1575,-9.5815 -22.4243,-11.0478 -3.59,5.7894 -5.9664,14.1321 -13.5001,15.826 -8.6461,2.0983 -17.6462,1.4916 -26.4441,2.4016 -13.4243,0.986 -25.7866,6.7754 -38.8821,9.4299 17.2922,-15.472 41.6378,-12.1349 62.5958,-16.7867 8.3429,-1.441 7.8372,-10.0366 6.4468,-16.4832 -10.1124,-14.1321 -28.0874,-19.2389 -44.5201,-20.8316 -44.1407,1.9719 -79.6606,38.0733 -92.4781,78.523 -1.6686,2.4775 -3.3371,4.9298 -5.0311,7.4073 0.6321,-5.3596 1.163,-10.7191 1.8204,-16.0535 -61.9134,-20.7052 -128.6302,-22.399 -193.0211,-14.8653 -4.5253,0.177 -9.0254,0.2023 -13.5254,0.2023 2.7809,-1.8203 5.5872,-3.6405 8.4692,-5.3091 20.958,-1.9214 41.7896,-6.118 62.9499,-5.0562 46.6183,-1.2387 93.5653,4.9045 137.9589,19.3653 8.2925,-15.75 17.4189,-31.5254 30.7673,-43.5592 z"
         id="path107"
         inkscape:connector-curvature="0"
         style="fill:#b3a239;stroke:#b3a239;stroke-width:0.40000001" />
      <path
         d="m 946.4839,252.2776 c 16.4327,1.5927 34.4077,6.6995 44.5201,20.8316 -4.8035,3.7416 -9.4047,8.6714 -15.826,9.1012 -12.4384,1.6685 -25.2306,1.7191 -37.1632,6.0674 -17.899,5.5366 -32.9413,17.1659 -47.3263,28.7699 -9.7078,7.8624 -13.5506,20.3512 -16.5591,32.0059 -2.5028,10.6433 -4.955,21.3625 -6.0169,32.2586 -1.1375,6.3203 3.1854,11.5535 5.7389,16.8878 5.2838,9.2529 4.5001,20.8063 1.8455,30.7418 -7.4073,9.8848 -19.4663,14.9664 -29.68,21.4383 -1.7191,-3.1854 -3.4129,-6.3961 -4.3989,-9.8596 4.8539,-9.3034 15.017,-16.5591 15.017,-27.8597 -1.1124,-13.7782 -13.9299,-23.8148 -13.7783,-37.9469 -0.3791,-12.8427 12.5142,-21.3372 12.5648,-33.9525 -0.4803,-3.3371 -0.9607,-6.6489 -1.4158,-9.9608 12.8177,-40.4497 48.3376,-76.5511 92.4782,-78.523 z"
         id="path109"
         inkscape:connector-curvature="0"
         style="fill:#fdf6c8;stroke:#fdf6c8;stroke-width:0.40000001" />
      <path
         d="m 572.9559,297.5054 c 15.9271,-5.663 27.8597,-18.1771 42.3711,-26.4187 4.8035,11.9832 9.8344,24.826 20.8317,32.5367 46.416,38.048 85.1972,85.2478 114.5486,137.5291 18.5057,32.6379 32.7136,67.7028 42.0171,104.0316 12.7164,50.7897 12.6405,105.4727 -4.323,155.2765 -4.2725,12.2614 -9.1771,24.3204 -14.6631,36.1014 -22.6265,37.2137 -44.8233,77.7393 -83.3264,100.8967 -38.7053,24.8008 -86.2338,31.2727 -131.3353,27.7081 -19.972,-2.4521 -40.3233,-5.7388 -58.5004,-14.84 -26.4946,-13.8793 -49.7279,-36.7082 -57.4892,-66.3629 42.4469,0.5309 81.2281,-21.6154 113.1834,-47.7813 31.7783,-22.2979 56.5032,-53.3684 74.6045,-87.4473 12.9691,-24.194 17.9243,-51.5228 22.4749,-78.2955 5.9158,-47.6802 -0.3792,-96.6496 -16.9636,-141.7005 -12.236,-35.8485 -30.1603,-69.7252 -52.4583,-100.29 -15.1181,5.5113 -29.6041,13.5506 -45.8599,15.1939 -11.2753,1.2388 -22.6518,1.7444 -33.8766,3.3371 -6.0674,-11.2248 -12.7164,-22.1463 -18.4805,-33.548 16.0788,-2.7556 32.385,-3.4888 48.5902,-5.0562 13.399,-1.3397 26.0649,-6.3959 38.6548,-10.8707 z"
         id="path111"
         inkscape:connector-curvature="0"
         style="fill:#eeeeee;stroke:#eeeeee;stroke-width:0.40000001" />
      <path
         d="m 975.178,282.2104 c 6.4213,-0.4298 11.0225,-5.3596 15.826,-9.1012 1.3904,6.4466 1.8961,15.0423 -6.4468,16.4832 -20.958,4.6518 -45.3036,1.3147 -62.5958,16.7867 13.0956,-2.6545 25.4579,-8.4438 38.8821,-9.4299 8.7979,-0.9101 17.798,-0.3033 26.4441,-2.4016 7.5337,-1.6939 9.9101,-10.0366 13.5001,-15.826 8.2668,1.4663 17.6714,3.236 22.4243,11.0478 4.955,8.0647 10.5169,19.3148 4.9046,28.3654 -3.3624,6.0422 -11.0227,4.677 -16.7614,4.4748 -16.3823,-1.7697 -33.3964,-2.3259 -49.0958,3.514 19.2893,1.3399 39.0087,-2.7556 57.9695,2.4523 12.691,4.3989 12.8934,23.3597 4.9046,32.0312 -16.2053,3.4887 -32.2841,-2.9074 -48.4387,-2.7051 -12.8175,2.8315 -20.5788,14.7641 -28.9215,23.8906 -9.5815,12.1602 -22.3737,23.4103 -38.6041,24.2952 0.5055,-13.399 11.7303,-21.9187 17.6967,-32.8401 3.514,-5.9664 2.882,-13.1209 2.1235,-19.6687 -1.3146,-4.677 -3.8174,-8.899 -6.2443,-13.045 -1.34,8.2669 -1.4664,16.8624 -4.1462,24.8766 -5.1826,10.4916 -18.1518,14.3343 -23.2839,24.826 -2.8821,11.4523 1.2388,23.6125 -2.4269,35.0142 -3.5394,11.1237 -10.694,21.6659 -21.1098,27.3036 -8.2416,4.5253 -17.8484,1.441 -25.7614,-2.1742 10.2137,-6.472 22.2726,-11.5535 29.68,-21.4383 2.6546,-9.9355 3.4384,-21.4889 -1.8455,-30.7418 -2.5535,-5.3344 -6.8764,-10.5675 -5.7389,-16.8878 1.062,-10.8961 3.5141,-21.6153 6.0169,-32.2586 3.0085,-11.6546 6.8513,-24.1435 16.5591,-32.0059 14.3849,-11.604 29.4272,-23.2333 47.3263,-28.7699 11.9326,-4.3484 24.7248,-4.399 37.1632,-6.0675 m -35.8234,24.0676 c 3.8934,7.2557 10.1631,12.6912 15.1687,19.1125 6.4973,9.1771 5.6631,20.9834 6.4214,31.652 1.2641,-0.7837 3.8175,-2.3764 5.0815,-3.1854 3.2107,-19.3654 -6.8511,-41.8656 -26.6716,-47.5791 z"
         id="path113"
         inkscape:connector-curvature="0"
         style="fill:#fdf1af;stroke:#fdf1af;stroke-width:0.40000001" />
      <path
         d="m 113.0171,289.8959 1.0112,1.8202 c 12.5647,22.6012 26.7979,44.697 46.1633,62.1156 9.1265,7.4833 20.048,12.2361 30.3373,17.8232 33.6239,18.3288 74.1242,19.2389 110.8071,11.0478 38.6295,-9.354 76.9303,-23.6631 108.7339,-48.0088 25.6098,-17.7474 56.9836,-25.1294 87.4979,-28.694 12.2613,0.3287 24.4468,2.1489 36.7334,2.3764 -16.2052,1.5674 -32.5114,2.3006 -48.5902,5.0562 5.7641,11.4017 12.413,22.3232 18.4805,33.548 29.4019,60.0679 26.1154,132.3718 0.1264,192.9958 -11.1743,27.1266 -30.7924,49.6268 -42.5228,76.4753 -25.3317,51.3965 -33.8008,111.8435 -18.708,167.5125 7.7612,29.6547 30.9946,52.4836 57.4892,66.3629 18.1771,9.1011 38.5284,12.3878 58.5004,14.84 45.1015,3.5646 92.6299,-2.9073 131.3353,-27.7081 38.5031,-23.1574 60.6999,-63.683 83.3264,-100.8967 -0.1263,3.1348 -0.3033,6.2697 -0.5056,9.4298 -16.7361,30.5901 -35.7222,61.0286 -62.8994,83.5035 -32.8907,27.6322 -76.3995,39.2615 -118.5936,41.3851 -36.0002,2.7051 -73.9219,-2.5281 -104.7902,-22.3486 -22.753,-14.5619 -41.2587,-36.708 -48.6408,-62.9751 -10.3653,-40.2475 -9.8343,-83.0989 1.1882,-123.1694 9.0759,-34.4835 25.2053,-66.818 45.5818,-95.9418 26.7473,-45.1014 40.2727,-99.0513 33.6238,-151.3831 -3.2612,-26.4945 -10.9214,-52.7111 -24.4721,-75.818 -4.7275,-8.4945 -10.2136,-16.5338 -16.0029,-24.371 -20.5788,3.2866 -40.0705,11.6546 -58.0454,21.9946 -16.7361,10.8708 -34.5339,19.972 -52.4076,28.7952 -22.3232,10.8203 -46.6689,16.1546 -70.0539,24.0423 -18.8091,3.1349 -37.8711,3.6658 -56.8824,3.9691 -3.7416,0.0253 -7.4326,0.0505 -11.149,-0.177 -7.6096,-2.6798 -15.0676,-5.7388 -22.7278,-8.2669 -12.4889,-4.1461 -23.2333,-11.9832 -34.9132,-17.8484 -22.1462,-10.6686 -36.5564,-31.7278 -49.197,-51.9779 -3.6405,-6.7754 -8.9748,-13.2473 -9.5057,-21.1856 -0.1009,-1.0872 -0.2526,-3.2361 -0.3285,-4.3231 z"
         id="path115"
         inkscape:connector-curvature="0"
         style="fill:#b0aca0;stroke:#b0aca0;stroke-width:0.40000001" />
      <path
         d="m 636.1587,303.6235 c 1.1376,-0.1265 3.3876,-0.3792 4.5253,-0.5056 3.9944,-0.5056 7.9888,-0.7837 12.0338,-0.9354 -2.882,1.6685 -5.6883,3.4888 -8.4692,5.3091 4.5,0 9.0001,-0.0253 13.5254,-0.2023 -1.4916,0.5562 -4.5001,1.6433 -5.9916,2.1995 10.517,12.0338 22.8541,22.2473 34.3823,33.2446 25.1041,28.7446 48.6155,59.0314 67.0959,92.5288 -0.632,1.4916 -1.8961,4.4242 -2.5533,5.8904 -29.3514,-52.2813 -68.1326,-99.4811 -114.5486,-137.5291 z"
         id="path117"
         inkscape:connector-curvature="0"
         style="fill:#b0aca0;stroke:#b0aca0;stroke-width:0.40000001" />
      <path
         d="m 657.774,307.2892 c 64.3909,-7.5337 131.1077,-5.8399 193.0211,14.8653 -0.6573,5.3344 -1.1883,10.6939 -1.8204,16.0535 -1.4409,2.1994 -2.8819,4.4242 -4.3229,6.649 -12.7165,-2.7304 -25.7361,-4.9551 -37.4413,-10.9468 -22.9047,-10.9972 -48.9948,-10.4663 -73.8208,-10.1124 -17.722,0.4298 -36.0002,-2.4016 -53.1156,3.6405 1.9214,5.1068 3.7163,10.2641 5.8906,15.2951 -11.5282,-10.9973 -23.8654,-21.2108 -34.3823,-33.2446 1.4915,-0.5563 4.5,-1.6434 5.9916,-2.1996 z"
         id="path119"
         inkscape:connector-curvature="0"
         style="fill:#fef6c8;stroke:#fef6c8;stroke-width:0.40000001" />
      <path
         d="m 939.3546,306.278 c 19.8205,5.7136 29.8823,28.2137 26.6717,47.579 -1.264,0.809 -3.8174,2.4017 -5.0815,3.1854 -0.7584,-10.6686 0.0758,-22.4749 -6.4214,-31.652 -5.0057,-6.4213 -11.2754,-11.8568 -15.1688,-19.1124 z"
         id="path121"
         inkscape:connector-curvature="0"
         style="fill:#bcab41;stroke:#bcab41;stroke-width:0.40000001" />
      <path
         d="m 420.1823,336.8681 c 17.9749,-10.3399 37.4666,-18.708 58.0454,-21.9946 5.7893,7.8372 11.2754,15.8765 16.0029,24.371 -20.4019,7.6349 -42.5987,4.045 -63.5061,8.8484 -11.2248,2.4776 -21.0086,8.6714 -31.0957,13.8541 -12.6153,6.5983 -26.166,11.0731 -39.2363,16.5844 -19.7445,8.0394 -41.0818,15.4973 -62.6718,11.1742 23.385,-7.8877 47.7306,-13.222 70.0539,-24.0423 17.8738,-8.8232 35.6716,-17.9244 52.4077,-28.7952 z"
         id="path123"
         inkscape:connector-curvature="0"
         style="fill:#fcf1b3;stroke:#fcf1b3;stroke-width:0.40000001" />
      <path
         d="m 680.2741,327.4382 c 17.1154,-6.0421 35.3936,-3.2107 53.1156,-3.6405 24.826,-0.3539 50.9161,-0.8848 73.8208,10.1124 11.7051,5.9917 24.7248,8.2164 37.4413,10.9468 1.441,-2.2248 2.8821,-4.4495 4.3229,-6.649 1.694,-2.4776 3.3624,-4.9298 5.0311,-7.4073 0.4551,3.3118 0.9354,6.6237 1.4158,9.9608 -7.281,8.7726 -15.9272,17.722 -17.4693,29.5536 -1.618,11.3006 4.045,21.7417 8.4692,31.7277 -33.1941,3.5393 -65.2253,14.9411 -93.1609,33.2194 -18.4805,-33.4974 -41.9919,-63.7842 -67.0959,-92.5288 -2.1743,-5.031 -3.9692,-10.1883 -5.8906,-15.2951 z"
         id="path125"
         inkscape:connector-curvature="0"
         style="fill:#fef1b0;stroke:#fef1b0;stroke-width:0.40000001" />
      <path
         d="m 538.068,343.6434 c 16.2558,-1.6432 30.7418,-9.6826 45.8599,-15.1939 22.298,30.5648 40.2222,64.4415 52.4583,100.29 16.5844,45.0509 22.8794,94.0204 16.9636,141.7005 -4.5506,26.7727 -9.5057,54.1015 -22.4749,78.2955 -18.1013,34.0789 -42.8262,65.1494 -74.6045,87.4473 -31.9553,26.1659 -70.7365,48.3121 -113.1834,47.7813 -15.0928,-55.669 -6.6237,-116.116 18.708,-167.5125 11.7304,-26.8485 31.3485,-49.3486 42.5228,-76.4753 25.989,-60.624 29.2755,-132.9279 -0.1264,-192.9958 11.2248,-1.5927 22.6013,-2.0983 33.8766,-3.3371 z"
         id="path127"
         inkscape:connector-curvature="0"
         style="fill:#ffffff;stroke:#ffffff;stroke-width:0.40000001" />
      <path
         d="m 430.7245,348.0929 c 20.9074,-4.8034 43.1042,-1.2135 63.5061,-8.8484 13.5507,23.1069 21.2108,49.3234 24.4721,75.818 6.6489,52.3319 -6.8765,106.2817 -33.6238,151.3831 -20.3766,29.1238 -36.5059,61.4583 -45.5818,95.9418 -11.0225,40.0705 -11.5535,82.9219 -1.1882,123.1694 -20.4524,-4.9551 -41.8149,-5.941 -61.5594,-13.5507 -21.1349,-7.8118 -42.4722,-16.5085 -59.8909,-31.1715 -15.2697,-12.6912 -31.7783,-27.3542 -34.9132,-48.1099 10.972,-47.579 43.256,-86.6888 79.0792,-118.3408 23.1322,-12.2108 41.7138,-32.5115 53.7223,-55.5931 4.0197,-7.5337 10.0114,-13.7529 14.4102,-21.0338 2.3258,-11.3765 0.0505,-23.2586 -1.3146,-34.6857 -1.5927,-7.5591 -3.1096,-18.1519 -11.7051,-20.68 -9.1012,-0.2022 -17.6715,3.5646 -26.3935,5.6124 -33.8008,9.1517 -68.9668,11.4018 -103.1721,18.4805 -14.7389,2.7304 -26.7221,13.1715 -41.5874,15.3456 -17.5704,2.8568 -35.3682,6.8006 -50.8402,16.003 -7.3568,4.4242 -14.6631,8.9748 -21.6154,14.031 -11.7557,8.1405 -8.6967,25.1294 -17.3176,35.5452 -9.5056,11.604 -22.7277,21.2361 -37.9469,23.0311 -8.7978,1.2893 -17.4187,-1.5927 -25.7614,-3.9439 -7.913,3.413 -16.8372,10.1378 -25.5845,5.3344 -8.9748,-3.9438 -5.4607,-15.5984 -5.7135,-23.2333 1.4663,-5.0815 3.3624,-10.0366 5.1826,-15.017 -2.3006,-0.632 -4.5759,-1.264 -6.8512,-1.8708 2.7556,-19.5928 14.9664,-36.8851 32.3345,-46.2896 12.9692,-8.0394 28.9974,-9.8596 41.1323,-19.4159 33.6744,-27.6574 69.877,-52.6605 108.8351,-72.3292 19.0114,-0.3033 38.0733,-0.8342 56.8824,-3.9691 21.59,4.3231 42.9272,-3.1348 62.6718,-11.1742 13.0703,-5.5113 26.621,-9.9861 39.2363,-16.5844 10.0873,-5.1828 19.871,-11.3766 31.0958,-13.8542 z"
         id="path129"
         inkscape:connector-curvature="0"
         style="fill:#fff6cb;stroke:#fff6cb;stroke-width:0.40000001" />
      <path
         d="m 928.9894,353.5789 c 0.7584,6.5478 1.3904,13.7023 -2.1235,19.6687 -5.9664,10.9214 -17.1912,19.4411 -17.6967,32.8401 -3.2614,-0.1517 -6.4973,-0.354 -9.7333,-0.5815 0.5057,-4.7781 0.2276,-9.7585 2.0225,-14.2838 5.6882,-7.7613 14.9412,-12.0591 20.4019,-20.0479 3.4634,-5.3595 5.2837,-11.5534 7.1291,-17.5956 z"
         id="path131"
         inkscape:connector-curvature="0"
         style="fill:#fae187;stroke:#fae187;stroke-width:0.40000001" />
      <path
         d="m 229.6894,393.4977 c 3.7163,0.2275 7.4073,0.2023 11.149,0.177 -38.9582,19.6687 -75.1607,44.6717 -108.8351,72.3292 -12.1349,9.5563 -28.1631,11.3765 -41.1323,19.4159 -17.3681,9.4046 -29.5789,26.6968 -32.3345,46.2896 2.2753,0.6068 4.5506,1.2388 6.8512,1.8708 -1.8202,4.9804 -3.7163,9.9355 -5.1826,15.017 -2.0225,6.7753 -3.4382,13.7024 -4.7529,20.6294 -1.441,-3.2613 -2.6798,-6.6237 -3.6152,-10.0366 0.3539,-6.0674 0.986,-12.0844 1.6433,-18.0759 1.3146,-11.6293 3.1854,-23.3092 7.3821,-34.2812 0.5309,-0.6826 1.618,-2.0731 2.1489,-2.7556 0.8595,-1.0872 2.5534,-3.2613 3.3877,-4.3231 10.8709,-14.9411 28.3148,-22.7277 45.329,-28.3654 14.4608,-4.2725 23.4862,-17.2164 35.9244,-24.8766 27.2781,-17.7727 55.5171,-34.1295 82.037,-53.0145 z"
         id="path133"
         inkscape:connector-curvature="0"
         style="fill:#b9a225;stroke:#b9a225;stroke-width:0.40000001" />
      <path
         d="m 389.7439,448.0037 c 8.7219,-2.0478 17.2922,-5.8146 26.3935,-5.6124 8.5956,2.5281 10.1124,13.1209 11.7051,20.68 1.3651,11.427 3.6404,23.3092 1.3146,34.6857 -4.3989,7.2809 -10.3906,13.5001 -14.4102,21.0338 -12.0085,23.0816 -30.5901,43.3823 -53.7223,55.5931 8.1658,-12.6153 16.6602,-25.3317 21.4131,-39.7419 3.3624,-9.9102 5.486,-20.1996 7.8372,-30.3879 12.413,-2.6798 25.5844,-2.9326 37.2643,-8.2669 -9.8849,-2.1994 -19.9467,0.1517 -29.8316,0.9354 -17.899,2.1489 -35.6717,-1.8708 -53.4443,-3.4888 -42.093,-4.2219 -86.9416,-1.5421 -124.307,20.1238 -8.0141,4.6011 -17.8484,11.7051 -16.0282,22.2726 1.9213,16.3821 7.7107,34.003 -0.2275,49.7026 -4.1208,9.6573 -14.5619,13.4495 -23.8148,16.4074 -3.7669,-9.4299 -8.09,-18.6828 -13.4243,-27.3289 7.736,-0.9102 15.3203,-3.0338 22.1463,-6.8259 -11.5788,-0.3287 -23.8401,0.6067 -33.9778,6.7501 -8.3175,5.2584 -14.9917,12.6152 -21.8176,19.5928 0.6573,1.9213 1.3146,3.868 1.9719,5.8146 1.0618,3.3372 2.1489,6.6743 3.3118,10.0366 -10.5928,0.4803 -23.0058,2.5534 -31.5002,-5.4354 -11.0984,-9.3287 -7.4326,-26.166 -16.7108,-36.5565 -0.1012,10.0872 1.7444,20.0479 3.3876,29.9833 -5.9158,-1.6938 -11.8316,-3.3624 -17.5956,-5.5112 -8.5703,-5.9158 -15.1939,-14.1827 -20.2249,-23.2333 1.3146,-6.927 2.7304,-13.8541 4.7529,-20.6294 0.2528,7.6349 -3.2613,19.2895 5.7135,23.2333 8.7473,4.8034 17.6715,-1.9214 25.5845,-5.3344 8.3427,2.3512 16.9636,5.2332 25.7614,3.9439 15.2192,-1.795 28.4413,-11.4271 37.9469,-23.0311 8.6208,-10.4158 5.5619,-27.4047 17.3176,-35.5452 6.9523,-5.0562 14.2586,-9.6068 21.6154,-14.031 15.472,-9.2024 33.2698,-13.1462 50.8402,-16.003 14.8653,-2.1741 26.8485,-12.6152 41.5874,-15.3456 34.2051,-7.0784 69.3711,-9.3284 103.1719,-18.4802 z"
         id="path135"
         inkscape:connector-curvature="0"
         style="fill:#fdf1af;stroke:#fdf1af;stroke-width:0.40000001" />
      <path
         d="m 750.7073,441.1526 c 1.087,-0.4045 3.2106,-1.1882 4.2725,-1.5674 13.0197,18.531 21.4131,39.843 29.8569,60.7252 23.5873,60.3207 30.9189,128.4785 12.2614,191.125 -3.7417,14.5114 -11.3512,27.7081 -14.6883,42.3458 -2.8821,1.0112 -5.7895,1.8708 -8.6715,2.7809 5.486,-11.781 10.3906,-23.84 14.6631,-36.1014 16.9635,-49.8038 17.0394,-104.4868 4.323,-155.2765 -9.3035,-36.3289 -23.5114,-71.3937 -42.0171,-104.0316 z"
         id="path137"
         inkscape:connector-curvature="0"
         style="fill:#acb4b8;stroke:#acb4b8;stroke-width:0.40000001" />
      <path
         d="m -25.8772,493.0293 c 9.6827,-7.4073 22.4243,-4.8034 33.725,-5.2838 10.4158,0.5815 22.3232,-1.7444 31.0452,5.4607 -3.3624,-0.2528 -6.6995,-0.4803 -10.0619,-0.6573 -16.5338,-1.8961 -33.2699,-2.1236 -49.8037,0.0253 -1.2388,0.1265 -3.6911,0.3288 -4.9046,0.4551 z"
         id="path139"
         inkscape:connector-curvature="0"
         style="fill:#e0dfd9;stroke:#e0dfd9;stroke-width:0.40000001" />
      <path
         d="m 219.9561,513.5576 c 37.3654,-21.6659 82.2141,-24.3457 124.307,-20.1238 17.7726,1.618 35.5453,5.6377 53.4443,3.4888 9.8849,-0.7837 19.9467,-3.1348 29.8316,-0.9354 -11.6798,5.3343 -24.8513,5.5871 -37.2643,8.2669 -2.3511,10.1882 -4.4747,20.4777 -7.8372,30.3879 -4.7529,14.4102 -13.2473,27.1266 -21.4131,39.7419 -35.8232,31.6519 -68.1072,70.7617 -79.0792,118.3408 -6.9017,27.4047 -6.1938,56.0229 -4.0197,83.9585 1.3146,18.3287 9.3034,35.8232 8.0647,54.3796 -7.7107,-10.7951 -8.368,-24.3963 -11.3007,-36.8852 -24.9019,13.1968 -48.0846,33.2953 -77.5118,34.6098 -10.7192,1.1377 -20.0984,-4.8033 -28.4159,-10.7444 5.9916,0.2276 12.0085,0.6826 18.0001,1.163 4.5253,-17.267 8.368,-36.1772 1.7191,-53.3936 -3.0085,-8.0647 -12.1096,-10.2894 -19.163,-13.3484 0.632,-1.3905 1.9214,-4.1714 2.5534,-5.5366 8.5703,2.8568 18.3793,6.2444 21.8681,15.5226 7.9382,19.5423 2.705,40.9301 -1.3652,60.7252 31.2474,-0.1517 58.2729,-19.2389 81.6579,-38.0481 -1.7444,-1.5674 -3.5393,-3.1096 -5.3343,-4.6012 2.9579,-10.3399 2.2753,-21.1096 1.5927,-31.6772 -0.6573,-35.621 7.8118,-71.1663 23.7389,-103.0204 8.7726,-14.1827 18.3036,-27.9103 28.4665,-41.1323 1.2641,-1.5927 2.6039,-3.1602 3.9691,-4.677 12.9186,-14.1827 27.6575,-26.9244 37.9975,-43.2559 10.3905,-15.3456 15.6996,-33.3964 19.34,-51.3712 -35.2672,-7.3063 -71.6719,-9.9608 -107.4699,-5.6882 -21.8934,4.4495 -45.4301,9.7838 -61.9639,25.8878 -6.6489,5.486 -3.4888,14.4861 -2.8062,21.7164 2.2753,14.7642 3.6405,31.2728 -4.4495,44.6212 -5.3848,9.0001 -15.8259,12.4888 -24.8766,16.5338 -0.7584,-2.1995 -1.5421,-4.3736 -2.3511,-6.5225 9.2529,-2.9579 19.694,-6.7501 23.8148,-16.4074 7.9382,-15.6996 2.1488,-33.3206 0.2275,-49.7026 -1.82,-10.5677 8.0143,-17.6716 16.0284,-22.2728 z"
         id="path143"
         inkscape:connector-curvature="0"
         style="fill:#b2a23c;stroke:#b2a23c;stroke-width:0.40000001" />
      <path
         d="m 89.885,567.9878 c 9.2782,10.3905 5.6124,27.2277 16.7108,36.5565 8.4944,7.9888 20.9074,5.9158 31.5002,5.4354 0.6826,0.6826 2.0731,2.0477 2.7809,2.7304 l -0.0758,1.5168 -0.6826,2.4523 c -10.9972,-0.2781 -22.8541,0.5562 -32.5873,-5.5113 -9.9608,-5.8904 -21.0339,-9.4045 -32.0817,-12.6152 0.0506,-1.5168 0.177,-4.5759 0.2275,-6.0927 5.7641,2.1489 11.6799,3.8174 17.5956,5.5112 -1.6433,-9.9355 -3.4888,-19.8962 -3.3876,-29.9834 z"
         id="path181"
         inkscape:connector-curvature="0"
         style="fill:#b8a236;stroke:#b8a236;stroke-width:0.40000001" />
      <path
         d="m 259.0913,592.9149 c 14.5113,-1.4157 29.0985,1.7444 43.6857,0.4298 8.545,-0.986 16.4832,2.4269 23.6884,6.6742 -1.3652,1.5168 -2.7051,3.0843 -3.9691,4.677 -4.6012,-4.0197 -9.5815,-8.7979 -16.2557,-7.4073 -15.017,1.5421 -30.0593,-0.3539 -45.0509,0.1011 -8.3933,5.8652 -10.972,16.6097 -15.2445,25.4075 -5.9158,0.632 -12.1097,0.4297 -17.6462,2.8315 -5.6376,6.5225 -8.6714,14.8147 -13.8793,21.6659 -4.9298,7.2051 -12.1855,13.9046 -12.4383,23.208 -0.1517,11.7305 3.8933,23.0058 4.5253,34.6857 -1.3146,9.2782 -1.5169,18.708 0.455,27.9103 -10.0618,-6.0675 -5.7388,-18.5311 -5.5871,-28.0873 1.0365,-13.3231 -5.8652,-26.0648 -3.7922,-39.4132 2.25,-9.7838 10.4411,-16.4832 15.5985,-24.7249 4.9045,-6.8259 7.6349,-15.3709 14.1068,-20.9581 5.2837,-2.3258 11.0731,-3.059 16.6602,-4.2977 4.2725,-7.9131 6.9776,-17.8738 15.1434,-22.7025 z"
         id="path197"
         inkscape:connector-curvature="0"
         style="fill:#ababab;stroke:#ababab;stroke-width:0.40000001" />
      <path
         d="m 269.9116,631.9995 c 9.6573,-3.5898 20.1237,-3.9438 30.2361,-5.3343 -2.0225,6.3961 -3.9186,12.8176 -6.118,19.1631 -15.9271,31.8541 -24.3962,67.3994 -23.7389,103.0204 0.6826,10.5676 1.3651,21.3373 -1.5927,31.6772 -12.413,-4.9551 -24.8766,-9.7332 -37.0621,-15.1686 -2.7809,-8.3174 -5.4101,-17.1658 -12.3372,-23.0563 -3.9438,-3.3118 -8.2164,-6.1686 -12.3372,-9.2023 -1.9719,-9.2023 -1.7696,-18.6321 -0.455,-27.9103 1.2641,7.1798 2.4017,14.5872 5.9411,21.0844 2.8568,5.5113 8.8737,8.0142 13.9551,11.0731 2.4776,-21.1097 4.854,-42.3458 10.34,-62.9246 2.8821,-13.3231 18.4299,-17.0142 24.1435,-28.5423 3.0336,-4.5508 4.6516,-10.3907 9.0253,-13.8795 z"
         id="path217"
         inkscape:connector-curvature="0"
         style="fill:#eeeeee;stroke:#eeeeee;stroke-width:0.40000001" />
      <path
         d="m 277.9257,776.6832 c -2.1741,-27.9356 -2.882,-56.5538 4.0197,-83.9585 3.1349,20.7557 19.6434,35.4188 34.9132,48.1099 17.4187,14.663 38.756,23.3597 59.8909,31.1715 19.7445,7.6097 41.1071,8.5956 61.5594,13.5507 7.3821,26.2671 25.8878,48.4132 48.6408,62.9751 30.8683,19.8204 68.7899,25.0536 104.7902,22.3486 42.1941,-2.1237 85.7028,-13.7529 118.5936,-41.3851 27.1772,-22.4749 46.1633,-52.9134 62.8994,-83.5035 12.7922,-8.368 26.8991,-14.5366 41.1071,-20.1237 -2.958,3.5899 -5.6629,7.3821 -8.3933,11.1489 14.4354,0.2781 28.8962,-0.7837 43.3318,-0.2022 24.9776,1.1376 49.0452,17.1406 58.4246,40.5003 3.8932,11.0478 5.5619,22.753 9.5309,33.8261 10.2643,-18.3541 11.8821,-39.8683 9.4299,-60.3713 8.0394,16.7614 4.3989,36.1267 -1.5674,52.9386 -7.6855,23.1323 -23.0563,42.3964 -36.0256,62.6971 -9.4047,13.8288 -16.8878,28.8205 -25.18,43.3065 -6.927,12.8175 -21.2362,18.3541 -33.4722,24.7501 -14.1826,7.3315 -30.0339,10.1884 -44.7982,16.003 20.8569,1.6938 40.3487,-7.281 58.4247,-16.5338 1.9719,2.9326 3.9692,5.8906 5.9663,8.8737 8.9495,-3.8175 17.5704,-8.3429 25.7361,-13.6013 11.4524,-7.4326 24.6238,-11.8821 35.4946,-20.2502 6.2445,-4.7022 12.3372,-9.6574 18.6575,-14.2585 15.9524,-11.3006 29.1492,-26.0395 45.7336,-36.5565 1.8455,1.3146 3.691,2.6293 5.5618,3.9944 -15.2952,17.9496 -27.7334,38.1746 -43.4077,55.846 -39.2361,45.5817 -86.1074,84.9191 -139.1218,113.5373 -19.3905,9.2024 -40.2222,17.2924 -55.4667,33.0424 -6.4467,6.2697 -8.3175,15.3457 -10.5928,23.6884 -7.5085,-8.4186 -14.4608,-17.8484 -16.2557,-29.2755 -5.3849,-22.222 3.514,-44.0143 9.1771,-65.1746 5.8146,-22.5002 13.2219,-44.7728 15.6237,-67.9809 1.3399,-14.6124 -2.9579,-31.298 -15.4973,-40.1464 -13.1714,-9.1011 -29.7811,-9.6321 -45.2026,-10.2641 -51.4722,-0.9101 -103.4249,3.9691 -152.7736,19.1125 -30.9694,9.4551 -62.5202,18.9861 -90.0765,36.4806 -30.6913,16.5592 -61.9387,32.3599 -94.8041,44.2419 -23.2333,7.989 -47.124,15.3204 -71.8741,16.1293 -33.5733,1.9467 -68.2084,-4.2472 -97.4839,-21.2107 -18.7839,-10.7698 -32.4357,-29.3514 -38.7053,-49.8797 -3.868,-14.8906 -2.6293,-30.7417 -8.4692,-45.1772 -5.1826,14.1069 -1.5927,29.0479 0.9859,43.2812 -16.2304,6.7753 -32.7895,13.5255 -46.7447,24.472 -24.8766,18.0508 -43.9132,42.4218 -61.9387,66.9696 -20.503,26.7474 -43.711,51.2701 -66.5904,75.9698 -2.8062,-2.0226 -5.6124,-4.0198 -8.3933,-5.9916 4.045,-10.1378 5.1826,-21.0592 5.6882,-31.8542 -1.4916,-0.051 -4.4495,-0.1517 -5.9158,-0.2024 -1.2641,12.1097 -1.6938,24.9274 -7.7866,35.8488 -6.1939,11.1489 -16.7614,18.8849 -26.6462,26.5703 -9.1012,6.8259 -20.3007,13.4749 -32.1323,10.618 -8.6714,-2.0225 -12.7164,-10.6938 -17.1658,-17.4438 9.1517,-3.3624 19.2895,-6.4215 25.1547,-14.8652 13.1714,-17.5957 21.8176,-38.1493 29.3008,-58.6775 -1.5927,0.1263 -4.8287,0.354 -6.4214,0.4803 -8.4439,18.9608 -14.9159,39.2616 -27.7334,55.8965 -4.0703,5.2838 -10.34,11.1743 -17.5957,8.3175 -6.9017,-4.222 -7.8624,-13.0198 -9.2529,-20.2249 3.2107,4.6263 6.5984,9.1771 10.8456,12.9186 3.5899,-0.4297 1.6685,-4.7023 2.2247,-7.0786 -0.9607,-11.2249 7.5084,-20.0479 9.8596,-30.5649 5.3343,-21.0085 11.9074,-41.9666 22.9047,-60.801 8.368,-14.2839 17.267,-28.3401 23.6378,-43.6858 51.8515,-4.955 102.8687,-24.0675 143.369,-57.1605 8.5703,-6.7247 16.0788,-15.3709 26.7221,-18.8091 14.5366,-4.9045 27.9609,-14.739 34.2559,-29.048 4.7781,-9.8597 4.1714,-21.0845 6.9523,-31.4244 5.309,-9.7332 13.2726,-17.6714 19.062,-27.1266 10.8961,6.3456 23.4355,5.1321 34.9132,1.1882 0.2527,-5.6376 0.5814,-11.2501 0.6573,-16.8624 6.6489,17.2164 2.8062,36.1266 -1.7191,53.3936 -5.9916,-0.4803 -12.0085,-0.9354 -18.0001,-1.163 8.3175,5.9412 17.6967,11.8821 28.4159,10.7444 29.4272,-1.3145 52.6099,-21.413 77.5118,-34.6098 2.9326,12.4889 3.59,26.0901 11.3007,36.8852 1.2387,-18.5563 -6.7502,-36.0508 -8.0647,-54.3795 z"
         id="path255"
         inkscape:connector-curvature="0"
         style="fill:#fff1b0;stroke:#fff1b0;stroke-width:0.40000001" />
      <path
         d="m 782.4098,733.7811 c 23.486,-9.6068 46.4666,-23.031 72.4555,-24.017 18.8091,-0.9607 39.9947,-1.3652 55.0623,11.8063 11.5029,10.8708 23.9664,23.2333 25.9636,39.7671 3.1096,24.8007 -6.6994,48.9694 -18.6826,70.1803 -14.8906,25.5087 -32.8403,49.3234 -45.1268,76.2983 8.0646,-5.2836 16.3063,-10.4917 23.3345,-17.1911 35.2166,-33.5734 73.0875,-64.7448 115.3828,-89.0652 21.3879,-13.576 45.5818,-21.9188 69.9276,-28.3908 16.3821,-3.4128 33.2952,-3.2612 49.9302,-2.5533 l -1.3904,0.8595 c -1.7445,1.0871 -3.4889,2.1237 -5.2333,3.1602 -3.514,1.0871 -7.0535,1.9466 -10.5675,2.8062 -6.0675,-0.0252 -12.1097,-0.4297 -18.1266,0 -34.5087,3.6153 -66.7167,19.2137 -95.5372,37.9216 -35.8739,22.1716 -68.2842,49.4751 -99.1272,78.1187 -17.5704,15.1686 -36.3289,29.1237 -56.6296,40.4497 -18.076,9.2528 -37.5678,18.2276 -58.4247,16.5338 14.7642,-5.8146 30.6155,-8.6714 44.7982,-16.003 12.236,-6.3961 26.5452,-11.9326 33.4722,-24.7501 8.2922,-14.486 15.7753,-29.4777 25.18,-43.3065 12.9692,-20.3007 28.34,-39.5648 36.0256,-62.6971 5.9662,-16.8119 9.6068,-36.1772 1.5674,-52.9386 -8.8484,-16.0787 -23.4103,-30.7924 -42.0677,-34.3065 -23.7137,-4.4494 -48.2111,0.2781 -70.2561,9.4046 -14.2079,5.5871 -28.3148,11.7557 -41.1071,20.1237 0.2022,-3.1602 0.3792,-6.295 0.5056,-9.4298 2.8818,-0.9102 5.7892,-1.7697 8.6713,-2.781 z"
         id="path263"
         inkscape:connector-curvature="0"
         style="fill:#bba128;stroke:#bba128;stroke-width:0.40000001" />
      <path
         d="m 814.3398,725.8682 c 22.045,-9.1265 46.5424,-13.854 70.2561,-9.4046 18.6575,3.5141 33.2194,18.2277 42.0677,34.3065 2.4522,20.5029 0.8344,42.0172 -9.4299,60.3713 -3.969,-11.0731 -5.6376,-22.7783 -9.5309,-33.8261 -9.3793,-23.3597 -33.447,-39.3627 -58.4246,-40.5003 -14.4355,-0.5815 -28.8964,0.4803 -43.3318,0.2022 2.7305,-3.767 5.4354,-7.5591 8.3934,-11.149 z"
         id="path265"
         inkscape:connector-curvature="0"
         style="fill:#fdf6ca;stroke:#fdf6ca;stroke-width:0.40000001" />
      <path
         d="m 229.3101,769.8067 c -9.2528,-5.7641 -9.177,-17.8738 -10.0113,-27.5059 6.9271,5.8906 9.5562,14.739 12.3372,23.0563 12.1855,5.4355 24.649,10.2136 37.0621,15.1686 1.795,1.4916 3.5899,3.0338 5.3343,4.6012 -16.2052,-0.0252 -31.0958,-7.2808 -44.7223,-15.3202 z"
         id="path275"
         inkscape:connector-curvature="0"
         style="fill:#a9afb7;stroke:#a9afb7;stroke-width:0.40000001" />
      <path
         d="m 1124.0331,774.6354 c 1.7444,-1.0365 3.4888,-2.0731 5.2333,-3.1602 9.0251,2.2248 20.5282,1.441 26.4691,9.9608 6.4973,8.8989 12.8933,19.2136 11.9833,30.7166 -0.5814,9.0252 -0.9607,18.6826 -5.84,26.6209 -4.8033,7.736 -10.0872,15.1686 -15.017,22.8036 -9.1517,14.132 -22.1714,25.0029 -33.9525,36.7839 -81.405,78.9781 -177.6754,143.7482 -284.1594,183.6165 -28.2642,12.3372 -59.1324,25.6351 -90.5568,17.9749 l -0.7079,-1.6938 c -1.4662,-3.4381 -2.9832,-6.8259 -4.8792,-10.0114 2.2753,-8.3427 4.1461,-17.4187 10.5928,-23.6884 15.2445,-15.75 36.0762,-23.84 55.4667,-33.0424 53.0144,-28.6182 99.8856,-67.9556 139.1218,-113.5373 15.6743,-17.6714 28.1125,-37.8964 43.4077,-55.846 30.9188,-36.3795 69.4977,-67.0959 114.144,-84.6917 6.0168,-0.4297 12.0591,-0.0252 18.1266,0 -37.7952,10.7698 -72.2028,31.8036 -100.1889,59.2083 -24.7756,22.7783 -45.5818,49.3488 -64.5933,76.981 -38.1744,45.4555 -83.554,85.1215 -134.5712,115.5599 -17.6208,10.7698 -37.871,16.635 -54.7082,28.7699 -7.3315,5.3342 -15.0676,11.3765 -18.3794,20.1237 -1.1882,5.7642 -0.6573,11.6799 -0.6826,17.5199 24.0676,6.042 48.1351,-2.6294 70.3067,-11.3765 39.6913,-14.0563 78.4977,-30.8683 114.9532,-52.0033 71.5455,-40.1716 136.8716,-91.1131 194.3862,-149.5629 15.6743,-15.0423 30.2615,-31.7784 39.5902,-51.5734 4.5759,-9.4551 3.6152,-20.1995 0.7332,-29.9582 -6.5226,20.0479 -14.5114,42.7504 -34.9889,52.4583 6.8004,-10.2641 16.0533,-18.8344 21.6152,-29.9327 5.3596,-10.5424 7.0281,-22.6519 6.2697,-34.3571 0.6826,-7.6096 -8.823,-8.2416 -13.9045,-10.8962 -1.7444,12.5142 -2.1742,25.6857 -8.1154,37.1126 -5.2836,11.0225 -13.3483,20.6548 -23.6377,27.3036 6.4213,-11.1995 16.458,-20.2249 20.9327,-32.5367 3.6404,-9.5815 3.969,-19.972 4.5759,-30.0844 -3.0338,-1.8708 -6.0423,-3.7162 -9.0254,-5.5618 z"
         id="path283"
         inkscape:connector-curvature="0"
         style="fill:#bc706c;stroke:#bc706c;stroke-width:0.40000001" />
      <path
         d="m 999.8018,815.3632 c 28.8205,-18.7079 61.0285,-34.3063 95.5372,-37.9216 -44.6464,17.5957 -83.2253,48.3121 -114.144,84.6917 -1.8708,-1.3651 -3.7164,-2.6798 -5.5618,-3.9944 -16.5844,10.517 -29.7812,25.2559 -45.7336,36.5565 -6.3203,4.6011 -12.413,9.5563 -18.6575,14.2585 -10.8708,8.368 -24.0422,12.8176 -35.4946,20.2502 -8.1658,5.2584 -16.7867,9.7838 -25.7361,13.6013 -1.9971,-2.9832 -3.9944,-5.9412 -5.9663,-8.8737 20.3007,-11.326 39.0592,-25.2811 56.6296,-40.4497 30.8429,-28.6437 63.2532,-55.9473 99.1271,-78.1188 z"
         id="path285"
         inkscape:connector-curvature="0"
         style="fill:#fcf6c9;stroke:#fcf6c9;stroke-width:0.40000001" />
      <path
         d="m 1113.4656,777.4415 c 3.514,-0.8596 7.0535,-1.7191 10.5675,-2.8062 2.9832,1.8456 5.9916,3.691 9.0254,5.5619 -0.6069,10.1124 -0.9355,20.5029 -4.5759,30.0844 -4.4747,12.3118 -14.5115,21.3372 -20.9327,32.5367 10.2894,-6.6488 18.3541,-16.2811 23.6377,-27.3036 5.9412,-11.4269 6.371,-24.5984 8.1154,-37.1126 5.0815,2.6546 14.5872,3.2866 13.9045,10.8962 0.7584,11.7051 -0.91,23.8147 -6.2697,34.3571 -5.5619,11.0983 -14.8148,19.6686 -21.6152,29.9327 20.4775,-9.7078 28.4663,-32.4103 34.9889,-52.4583 2.8821,9.7587 3.8428,20.5031 -0.7332,29.9582 -9.3287,19.795 -23.9159,36.5311 -39.5902,51.5734 -57.5145,58.4498 -122.8407,109.3913 -194.3862,149.5629 -36.4554,21.135 -75.2618,37.947 -114.9532,52.0033 -22.1716,8.7471 -46.2391,17.4185 -70.3067,11.3765 0.0253,-5.84 -0.5056,-11.7557 0.6826,-17.5199 3.3118,-8.7472 11.0479,-14.7894 18.3794,-20.1237 16.8372,-12.1349 37.0873,-18.0001 54.7082,-28.7699 51.0172,-30.4384 96.3968,-70.1044 134.5712,-115.5599 19.0115,-27.6322 39.8177,-54.2026 64.5933,-76.981 27.9861,-27.4045 62.3937,-48.4384 100.1889,-59.2082 z"
         id="path287"
         inkscape:connector-curvature="0"
         style="fill:#fec5c4;stroke:#fec5c4;stroke-width:0.40000001" />
      <path
         d="m 527.6776,894.5182 c 49.3486,-15.1434 101.3013,-20.0226 152.7736,-19.1125 15.4214,0.632 32.0312,1.163 45.2026,10.2641 12.5394,8.8484 16.8372,25.534 15.4973,40.1464 -2.4017,23.2081 -9.8091,45.4807 -15.6237,67.9809 -5.663,21.1603 -14.562,42.9525 -9.1771,65.1746 1.7949,11.4271 8.7473,20.8569 16.2557,29.2755 1.8961,3.1854 3.413,6.5732 4.8792,10.0114 -19.9215,-9.4299 -29.5283,-32.4609 -28.9974,-53.5453 -0.8848,-27.6071 14.7895,-51.7504 19.8204,-78.2197 3.8175,-20.4778 10.8709,-41.8655 4.4495,-62.5707 -4.5759,-14.4609 -20.5283,-21.2868 -34.6603,-21.5901 -28.7194,-0.7331 -57.4639,-0.5055 -86.1327,1.517 -46.6436,5.132 -92.4023,17.5198 -135.81,35.2418 -39.2868,15.7501 -74.4275,40.1715 -114.0936,55.0874 -40.9806,15.9524 -85.5259,28.871 -129.8184,21.0339 -31.6013,-4.8792 -64.6943,-15.8513 -85.7282,-41.2841 -7.382,-8.5703 -12.1602,-18.9608 -17.2164,-28.972 -35.621,9.3287 -65.0735,34.2052 -87.422,62.6718 -16.6855,24.2951 -34.5845,47.8318 -54.4555,69.624 -13.8793,15.548 -29.3008,29.6295 -42.6492,45.6577 -14.4355,15.6489 -35.4694,29.8569 -57.742,24.9777 -9.4551,-1.6179 -21.5395,-1.7444 -26.3935,-11.6798 -8.2922,-18.3793 -15.7501,-38.2504 -13.5254,-58.8038 1.9972,-40.3992 25.6856,-74.7309 37.9469,-112.2227 1.8708,0.0757 5.5618,0.2274 7.4326,0.3033 -7.9383,22.0704 -21.0339,41.8149 -28.6688,64.0117 -7.3062,20.6799 -13.045,42.6743 -10.7445,64.7701 1.3905,7.2051 2.3512,16.0028 9.2529,20.2249 7.2557,2.8568 13.5254,-3.0337 17.5957,-8.3175 12.8175,-16.6349 19.2894,-36.9357 27.7334,-55.8965 1.5927,-0.1263 4.8287,-0.354 6.4214,-0.4803 -7.4832,20.5282 -16.1293,41.0818 -29.3008,58.6775 -5.8652,8.4437 -16.0029,11.5028 -25.1547,14.8652 4.4495,6.75 8.4945,15.4214 17.1658,17.4438 11.8316,2.8568 23.0311,-3.7921 32.1323,-10.618 9.8849,-7.6854 20.4524,-15.4214 26.6462,-26.5703 6.0928,-10.9214 6.5225,-23.739 7.7866,-35.8488 1.4663,0.051 4.4242,0.1519 5.9158,0.2024 -0.5056,10.795 -1.6433,21.7164 -5.6882,31.8542 -9.7332,19.0872 -27.6828,31.3484 -44.52,43.5845 8.368,-2.0225 16.9636,-4.1461 24.194,-9.0507 11.3512,-7.5337 19.7192,-18.5057 28.7193,-28.5422 22.8794,-24.6997 46.0874,-49.2224 66.5904,-75.9698 18.0254,-24.5479 37.0621,-48.9188 61.9387,-66.9696 13.9552,-10.9466 30.5143,-17.6967 46.7447,-24.472 -2.5786,-14.2333 -6.1686,-29.1743 -0.9859,-43.2812 5.8399,14.4355 4.6012,30.2867 8.4692,45.1772 6.2697,20.5283 19.9214,39.1099 38.7053,49.8797 29.2755,16.9635 63.9106,23.1574 97.4839,21.2107 24.7501,-0.809 48.6408,-8.1404 71.8741,-16.1293 32.8654,-11.882 64.1128,-27.6827 94.8041,-44.2419 27.5565,-17.4944 59.1073,-27.0255 90.0767,-36.4806 z"
         id="path297"
         inkscape:connector-curvature="0"
         style="fill:#b1a143;stroke:#b1a143;stroke-width:0.40000001" />
      <path
         d="m -107.5098,945.485 c 10.0113,0.1264 20.0479,0.0505 30.0592,-0.4299 -6.3708,15.3456 -15.2698,29.4019 -23.6378,43.6858 -10.9972,18.8344 -17.5703,39.7924 -22.9047,60.801 -2.3512,10.5171 -10.8203,19.3401 -9.8596,30.5649 -0.5562,2.3763 1.3652,6.6489 -2.2247,7.0786 -4.2473,-3.7415 -7.6349,-8.2922 -10.8456,-12.9186 -2.3006,-22.0958 3.4382,-44.0902 10.7445,-64.7701 7.6349,-22.1968 20.7305,-41.9413 28.6687,-64.0117 z"
         id="path299"
         inkscape:connector-curvature="0"
         style="fill:#fdf6c9;stroke:#fdf6c9;stroke-width:0.40000001" />
      <path
         d="m -100.9367,1123.3879 c 16.8372,-12.2361 34.7868,-24.4973 44.52,-43.5845 2.7809,1.9718 5.5871,3.969 8.3933,5.9916 -9.0001,10.0365 -17.3681,21.0085 -28.7193,28.5422 -7.2304,4.9046 -15.826,7.0283 -24.194,9.0507 z"
         id="path301"
         inkscape:connector-curvature="0"
         style="fill:#faea8b;stroke:#faea8b;stroke-width:0.40000001" />
    </g>
    <g
       transform="matrix(0.33785552,0.07577641,-0.07577641,0.33785552,686.87212,435.54864)"
       id="g8129">
      <path
         inkscape:connector-curvature="0"
         d="m 389.88,135.21 c -23.61,17.62 -45.49,33.99 -55.34,52.85 l 1.24,17.42 27.99,-7.47 c 17.02,-7 9.24,-14.95 -5.6,-18.03 0.87,-13.44 29.53,-29.2 48.5,-44.15"
         style="fill:#de8500;fill-rule:evenodd;stroke:#000000;stroke-width:2"
         sodipodi:nodetypes="cccccc"
         id="path5106"
         transform="translate(-60.362,-36.721)" />
      <rect
         x="143.44"
         y="36.721001"
         width="282.63"
         height="143.07001"
         style="fill:none"
         id="rect3146"
         transform="translate(-60.362,-36.721)" />
      <path
         inkscape:connector-curvature="0"
         sodipodi:nodetypes="csssc"
         style="fill:#de8500;stroke:#000000;stroke-width:2.20000005"
         d="m 158.29,152.79 c 0.73,4.17 -20.37,11.33 -47.09,15.99 -26.721,4.67 -48.998,5.07 -49.725,0.91 -0.727,-4.17 27.605,2.87 47.095,-15.99 31.09,-30.11 53.2,-29.49 49.72,-0.91 z"
         id="path4273"
         transform="translate(-60.362,-36.721)" />
      <path
         inkscape:connector-curvature="0"
         sodipodi:nodetypes="ccccccccscccccccccc"
         style="fill:#de8500;fill-rule:evenodd;stroke:#000000;stroke-width:2.20000005px"
         d="m 177.38,174.3 10.1,18.26 c -15.86,18.3 -32.46,32.56 -49.42,44.93 -4.96,8.36 -5.08,15.12 5.34,18.39 14.52,-0.36 27.4,-6.37 40.1,-12.98 4.68,-6.8 -14.49,-6.14 -6.59,-16.46 12.12,-11.58 39.75,-24.32 36.36,-34.73 -10.11,-4.01 -14.53,-16.14 -17.34,-29.52 6.88,4.59 18.96,0.49 26.01,5.49 5.5,3.9 10.95,5.5 13.27,15.37 1.31,9.64 3.14,19.08 -5.95,30.74 -2.73,7.87 -12.93,16.72 5.12,17.6 l 38.11,-10.7 c 5.84,-1.55 4.09,-16.61 -4.29,-14.78 l -12.32,3.58 c -9.3,4.22 8.32,-27.58 -1.5,-41.94 -12.32,-18.56 -33.09,-21.95 -53.04,-22.25 -6.15,2.71 -12.23,4.06 -9.24,12.87 l 3.59,3.15"
         id="path4276"
         transform="translate(-60.362,-36.721)" />
      <path
         inkscape:connector-curvature="0"
         sodipodi:nodetypes="cccccc"
         style="fill:#de8500;fill-rule:evenodd;stroke:#000000;stroke-width:2.20000005px"
         d="m 366.98,131.21 c -32.67,18.22 -56.47,41.77 -72.12,70.2 -9.74,17 -0.83,14.69 3.19,14.68 l 38.93,-10.21 c 11.56,-7.11 12.45,-18.63 -3.19,-16.59 11.88,-22.79 35.13,-37.99 56.8,-54.25"
         id="path4283"
         transform="translate(-60.362,-36.721)" />
      <path
         inkscape:connector-curvature="0"
         sodipodi:nodetypes="cc"
         style="fill:none;stroke:#000000;stroke-width:2.20000005px"
         d="m 244.82,157.5 c 30.89,-11.57 62.86,-19.52 99.18,-13"
         id="path4285"
         transform="translate(-60.362,-36.721)" />
      <path
         inkscape:connector-curvature="0"
         d="m 265.34,134.92 6.84,14.37"
         style="fill:none;stroke:#000000;stroke-width:2.20000005px"
         id="path4287"
         transform="translate(-60.362,-36.721)" />
      <path
         inkscape:connector-curvature="0"
         d="m 301.59,128.77 -0.69,13.68"
         style="fill:none;stroke:#000000;stroke-width:2.20000005px"
         id="path4289"
         transform="translate(-60.362,-36.721)" />
      <path
         inkscape:connector-curvature="0"
         d="m 335.79,128.08 -5.47,13.68"
         style="fill:none;stroke:#000000;stroke-width:2.20000005px"
         id="path4291"
         transform="translate(-60.362,-36.721)" />
      <path
         inkscape:connector-curvature="0"
         sodipodi:nodetypes="csssc"
         style="fill:url(#linearGradient3156);stroke:#000000;stroke-width:2.20000005"
         d="m 424.43,115.16 c 7.45,42.69 -63.95,2.74 -140.99,16.19 -77.05,13.44 -130.7,75.21 -138.15,32.53 -7.45,-42.69 41.31,-110.22 118.35,-123.67 77.05,-13.442 153.34,32.264 160.79,74.95 z"
         id="path3148"
         transform="translate(-60.362,-36.721)" />
      <path
         inkscape:connector-curvature="0"
         d="m 362.15,73.146 39.3,-3.086 c -6.67,-7.827 -12.44,-16.42 1.19,-28.676 16.11,-12.192 38.3,-24.657 71.45,-4.42 28.1,22.026 13.22,43.281 -1.19,59.639 -6.07,6.297 -23.81,16.677 -38.11,1.802 -3.76,-7.099 -4.16,-10.272 -2.08,-15.616 l -67.88,5.033"
         style="fill:#4f4f4f;fill-opacity:0.17646999;fill-rule:evenodd;stroke:#000000;stroke-width:2.20000005px"
         sodipodi:nodetypes="cccccccc"
         id="path4630" />
      <path
         inkscape:connector-curvature="0"
         d="m 433.43,83.013 c -2.6,-2.25 -4.99,-5.746 -9.06,-5.061 -1.92,-1.818 -1.84,-4.635 -0.59,-8.039 l 0,-1.684"
         style="fill:none;stroke:#000000;stroke-width:2.20000005px"
         sodipodi:nodetypes="cccc"
         id="path4632" />
      <path
         inkscape:connector-curvature="0"
         d="m 417.07,70.885 c 2.8,-3.088 8.35,-3.72 11.15,-0.632 l 1.48,1.474"
         style="fill:none;stroke:#000000;stroke-width:2.20000005px"
         sodipodi:nodetypes="cccc"
         id="path4634" />
      <ellipse
         ry="4.7864876"
         rx="2.7558563"
         cy="479.86929"
         cx="327.65683"
         transform="matrix(-0.90975,-2.3071,1.3596,0.052548,100.28,774.85)"
         style="fill:#ffffff;stroke:#000000"
         id="path4636" />
      <ellipse
         ry="0.72522533"
         rx="0.87027043"
         cy="488.28189"
         cx="334.18384"
         transform="matrix(2.2,0,0,2.2,-277.98,-1026.6)"
         style="fill:#000000;stroke:#000000"
         id="path4638" />
      <path
         inkscape:connector-curvature="0"
         d="m 442.48,41.518 c -0.47,-7.619 8.39,-10.76 13.41,-9.572"
         style="fill:none;stroke:#000000;stroke-width:2.20000005px"
         sodipodi:nodetypes="cc"
         id="path4640" />
    </g>
  </g>
</svg>
