<?xml version="1.0" encoding="UTF-8" standalone="no"?>
<!-- Created with Inkscape (http://www.inkscape.org/) -->

<svg
   xmlns:dc="http://purl.org/dc/elements/1.1/"
   xmlns:cc="http://creativecommons.org/ns#"
   xmlns:rdf="http://www.w3.org/1999/02/22-rdf-syntax-ns#"
   xmlns:svg="http://www.w3.org/2000/svg"
   xmlns="http://www.w3.org/2000/svg"
   xmlns:xlink="http://www.w3.org/1999/xlink"
   xmlns:sodipodi="http://sodipodi.sourceforge.net/DTD/sodipodi-0.dtd"
   xmlns:inkscape="http://www.inkscape.org/namespaces/inkscape"
   width="10.5in"
   height="7.25in"
   viewBox="0 0 945 652.49999"
   id="svg2"
   version="1.1"
   inkscape:version="0.91 r13725"
   sodipodi:docname="serialization-readability.svg">
  <defs
     id="defs4">
    <linearGradient
       gradientTransform="matrix(0.50577839,0,0,4.3813313,508.60374,-5414.3451)"
       id="linearGradient6633"
       y2="1341.3"
       xlink:href="#linearGradient6613"
       gradientUnits="userSpaceOnUse"
       x2="-674.71997"
       y1="1666.1"
       x1="-691.07001"
       inkscape:collect="always" />
    <linearGradient
       id="linearGradient6613">
      <stop
         id="stop6615"
         style="stop-color:#000000;stop-opacity:.49412"
         offset="0" />
      <stop
         id="stop6617"
         style="stop-color:#000000;stop-opacity:0"
         offset="1" />
    </linearGradient>
    <linearGradient
       gradientTransform="matrix(0.56825101,0,0,4.9225036,1271.0158,-6226.9199)"
       id="linearGradient6633-9"
       y2="1341.3"
       xlink:href="#linearGradient6613"
       gradientUnits="userSpaceOnUse"
       x2="-674.71997"
       y1="1666.1"
       x1="-691.07001"
       inkscape:collect="always" />
    <radialGradient
       id="radialGradient3046"
       gradientUnits="userSpaceOnUse"
       cy="475.57001"
       cx="369.72"
       gradientTransform="matrix(1,0,0,0.9569,0,20.499)"
       r="117.18"
       inkscape:collect="always">
      <stop
         id="stop2089"
         style="stop-color:#f3f3f3"
         offset="0" />
      <stop
         id="stop2091"
         style="stop-color:#f3f3f3;stop-opacity:0"
         offset="1" />
    </radialGradient>
    <linearGradient
       id="linearGradient3048"
       y2="757.64001"
       xlink:href="#linearGradient2071"
       gradientUnits="userSpaceOnUse"
       x2="319.51001"
       gradientTransform="translate(11.071,7.5)"
       y1="757.64001"
       x1="263.59"
       inkscape:collect="always" />
    <linearGradient
       id="linearGradient2071">
      <stop
         id="stop2073"
         style="stop-color:#3333d3"
         offset="0" />
      <stop
         id="stop2079"
         style="stop-color:#3333d3;stop-opacity:.49804"
         offset="0" />
      <stop
         id="stop2075"
         style="stop-color:#3333d3;stop-opacity:0"
         offset="1" />
    </linearGradient>
    <linearGradient
       id="linearGradient3056"
       y2="757.64001"
       xlink:href="#linearGradient2071"
       gradientUnits="userSpaceOnUse"
       x2="319.51001"
       gradientTransform="matrix(0.78751,-0.61631,0.61631,0.78751,-395.45,357.21)"
       y1="757.64001"
       x1="263.59"
       inkscape:collect="always" />
    <linearGradient
       inkscape:collect="always"
       xlink:href="#linearGradient2071"
       id="linearGradient8770"
       gradientUnits="userSpaceOnUse"
       gradientTransform="translate(11.071,7.5)"
       x1="263.59"
       y1="757.64001"
       x2="319.51001"
       y2="757.64001" />
    <linearGradient
       inkscape:collect="always"
       xlink:href="#linearGradient2071"
       id="linearGradient8772"
       gradientUnits="userSpaceOnUse"
       gradientTransform="translate(11.071,7.5)"
       x1="263.59"
       y1="757.64001"
       x2="319.51001"
       y2="757.64001" />
    <linearGradient
       inkscape:collect="always"
       xlink:href="#linearGradient2071"
       id="linearGradient8774"
       gradientUnits="userSpaceOnUse"
       gradientTransform="translate(11.071,7.5)"
       x1="263.59"
       y1="757.64001"
       x2="319.51001"
       y2="757.64001" />
    <linearGradient
       inkscape:collect="always"
       xlink:href="#linearGradient2071"
       id="linearGradient8776"
       gradientUnits="userSpaceOnUse"
       gradientTransform="translate(11.071,7.5)"
       x1="263.59"
       y1="757.64001"
       x2="319.51001"
       y2="757.64001" />
    <linearGradient
       inkscape:collect="always"
       xlink:href="#linearGradient2071"
       id="linearGradient8778"
       gradientUnits="userSpaceOnUse"
       gradientTransform="translate(11.071,7.5)"
       x1="263.59"
       y1="757.64001"
       x2="319.51001"
       y2="757.64001" />
  </defs>
  <sodipodi:namedview
     id="base"
     pagecolor="#ffffff"
     bordercolor="#666666"
     borderopacity="1.0"
     inkscape:pageopacity="0.0"
     inkscape:pageshadow="2"
     inkscape:zoom="1"
     inkscape:cx="406.1477"
     inkscape:cy="381.03579"
     inkscape:document-units="px"
     inkscape:current-layer="layer1"
     showgrid="false"
     inkscape:window-width="2560"
     inkscape:window-height="1391"
     inkscape:window-x="0"
     inkscape:window-y="1"
     inkscape:window-maximized="1"
     units="in" />
  <metadata
     id="metadata7">
    <rdf:RDF>
      <cc:Work
         rdf:about="">
        <dc:format>image/svg+xml</dc:format>
        <dc:type
           rdf:resource="http://purl.org/dc/dcmitype/StillImage" />
        <dc:title></dc:title>
      </cc:Work>
    </rdf:RDF>
  </metadata>
  <g
     inkscape:label="Layer 1"
     inkscape:groupmode="layer"
     id="layer1"
     transform="translate(0,-399.86221)">
    <g
       id="g8973"
       transform="matrix(0.85177867,0,0,0.85177867,68.491447,53.768245)">
      <g
         transform="translate(-76,0)"
         id="g8415" />
      <text
         sodipodi:linespacing="125%"
         id="text8599"
         y="452.36221"
         x="846"
         style="font-style:normal;font-weight:normal;font-size:17.5px;line-height:125%;font-family:sans-serif;letter-spacing:0px;word-spacing:0px;fill:#000000;fill-opacity:1;stroke:none;stroke-width:1px;stroke-linecap:butt;stroke-linejoin:miter;stroke-opacity:1"
         xml:space="preserve"><tspan
           y="452.36221"
           x="846"
           id="tspan8601"
           sodipodi:role="line"></tspan></text>
      <rect
         x="67.757179"
         y="447.43802"
         width="181.82225"
         height="559.27698"
         rx="29.574884"
         style="fill:url(#linearGradient6633);stroke:#000000;stroke-width:7.44308805"
         ry="269.15829"
         id="rect4849" />
      <g
         transform="matrix(0.89006157,0,0,0.89006157,-1.860638,127.99697)"
         id="g8133">
        <rect
           id="rect4849-3"
           ry="302.40414"
           style="fill:url(#linearGradient6633-9);stroke:#000000;stroke-width:8.36244202"
           rx="33.227909"
           height="628.3576"
           width="204.28053"
           y="358.89771"
           x="775.71686" />
        <path
           inkscape:connector-curvature="0"
           sodipodi:nodetypes="ccc"
           d="m 768.72364,503.40308 c -65.32919,0.48404 -1.75111,170.87582 -47.27987,170.46011 45.79795,1.42912 -12.79687,172.28022 48.89549,171.77464"
           style="fill:none;stroke:#000000;stroke-width:5.617589"
           id="path5013-5" />
      </g>
      <path
         sodipodi:nodetypes="ccc"
         inkscape:connector-curvature="0"
         id="path8141"
         d="m 287.1047,727.75967 359.73207,0.63118 0.71519,0.003"
         style="fill:#000000;fill-opacity:1;fill-rule:evenodd;stroke:#000000;stroke-width:5.14838839;stroke-linecap:butt;stroke-linejoin:miter;stroke-miterlimit:4;stroke-dasharray:none;stroke-opacity:1" />
      <text
         sodipodi:linespacing="125%"
         id="text8223"
         y="505.19684"
         x="99.224922"
         style="font-style:italic;font-variant:normal;font-weight:normal;font-stretch:normal;font-size:24.47669411px;line-height:125%;font-family:sans-serif;-inkscape-font-specification:'sans-serif Italic';letter-spacing:0px;word-spacing:0px;fill:#000000;fill-opacity:1;stroke:none;stroke-width:1px;stroke-linecap:butt;stroke-linejoin:miter;stroke-opacity:1"
         xml:space="preserve"><tspan
           y="505.19684"
           x="99.224922"
           id="tspan8225"
           sodipodi:role="line">11011011</tspan><tspan
           id="tspan8227"
           y="535.79272"
           x="99.224922"
           sodipodi:role="line">10101011</tspan><tspan
           id="tspan8231"
           y="566.38855"
           x="99.224922"
           sodipodi:role="line">10101110</tspan><tspan
           id="tspan8235"
           y="596.98444"
           x="99.224922"
           sodipodi:role="line">11101110</tspan><tspan
           id="tspan8237"
           y="627.58032"
           x="99.224922"
           sodipodi:role="line">10101011</tspan><tspan
           id="tspan8239"
           y="658.17615"
           x="99.224922"
           sodipodi:role="line">11010110</tspan><tspan
           id="tspan8243"
           y="688.77203"
           x="99.224922"
           sodipodi:role="line">11111010</tspan><tspan
           id="tspan8247"
           y="719.36792"
           x="99.224922"
           sodipodi:role="line">11101101</tspan><tspan
           id="tspan8251"
           y="749.96381"
           x="99.224922"
           sodipodi:role="line">10111010</tspan><tspan
           id="tspan8255"
           y="780.55963"
           x="99.224922"
           sodipodi:role="line">11110101</tspan><tspan
           id="tspan8257"
           y="811.15552"
           x="99.224922"
           sodipodi:role="line">11111011</tspan><tspan
           id="tspan8259"
           y="841.7514"
           x="99.224922"
           sodipodi:role="line">10001011</tspan><tspan
           id="tspan8261"
           y="872.34723"
           x="99.224922"
           sodipodi:role="line">00010101</tspan><tspan
           id="tspan8263"
           y="902.94312"
           x="99.224922"
           sodipodi:role="line">11101011</tspan><tspan
           id="tspan8265"
           y="933.539"
           x="99.224922"
           sodipodi:role="line">11110110</tspan><tspan
           id="tspan8267"
           y="964.13483"
           x="99.224922"
           sodipodi:role="line">11111011</tspan></text>
      <text
         sodipodi:linespacing="125%"
         id="text8223-7"
         y="507.66171"
         x="719.96844"
         style="font-style:italic;font-variant:normal;font-weight:normal;font-stretch:normal;font-size:24.47669411px;line-height:125%;font-family:sans-serif;-inkscape-font-specification:'sans-serif Italic';letter-spacing:0px;word-spacing:0px;fill:#000000;fill-opacity:1;stroke:none;stroke-width:1px;stroke-linecap:butt;stroke-linejoin:miter;stroke-opacity:1"
         xml:space="preserve"><tspan
           y="507.66171"
           x="719.96844"
           id="tspan8225-7"
           sodipodi:role="line">11011011</tspan><tspan
           id="tspan8227-6"
           y="538.25757"
           x="719.96844"
           sodipodi:role="line">11010101</tspan><tspan
           id="tspan8231-5"
           y="568.85345"
           x="719.96844"
           sodipodi:role="line">01110101</tspan><tspan
           id="tspan8235-7"
           y="599.44934"
           x="719.96844"
           sodipodi:role="line">01110111</tspan><tspan
           id="tspan8267-3"
           y="630.04517"
           x="719.96844"
           sodipodi:role="line" /></text>
      <path
         id="rect4857"
         style="fill:#e6e6e6;fill-opacity:1;stroke:#000000;stroke-width:1.39725637"
         d="m 434.69277,708.55263 -93.50964,0 c -28.04527,11.25105 -28.27823,25.57978 0,36.66626 l 93.50964,0 c 25.24822,-3.0935 49.30569,-7.3787 67.51271,-18.16424 -18.67091,-8.10137 -35.47711,-15.67704 -67.51271,-18.50202 z"
         sodipodi:nodetypes="cccccc"
         inkscape:connector-curvature="0" />
      <g
         id="g8411"
         transform="matrix(0.89006157,0,0,0.89006157,-69.505317,127.99697)">
        <text
           sodipodi:linespacing="125%"
           id="text8401"
           y="682.36218"
           x="441"
           style="font-style:italic;font-variant:normal;font-weight:normal;font-stretch:normal;font-size:27.5px;line-height:125%;font-family:sans-serif;-inkscape-font-specification:'sans-serif Italic';letter-spacing:0px;word-spacing:0px;fill:#000000;fill-opacity:1;stroke:none;stroke-width:1px;stroke-linecap:butt;stroke-linejoin:miter;stroke-opacity:1"
           xml:space="preserve"><tspan
             y="682.36218"
             x="441"
             id="tspan8403"
             sodipodi:role="line">&lt;bit&gt;1&lt;/bit&gt;</tspan></text>
        <text
           sodipodi:linespacing="125%"
           id="text8780"
           y="499.36218"
           x="643"
           style="font-style:normal;font-variant:normal;font-weight:bold;font-stretch:normal;font-size:27.5px;line-height:125%;font-family:sans-serif;-inkscape-font-specification:'sans-serif Bold';letter-spacing:0px;word-spacing:0px;fill:#000000;fill-opacity:1;stroke:none;stroke-width:1px;stroke-linecap:butt;stroke-linejoin:miter;stroke-opacity:1"
           xml:space="preserve"><tspan
             y="499.36218"
             x="643"
             id="tspan8782"
             sodipodi:role="line">Readability</tspan></text>
      </g>
      <g
         transform="matrix(-0.16908477,0.05241714,0.05000512,0.16130419,516.32774,573.53941)"
         inkscape:export-filename="/home/lamatin/Projekt_Kliparty/9.C prace/Kamca/Obrázky Inkscape/oko.png"
         inkscape:export-xdpi="90"
         inkscape:export-ydpi="90"
         id="g3007">
        <path
           d="m 99.622,409.26 c 22.698,-30.23 48.168,-62.07 45.298,-103.88 -0.88,-22.67 -3.3,-36.75 -21.18,-63.32 -5.89,-6.38 -10.99,-14.67 -18.85,-17.43"
           style="fill:none;stroke:#000000;stroke-width:8.76229954"
           sodipodi:nodetypes="cccc"
           id="path3600"
           inkscape:connector-curvature="0" />
        <path
           d="m 147.1,373.02 c 22.7,-29.28 48.16,-60.13 45.29,-100.63 -0.87,-21.96 -3.29,-35.61 -21.17,-61.34 -5.89,-6.19 -11,-14.22 -18.86,-16.89"
           style="fill:none;stroke:#000000;stroke-width:8.62450027"
           sodipodi:nodetypes="cccc"
           id="path3602"
           inkscape:connector-curvature="0" />
        <path
           d="m 195.59,345.39 c 22.7,-25.2 48.16,-51.74 45.29,-86.59 -0.87,-18.9 -3.29,-30.64 -21.17,-52.78 -5.89,-5.33 -11,-12.23 -18.86,-14.53"
           style="fill:none;stroke:#000000;stroke-width:8"
           sodipodi:nodetypes="cccc"
           id="path3604"
           inkscape:connector-curvature="0" />
        <path
           d="m 248.62,324.7 c 22.7,-25.2 48.16,-51.74 45.29,-86.59 -0.87,-18.89 -3.29,-30.63 -21.17,-52.78 -5.89,-5.32 -11,-12.23 -18.85,-14.53"
           style="fill:none;stroke:#000000;stroke-width:8"
           sodipodi:nodetypes="cccc"
           id="path3586"
           inkscape:connector-curvature="0" />
        <path
           d="M 664.68,447.28 C 604.07,535.02 482.19,591.73 344.46,591.73 206.73,591.73 142.89,544.65 48.49,453.34 144.56,361.01 214.83,312.82 352.54,310.91 500.37,308.89 636.4,387.83 664.68,447.28 Z"
           style="fill:#ffffff;fill-opacity:0.95336998;stroke:#140707;stroke-width:6"
           sodipodi:nodetypes="cscsc"
           id="path1305"
           inkscape:connector-curvature="0" />
        <g
           transform="translate(0,-16)"
           id="g1373">
          <ellipse
             transform="translate(-11.397,6.7053)"
             style="fill:#7670cc;stroke:#140707;stroke-width:6"
             id="path2037"
             cx="369.71582"
             cy="475.56509"
             rx="117.1777"
             ry="112.12693" />
          <ellipse
             transform="translate(-12.372,11.359)"
             style="fill:url(#radialGradient3046);stroke-width:0"
             id="path2085"
             cx="369.71582"
             cy="475.56509"
             rx="117.1777"
             ry="112.12693" />
          <g
             transform="translate(-4.4129,-305.11)"
             id="g2081">
            <path
               d="m 278.88,750.08 c 1.27,1.46 2.86,2.58 4.41,3.72 2.08,1.42 4.24,2.69 6.35,4.05 2.41,1.5 4.97,2.72 7.53,3.95 2.45,1 4.86,2.1 7.22,3.3 2.71,1.92 5.74,3.26 8.62,4.88 2.16,1.28 4.42,2.34 6.73,3.28 2.25,0.91 4.55,1.68 6.81,2.57 1.29,0.61 2.58,1.2 3.91,1.71 l -4.15,2.81 c -1.33,-0.53 -2.62,-1.16 -3.93,-1.74 -2.26,-0.86 -4.52,-1.73 -6.78,-2.58 -2.33,-0.95 -4.57,-2.07 -6.75,-3.33 -2.85,-1.65 -5.86,-3.03 -8.6,-4.88 -2.37,-1.18 -4.78,-2.24 -7.21,-3.28 -2.57,-1.24 -5.15,-2.48 -7.57,-4.01 -2.13,-1.36 -4.32,-2.63 -6.4,-4.06 -1.57,-1.17 -3.13,-2.36 -4.53,-3.73 l 4.34,-2.66 z"
               style="fill:#c2bfe2"
               id="path2045"
               inkscape:connector-curvature="0" />
            <path
               d="m 279,750 c 1.27,1.46 2.86,2.58 4.41,3.72 2.08,1.42 4.24,2.69 6.35,4.05 2.41,1.5 4.97,2.72 7.53,3.95 2.45,1 4.86,2.1 7.22,3.3 2.71,1.92 5.74,3.26 8.62,4.88 2.16,1.28 4.42,2.34 6.73,3.28 2.25,0.91 4.55,1.68 6.81,2.57 1.29,0.61 2.58,1.2 3.91,1.71 l -4.15,2.81 c -1.33,-0.53 -2.62,-1.16 -3.93,-1.74 -2.26,-0.86 -4.52,-1.73 -6.78,-2.58 -2.33,-0.95 -4.57,-2.07 -6.75,-3.34 -2.85,-1.64 -5.86,-3.02 -8.6,-4.88 -2.37,-1.17 -4.78,-2.23 -7.21,-3.27 -2.57,-1.24 -5.15,-2.49 -7.57,-4.01 -2.13,-1.36 -4.32,-2.63 -6.4,-4.06 -1.57,-1.17 -3.13,-2.36 -4.53,-3.73 L 279,750 Z"
               style="fill:url(#linearGradient8770)"
               id="path2041"
               inkscape:connector-curvature="0" />
          </g>
          <ellipse
             transform="matrix(0.25204,0,0,0.26282,271.28,368.4)"
             style="fill:#000000;stroke:#140707;stroke-width:6"
             id="path2039"
             cx="369.71582"
             cy="475.56509"
             rx="117.1777"
             ry="112.12693" />
          <g
             transform="matrix(-0.96097,0.27665,-0.27665,-0.96097,932.4,1137.9)"
             id="g1325">
            <path
               d="m 278.88,750.08 c 1.27,1.46 2.86,2.58 4.41,3.72 2.08,1.42 4.24,2.69 6.35,4.05 2.41,1.5 4.97,2.72 7.53,3.95 2.45,1 4.86,2.1 7.22,3.3 2.71,1.92 5.74,3.26 8.62,4.88 2.16,1.28 4.42,2.34 6.73,3.28 2.25,0.91 4.55,1.68 6.81,2.57 1.29,0.61 2.58,1.2 3.91,1.71 l -4.15,2.81 c -1.33,-0.53 -2.62,-1.16 -3.93,-1.74 -2.26,-0.86 -4.52,-1.73 -6.78,-2.58 -2.33,-0.95 -4.57,-2.07 -6.75,-3.33 -2.85,-1.65 -5.86,-3.03 -8.6,-4.88 -2.37,-1.18 -4.78,-2.24 -7.21,-3.28 -2.57,-1.24 -5.15,-2.48 -7.57,-4.01 -2.13,-1.36 -4.32,-2.63 -6.4,-4.06 -1.57,-1.17 -3.13,-2.36 -4.53,-3.73 l 4.34,-2.66 z"
               style="fill:#c2bfe2"
               id="path1327"
               inkscape:connector-curvature="0" />
            <path
               d="m 279,750 c 1.27,1.46 2.86,2.58 4.41,3.72 2.08,1.42 4.24,2.69 6.35,4.05 2.41,1.5 4.97,2.72 7.53,3.95 2.45,1 4.86,2.1 7.22,3.3 2.71,1.92 5.74,3.26 8.62,4.88 2.16,1.28 4.42,2.34 6.73,3.28 2.25,0.91 4.55,1.68 6.81,2.57 1.29,0.61 2.58,1.2 3.91,1.71 l -4.15,2.81 c -1.33,-0.53 -2.62,-1.16 -3.93,-1.74 -2.26,-0.86 -4.52,-1.73 -6.78,-2.58 -2.33,-0.95 -4.57,-2.07 -6.75,-3.34 -2.85,-1.64 -5.86,-3.02 -8.6,-4.88 -2.37,-1.17 -4.78,-2.23 -7.21,-3.27 -2.57,-1.24 -5.15,-2.49 -7.57,-4.01 -2.13,-1.36 -4.32,-2.63 -6.4,-4.06 -1.57,-1.17 -3.13,-2.36 -4.53,-3.73 L 279,750 Z"
               style="fill:url(#linearGradient8772)"
               id="path1329"
               inkscape:connector-curvature="0" />
          </g>
          <g
             transform="matrix(-0.2152,0.97657,-0.97657,-0.2152,1217.6,304.07)"
             id="g1331">
            <path
               d="m 278.88,750.08 c 1.27,1.46 2.86,2.58 4.41,3.72 2.08,1.42 4.24,2.69 6.35,4.05 2.41,1.5 4.97,2.72 7.53,3.95 2.45,1 4.86,2.1 7.22,3.3 2.71,1.92 5.74,3.26 8.62,4.88 2.16,1.28 4.42,2.34 6.73,3.28 2.25,0.91 4.55,1.68 6.81,2.57 1.29,0.61 2.58,1.2 3.91,1.71 l -4.15,2.81 c -1.33,-0.53 -2.62,-1.16 -3.93,-1.74 -2.26,-0.86 -4.52,-1.73 -6.78,-2.58 -2.33,-0.95 -4.57,-2.07 -6.75,-3.33 -2.85,-1.65 -5.86,-3.03 -8.6,-4.88 -2.37,-1.18 -4.78,-2.24 -7.21,-3.28 -2.57,-1.24 -5.15,-2.48 -7.57,-4.01 -2.13,-1.36 -4.32,-2.63 -6.4,-4.06 -1.57,-1.17 -3.13,-2.36 -4.53,-3.73 l 4.34,-2.66 z"
               style="fill:#c2bfe2"
               id="path1333"
               inkscape:connector-curvature="0" />
            <path
               d="m 279,750 c 1.27,1.46 2.86,2.58 4.41,3.72 2.08,1.42 4.24,2.69 6.35,4.05 2.41,1.5 4.97,2.72 7.53,3.95 2.45,1 4.86,2.1 7.22,3.3 2.71,1.92 5.74,3.26 8.62,4.88 2.16,1.28 4.42,2.34 6.73,3.28 2.25,0.91 4.55,1.68 6.81,2.57 1.29,0.61 2.58,1.2 3.91,1.71 l -4.15,2.81 c -1.33,-0.53 -2.62,-1.16 -3.93,-1.74 -2.26,-0.86 -4.52,-1.73 -6.78,-2.58 -2.33,-0.95 -4.57,-2.07 -6.75,-3.34 -2.85,-1.64 -5.86,-3.02 -8.6,-4.88 -2.37,-1.17 -4.78,-2.23 -7.21,-3.27 -2.57,-1.24 -5.15,-2.49 -7.57,-4.01 -2.13,-1.36 -4.32,-2.63 -6.4,-4.06 -1.57,-1.17 -3.13,-2.36 -4.53,-3.73 L 279,750 Z"
               style="fill:url(#linearGradient8774)"
               id="path1335"
               inkscape:connector-curvature="0" />
          </g>
          <g
             transform="matrix(-0.3123,-0.8634,0.94998,-0.28383,-283.98,1034.3)"
             id="g1337">
            <path
               d="m 278.88,750.08 c 1.27,1.46 2.86,2.58 4.41,3.72 2.08,1.42 4.24,2.69 6.35,4.05 2.41,1.5 4.97,2.72 7.53,3.95 2.45,1 4.86,2.1 7.22,3.3 2.71,1.92 5.74,3.26 8.62,4.88 2.16,1.28 4.42,2.34 6.73,3.28 2.25,0.91 4.55,1.68 6.81,2.57 1.29,0.61 2.58,1.2 3.91,1.71 l -4.15,2.81 c -1.33,-0.53 -2.62,-1.16 -3.93,-1.74 -2.26,-0.86 -4.52,-1.73 -6.78,-2.58 -2.33,-0.95 -4.57,-2.07 -6.75,-3.33 -2.85,-1.65 -5.86,-3.03 -8.6,-4.88 -2.37,-1.18 -4.78,-2.24 -7.21,-3.28 -2.57,-1.24 -5.15,-2.48 -7.57,-4.01 -2.13,-1.36 -4.32,-2.63 -6.4,-4.06 -1.57,-1.17 -3.13,-2.36 -4.53,-3.73 l 4.34,-2.66 z"
               style="fill:#c2bfe2"
               id="path1339"
               inkscape:connector-curvature="0" />
            <path
               d="m 279,750 c 1.27,1.46 2.86,2.58 4.41,3.72 2.08,1.42 4.24,2.69 6.35,4.05 2.41,1.5 4.97,2.72 7.53,3.95 2.45,1 4.86,2.1 7.22,3.3 2.71,1.92 5.74,3.26 8.62,4.88 2.16,1.28 4.42,2.34 6.73,3.28 2.25,0.91 4.55,1.68 6.81,2.57 1.29,0.61 2.58,1.2 3.91,1.71 l -4.15,2.81 c -1.33,-0.53 -2.62,-1.16 -3.93,-1.74 -2.26,-0.86 -4.52,-1.73 -6.78,-2.58 -2.33,-0.95 -4.57,-2.07 -6.75,-3.34 -2.85,-1.64 -5.86,-3.02 -8.6,-4.88 -2.37,-1.17 -4.78,-2.23 -7.21,-3.27 -2.57,-1.24 -5.15,-2.49 -7.57,-4.01 -2.13,-1.36 -4.32,-2.63 -6.4,-4.06 -1.57,-1.17 -3.13,-2.36 -4.53,-3.73 L 279,750 Z"
               style="fill:url(#linearGradient8776)"
               id="path1341"
               inkscape:connector-curvature="0" />
          </g>
          <g
             transform="translate(-4.7446,-259.55)"
             id="g1343">
            <path
               d="m 273.12,777.08 c 1.9,0.36 3.85,0.25 5.77,0.18 2.51,-0.17 4.99,-0.51 7.49,-0.76 2.82,-0.31 5.59,-0.94 8.35,-1.56 2.55,-0.74 5.12,-1.37 7.72,-1.9 3.31,-0.17 6.53,-0.99 9.79,-1.51 2.49,-0.34 4.91,-0.9 7.31,-1.6 2.33,-0.68 4.61,-1.51 6.93,-2.2 1.4,-0.33 2.78,-0.66 4.14,-1.09 l -1.51,4.78 c -1.38,0.41 -2.78,0.71 -4.17,1.07 -2.31,0.73 -4.61,1.45 -6.92,2.18 -2.41,0.7 -4.87,1.21 -7.36,1.57 -3.26,0.48 -6.48,1.26 -9.77,1.5 -2.59,0.55 -5.14,1.22 -7.69,1.91 -2.79,0.62 -5.59,1.24 -8.43,1.54 -2.51,0.26 -5.01,0.62 -7.54,0.79 -1.95,0.06 -3.91,0.08 -5.86,-0.12 l 1.75,-4.78 z"
               style="fill:#c2bfe2"
               id="path1345"
               inkscape:connector-curvature="0" />
            <path
               d="m 273.16,776.81 c 1.89,0.36 3.84,0.27 5.76,0.21 2.51,-0.16 5,-0.49 7.5,-0.72 2.82,-0.31 5.59,-0.92 8.36,-1.53 2.55,-0.73 5.12,-1.35 7.72,-1.86 3.32,-0.15 6.53,-0.96 9.8,-1.46 2.48,-0.33 4.91,-0.88 7.32,-1.57 2.33,-0.67 4.62,-1.48 6.94,-2.17 1.39,-0.32 2.77,-0.64 4.14,-1.07 l -1.53,4.78 c -1.38,0.4 -2.79,0.7 -4.18,1.05 -2.31,0.72 -4.62,1.42 -6.92,2.15 -2.42,0.68 -4.88,1.18 -7.37,1.53 -3.27,0.46 -6.49,1.22 -9.79,1.45 -2.58,0.54 -5.14,1.19 -7.7,1.87 -2.78,0.61 -5.58,1.22 -8.43,1.51 -2.51,0.24 -5.02,0.59 -7.54,0.75 -1.96,0.05 -3.91,0.06 -5.86,-0.15 l 1.78,-4.77 z"
               style="fill:url(#linearGradient3056)"
               id="path1347"
               inkscape:connector-curvature="0" />
          </g>
          <g
             transform="matrix(0.70746,0.70675,-0.70675,0.70746,671.56,-330.15)"
             id="g1349">
            <path
               d="m 278.88,750.08 c 1.27,1.46 2.86,2.58 4.41,3.72 2.08,1.42 4.24,2.69 6.35,4.05 2.41,1.5 4.97,2.72 7.53,3.95 2.45,1 4.86,2.1 7.22,3.3 2.71,1.92 5.74,3.26 8.62,4.88 2.16,1.28 4.42,2.34 6.73,3.28 2.25,0.91 4.55,1.68 6.81,2.57 1.29,0.61 2.58,1.2 3.91,1.71 l -4.15,2.81 c -1.33,-0.53 -2.62,-1.16 -3.93,-1.74 -2.26,-0.86 -4.52,-1.73 -6.78,-2.58 -2.33,-0.95 -4.57,-2.07 -6.75,-3.33 -2.85,-1.65 -5.86,-3.03 -8.6,-4.88 -2.37,-1.18 -4.78,-2.24 -7.21,-3.28 -2.57,-1.24 -5.15,-2.48 -7.57,-4.01 -2.13,-1.36 -4.32,-2.63 -6.4,-4.06 -1.57,-1.17 -3.13,-2.36 -4.53,-3.73 l 4.34,-2.66 z"
               style="fill:#c2bfe2"
               id="path1351"
               inkscape:connector-curvature="0" />
            <path
               d="m 279,750 c 1.27,1.46 2.86,2.58 4.41,3.72 2.08,1.42 4.24,2.69 6.35,4.05 2.41,1.5 4.97,2.72 7.53,3.95 2.45,1 4.86,2.1 7.22,3.3 2.71,1.92 5.74,3.26 8.62,4.88 2.16,1.28 4.42,2.34 6.73,3.28 2.25,0.91 4.55,1.68 6.81,2.57 1.29,0.61 2.58,1.2 3.91,1.71 l -4.15,2.81 c -1.33,-0.53 -2.62,-1.16 -3.93,-1.74 -2.26,-0.86 -4.52,-1.73 -6.78,-2.58 -2.33,-0.95 -4.57,-2.07 -6.75,-3.34 -2.85,-1.64 -5.86,-3.02 -8.6,-4.88 -2.37,-1.17 -4.78,-2.23 -7.21,-3.27 -2.57,-1.24 -5.15,-2.49 -7.57,-4.01 -2.13,-1.36 -4.32,-2.63 -6.4,-4.06 -1.57,-1.17 -3.13,-2.36 -4.53,-3.73 L 279,750 Z"
               style="fill:url(#linearGradient8778)"
               id="path1353"
               inkscape:connector-curvature="0" />
          </g>
          <g
             transform="matrix(-0.80169,-0.44754,0.53159,-0.83693,242.9,1317)"
             id="g1365">
            <path
               d="m 278.88,750.08 c 1.27,1.46 2.86,2.58 4.41,3.72 2.08,1.42 4.24,2.69 6.35,4.05 2.41,1.5 4.97,2.72 7.53,3.95 2.45,1 4.86,2.1 7.22,3.3 2.71,1.92 5.74,3.26 8.62,4.88 2.16,1.28 4.42,2.34 6.73,3.28 2.25,0.91 4.55,1.68 6.81,2.57 1.29,0.61 2.58,1.2 3.91,1.71 l -4.15,2.81 c -1.33,-0.53 -2.62,-1.16 -3.93,-1.74 -2.26,-0.86 -4.52,-1.73 -6.78,-2.58 -2.33,-0.95 -4.57,-2.07 -6.75,-3.33 -2.85,-1.65 -5.86,-3.03 -8.6,-4.88 -2.37,-1.18 -4.78,-2.24 -7.21,-3.28 -2.57,-1.24 -5.15,-2.48 -7.57,-4.01 -2.13,-1.36 -4.32,-2.63 -6.4,-4.06 -1.57,-1.17 -3.13,-2.36 -4.53,-3.73 l 4.34,-2.66 z"
               style="fill:#c2bfe2"
               id="path1367"
               inkscape:connector-curvature="0" />
            <path
               d="m 279,750 c 1.27,1.46 2.86,2.58 4.41,3.72 2.08,1.42 4.24,2.69 6.35,4.05 2.41,1.5 4.97,2.72 7.53,3.95 2.45,1 4.86,2.1 7.22,3.3 2.71,1.92 5.74,3.26 8.62,4.88 2.16,1.28 4.42,2.34 6.73,3.28 2.25,0.91 4.55,1.68 6.81,2.57 1.29,0.61 2.58,1.2 3.91,1.71 l -4.15,2.81 c -1.33,-0.53 -2.62,-1.16 -3.93,-1.74 -2.26,-0.86 -4.52,-1.73 -6.78,-2.58 -2.33,-0.95 -4.57,-2.07 -6.75,-3.34 -2.85,-1.64 -5.86,-3.02 -8.6,-4.88 -2.37,-1.17 -4.78,-2.23 -7.21,-3.27 -2.57,-1.24 -5.15,-2.49 -7.57,-4.01 -2.13,-1.36 -4.32,-2.63 -6.4,-4.06 -1.57,-1.17 -3.13,-2.36 -4.53,-3.73 L 279,750 Z"
               style="fill:url(#linearGradient3048)"
               id="path1369"
               inkscape:connector-curvature="0" />
          </g>
        </g>
        <path
           d="m 459.74,321.67 c 22.7,-25.2 48.16,-51.74 45.3,-86.59 -0.88,-18.89 -3.3,-30.63 -21.18,-52.78 -5.89,-5.32 -10.99,-12.23 -18.85,-14.53"
           style="fill:none;stroke:#000000;stroke-width:8"
           sodipodi:nodetypes="cccc"
           id="path2851"
           inkscape:connector-curvature="0" />
        <path
           d="m 299.13,314.09 c 22.7,-25.19 48.16,-51.73 45.29,-86.58 -0.87,-18.9 -3.29,-30.64 -21.17,-52.79 -5.89,-5.32 -11,-12.22 -18.86,-14.53"
           style="fill:none;stroke:#000000;stroke-width:8"
           sodipodi:nodetypes="cccc"
           id="path3588"
           inkscape:connector-curvature="0" />
        <path
           d="m 350.14,310.05 c 22.7,-25.19 48.16,-51.73 45.29,-86.58 -0.87,-18.9 -3.29,-30.64 -21.17,-52.79 -5.89,-5.32 -10.99,-12.23 -18.85,-14.53"
           style="fill:none;stroke:#000000;stroke-width:8"
           sodipodi:nodetypes="cccc"
           id="path3590"
           inkscape:connector-curvature="0" />
        <path
           d="m 509.74,338.34 c 22.7,-25.2 48.17,-51.74 45.3,-86.59 -0.88,-18.9 -3.29,-30.64 -21.17,-52.78 -5.89,-5.33 -11,-12.23 -18.86,-14.53"
           style="fill:none;stroke:#000000;stroke-width:8"
           sodipodi:nodetypes="cccc"
           id="path3592"
           inkscape:connector-curvature="0" />
        <path
           d="m 410.75,314.09 c 22.7,-25.19 48.16,-51.73 45.29,-86.58 -0.87,-18.9 -3.29,-30.64 -21.17,-52.79 -5.89,-5.32 -11,-12.22 -18.86,-14.53"
           style="fill:none;stroke:#000000;stroke-width:8"
           sodipodi:nodetypes="cccc"
           id="path3594"
           inkscape:connector-curvature="0" />
        <path
           d="m 618.84,392.89 c 22.7,-25.2 48.16,-51.74 45.29,-86.59 -0.87,-18.9 -3.29,-30.64 -21.17,-52.78 -5.89,-5.33 -10.99,-12.23 -18.85,-14.53"
           style="fill:none;stroke:#000000;stroke-width:8"
           sodipodi:nodetypes="cccc"
           id="path3596"
           inkscape:connector-curvature="0" />
        <path
           d="m 564.29,360.54 c 22.7,-25.2 48.17,-51.74 45.3,-86.59 -0.88,-18.89 -3.3,-30.63 -21.18,-52.78 -5.89,-5.32 -10.99,-12.23 -18.85,-14.53"
           style="fill:none;stroke:#000000;stroke-width:8"
           sodipodi:nodetypes="cccc"
           id="path3598"
           inkscape:connector-curvature="0" />
      </g>
      <path
         inkscape:connector-curvature="0"
         sodipodi:nodetypes="ccc"
         d="m 257.64925,576.0567 c 58.147,0.43083 1.5586,152.09 42.082,151.72 -40.763,1.272 11.39,153.34 -43.52,152.89"
         style="fill:none;stroke:#000000;stroke-width:5"
         id="path5013" />
    </g>
  </g>
</svg>
