<?xml version="1.0" encoding="UTF-8" standalone="no"?>
<!-- Created with Inkscape (http://www.inkscape.org/) -->

<svg
   xmlns:dc="http://purl.org/dc/elements/1.1/"
   xmlns:cc="http://creativecommons.org/ns#"
   xmlns:rdf="http://www.w3.org/1999/02/22-rdf-syntax-ns#"
   xmlns:svg="http://www.w3.org/2000/svg"
   xmlns="http://www.w3.org/2000/svg"
   xmlns:xlink="http://www.w3.org/1999/xlink"
   xmlns:sodipodi="http://sodipodi.sourceforge.net/DTD/sodipodi-0.dtd"
   xmlns:inkscape="http://www.inkscape.org/namespaces/inkscape"
   width="10.5in"
   height="7.25in"
   viewBox="0 0 945 652.49999"
   id="svg2"
   version="1.1"
   inkscape:version="0.91 r13725"
   sodipodi:docname="serialization-bandwidth.svg">
  <defs
     id="defs4">
    <linearGradient
       gradientTransform="matrix(0.43081124,0,0,3.7319245,501.70926,-4558.0554)"
       id="linearGradient6633"
       y2="1341.3"
       xlink:href="#linearGradient6613"
       gradientUnits="userSpaceOnUse"
       x2="-674.71997"
       y1="1666.1"
       x1="-691.07001"
       inkscape:collect="always" />
    <linearGradient
       id="linearGradient6613">
      <stop
         id="stop6615"
         style="stop-color:#000000;stop-opacity:.49412"
         offset="0" />
      <stop
         id="stop6617"
         style="stop-color:#000000;stop-opacity:0"
         offset="1" />
    </linearGradient>
    <linearGradient
       gradientTransform="matrix(0.56825101,0,0,4.9225036,1271.0158,-6226.9199)"
       id="linearGradient6633-9"
       y2="1341.3"
       xlink:href="#linearGradient6613"
       gradientUnits="userSpaceOnUse"
       x2="-674.71997"
       y1="1666.1"
       x1="-691.07001"
       inkscape:collect="always" />
    <linearGradient
       id="linearGradient2071">
      <stop
         id="stop2073"
         style="stop-color:#3333d3"
         offset="0" />
      <stop
         id="stop2079"
         style="stop-color:#3333d3;stop-opacity:.49804"
         offset="0" />
      <stop
         id="stop2075"
         style="stop-color:#3333d3;stop-opacity:0"
         offset="1" />
    </linearGradient>
    <clipPath
       id="clipEmfPath1-1"
       clipPathUnits="userSpaceOnUse">
      <path
         inkscape:connector-curvature="0"
         id="path6104"
         d="m 0.894959,2.68488 531.606041,0 0,444.79512 -531.606041,0 z" />
    </clipPath>
  </defs>
  <sodipodi:namedview
     id="base"
     pagecolor="#ffffff"
     bordercolor="#666666"
     borderopacity="1.0"
     inkscape:pageopacity="0.0"
     inkscape:pageshadow="2"
     inkscape:zoom="1"
     inkscape:cx="199.1477"
     inkscape:cy="381.03579"
     inkscape:document-units="px"
     inkscape:current-layer="layer1"
     showgrid="false"
     inkscape:window-width="2560"
     inkscape:window-height="1391"
     inkscape:window-x="0"
     inkscape:window-y="1"
     inkscape:window-maximized="1"
     units="in" />
  <metadata
     id="metadata7">
    <rdf:RDF>
      <cc:Work
         rdf:about="">
        <dc:format>image/svg+xml</dc:format>
        <dc:type
           rdf:resource="http://purl.org/dc/dcmitype/StillImage" />
        <dc:title />
      </cc:Work>
    </rdf:RDF>
  </metadata>
  <g
     inkscape:label="Layer 1"
     inkscape:groupmode="layer"
     id="layer1"
     transform="translate(0,-399.86221)">
    <g
       id="g8415"
       transform="matrix(0.85177867,0,0,0.85177867,3.7562681,53.768245)" />
    <text
       xml:space="preserve"
       style="font-style:normal;font-weight:normal;font-size:14.90612698px;line-height:125%;font-family:sans-serif;letter-spacing:0px;word-spacing:0px;fill:#000000;fill-opacity:1;stroke:none;stroke-width:1px;stroke-linecap:butt;stroke-linejoin:miter;stroke-opacity:1"
       x="789.09619"
       y="439.08072"
       id="text8599"
       sodipodi:linespacing="125%"><tspan
         sodipodi:role="line"
         id="tspan8601"
         x="789.09619"
         y="439.08072" /></text>
    <rect
       id="rect4849"
       ry="229.26329"
       style="fill:url(#linearGradient6633);stroke:#000000;stroke-width:6.33986378"
       rx="25.191256"
       height="476.38019"
       width="154.87231"
       y="434.88641"
       x="126.20557" />
    <g
       id="g8133"
       transform="matrix(0.75813546,0,0,0.75813546,66.906595,162.79333)">
      <rect
         x="775.71686"
         y="358.89771"
         width="204.28053"
         height="628.3576"
         rx="33.227909"
         style="fill:url(#linearGradient6633-9);stroke:#000000;stroke-width:8.36244202"
         ry="302.40414"
         id="rect4849-3" />
      <path
         id="path5013-5"
         style="fill:none;stroke:#000000;stroke-width:5.617589"
         d="m 768.72364,503.40308 c -65.32919,0.48404 -1.75111,170.87582 -47.27987,170.46011 45.79795,1.42912 -12.79687,172.28022 48.89549,171.77464"
         sodipodi:nodetypes="ccc"
         inkscape:connector-curvature="0" />
    </g>
    <path
       style="fill:#000000;fill-opacity:1;fill-rule:evenodd;stroke:#000000;stroke-width:4.38528728;stroke-linecap:butt;stroke-linejoin:miter;stroke-miterlimit:4;stroke-dasharray:none;stroke-opacity:1"
       d="m 313.04111,673.65841 306.4121,0.53762 0.60918,0.003"
       id="path8141"
       inkscape:connector-curvature="0"
       sodipodi:nodetypes="ccc" />
    <path
       id="path5013"
       style="fill:none;stroke:#000000;stroke-width:4.25889349"
       d="m 287.95158,544.44105 c 49.52838,0.36698 1.32758,129.54702 35.84455,129.23186 -34.72105,1.08347 9.70176,130.61175 -37.06941,130.22845"
       sodipodi:nodetypes="ccc"
       inkscape:connector-curvature="0" />
    <text
       xml:space="preserve"
       style="font-style:italic;font-variant:normal;font-weight:normal;font-stretch:normal;font-size:20.84872627px;line-height:125%;font-family:sans-serif;-inkscape-font-specification:'sans-serif Italic';letter-spacing:0px;word-spacing:0px;fill:#000000;fill-opacity:1;stroke:none;stroke-width:1px;stroke-linecap:butt;stroke-linejoin:miter;stroke-opacity:1"
       x="150.92126"
       y="482.49463"
       id="text8223"
       sodipodi:linespacing="125%"><tspan
         sodipodi:role="line"
         id="tspan8225"
         x="150.92126"
         y="482.49463">11011011</tspan><tspan
         sodipodi:role="line"
         x="150.92126"
         y="508.55554"
         id="tspan8227">10101011</tspan><tspan
         sodipodi:role="line"
         x="150.92126"
         y="534.61646"
         id="tspan8231">10101110</tspan><tspan
         sodipodi:role="line"
         x="150.92126"
         y="560.67737"
         id="tspan8235">11101110</tspan><tspan
         sodipodi:role="line"
         x="150.92126"
         y="586.73828"
         id="tspan8237">10101011</tspan><tspan
         sodipodi:role="line"
         x="150.92126"
         y="612.79919"
         id="tspan8239">11010110</tspan><tspan
         sodipodi:role="line"
         x="150.92126"
         y="638.86011"
         id="tspan8243">11111010</tspan><tspan
         sodipodi:role="line"
         x="150.92126"
         y="664.92102"
         id="tspan8247">11101101</tspan><tspan
         sodipodi:role="line"
         x="150.92126"
         y="690.98193"
         id="tspan8251">10111010</tspan><tspan
         sodipodi:role="line"
         x="150.92126"
         y="717.04279"
         id="tspan8255">11110101</tspan><tspan
         sodipodi:role="line"
         x="150.92126"
         y="743.1037"
         id="tspan8257">11111011</tspan><tspan
         sodipodi:role="line"
         x="150.92126"
         y="769.16461"
         id="tspan8259">10001011</tspan><tspan
         sodipodi:role="line"
         x="150.92126"
         y="795.22552"
         id="tspan8261">00010101</tspan><tspan
         sodipodi:role="line"
         x="150.92126"
         y="821.28644"
         id="tspan8263">11101011</tspan><tspan
         sodipodi:role="line"
         x="150.92126"
         y="847.34735"
         id="tspan8265">11110110</tspan><tspan
         sodipodi:role="line"
         x="150.92126"
         y="873.40826"
         id="tspan8267">11111011</tspan></text>
    <text
       xml:space="preserve"
       style="font-style:italic;font-variant:normal;font-weight:normal;font-stretch:normal;font-size:20.84872627px;line-height:125%;font-family:sans-serif;-inkscape-font-specification:'sans-serif Italic';letter-spacing:0px;word-spacing:0px;fill:#000000;fill-opacity:1;stroke:none;stroke-width:1px;stroke-linecap:butt;stroke-linejoin:miter;stroke-opacity:1"
       x="681.97491"
       y="474.86008"
       id="text8223-7"
       sodipodi:linespacing="125%"><tspan
         sodipodi:role="line"
         id="tspan8225-7"
         x="681.97491"
         y="474.86008">11011011</tspan><tspan
         sodipodi:role="line"
         x="681.97491"
         y="500.92099"
         id="tspan8227-6">11010101</tspan><tspan
         sodipodi:role="line"
         x="681.97491"
         y="526.98187"
         id="tspan8231-5">01110101</tspan><tspan
         sodipodi:role="line"
         x="681.97491"
         y="553.04279"
         id="tspan8235-7">01110111</tspan><tspan
         sodipodi:role="line"
         x="681.97491"
         y="579.1037"
         id="tspan8267-3" /></text>
    <g
       id="g6280"
       transform="matrix(4.0689677,0,0,4.0689677,-1213.2843,-1894.2738)">
      <path
         style="fill:#d9d9d9;fill-opacity:1;fill-rule:evenodd;stroke:none"
         d="m 392.23458,627.40671 c -4.81471,0.64714 -8.20872,5.00408 -7.57739,9.75586 0.63162,4.75149 5.0515,8.08228 9.85069,7.45095 4.81471,-0.64714 8.19291,-5.00408 7.56129,-9.75586 -0.63133,-4.75149 -5.03569,-8.08256 -9.83459,-7.45095 z"
         id="path6175"
         inkscape:connector-curvature="0" />
      <path
         style="fill:none;stroke:#000000;stroke-width:0.67880154px;stroke-linecap:butt;stroke-linejoin:round;stroke-miterlimit:4;stroke-dasharray:none;stroke-opacity:1"
         d="m 392.23458,627.40671 c -4.81471,0.64714 -8.20872,5.00408 -7.57739,9.75586 0.63162,4.75149 5.0515,8.08228 9.85069,7.45095 4.81471,-0.64714 8.19291,-5.00408 7.56129,-9.75586 -0.63133,-4.75149 -5.03569,-8.08256 -9.83459,-7.45095"
         id="path6177"
         inkscape:connector-curvature="0" />
      <path
         style="fill:#d9d9d9;fill-opacity:1;fill-rule:evenodd;stroke:none"
         d="m 408.54166,633.05821 c -6.89864,0.93133 -12.02916,5.17765 -11.46076,9.50299 0.5842,4.32562 6.64605,7.10381 13.54441,6.17248 6.89864,-0.91553 12.02915,-5.16213 11.46076,-9.48747 -0.5842,-4.32533 -6.64605,-7.10381 -13.54441,-6.188 z"
         id="path6179"
         inkscape:connector-curvature="0" />
      <path
         style="fill:none;stroke:#000000;stroke-width:0.67880154px;stroke-linecap:butt;stroke-linejoin:round;stroke-miterlimit:4;stroke-dasharray:none;stroke-opacity:1"
         d="m 408.54166,633.05821 c -6.89864,0.93133 -12.02916,5.17765 -11.46076,9.50299 0.5842,4.32562 6.64605,7.10381 13.54441,6.17248 6.89864,-0.91553 12.02915,-5.16213 11.46076,-9.48747 -0.5842,-4.32533 -6.64605,-7.10381 -13.54441,-6.188"
         id="path6181"
         inkscape:connector-curvature="0" />
      <path
         style="fill:#d9d9d9;fill-opacity:1;fill-rule:evenodd;stroke:none"
         d="m 425.82721,631.00589 c -5.90381,0.78938 -10.29237,4.38856 -9.80299,8.06676 0.48937,3.6782 5.66702,6.01444 11.5553,5.24087 5.90409,-0.78938 10.29265,-4.40436 9.80327,-8.08257 -0.48937,-3.66211 -5.6673,-6.01443 -11.55558,-5.22506 z"
         id="path6183"
         inkscape:connector-curvature="0" />
      <path
         style="fill:none;stroke:#000000;stroke-width:0.67880154px;stroke-linecap:butt;stroke-linejoin:round;stroke-miterlimit:4;stroke-dasharray:none;stroke-opacity:1"
         d="m 425.82721,631.00589 c -5.90381,0.78938 -10.29237,4.38856 -9.80299,8.06676 0.48937,3.6782 5.66702,6.01444 11.5553,5.24087 5.90409,-0.78938 10.29265,-4.40436 9.80327,-8.08257 -0.48937,-3.66211 -5.6673,-6.01443 -11.55558,-5.22506"
         id="path6185"
         inkscape:connector-curvature="0" />
      <path
         style="fill:#d9d9d9;fill-opacity:1;fill-rule:evenodd;stroke:none"
         d="m 427.13756,615.64595 c -6.53542,0 -11.8395,3.1098 -11.8395,6.93024 0,3.83597 5.30408,6.92997 11.8395,6.92997 6.53542,0 11.83951,-3.094 11.83951,-6.92997 0,-3.82044 -5.30409,-6.93024 -11.83951,-6.93024 z"
         id="path6187"
         inkscape:connector-curvature="0" />
      <path
         style="fill:none;stroke:#000000;stroke-width:0.67880154px;stroke-linecap:butt;stroke-linejoin:round;stroke-miterlimit:4;stroke-dasharray:none;stroke-opacity:1"
         d="m 427.13756,615.64595 c -6.53542,0 -11.8395,3.1098 -11.8395,6.93024 0,3.83597 5.30408,6.92997 11.8395,6.92997 6.53542,0 11.83951,-3.094 11.83951,-6.92997 0,-3.82044 -5.30409,-6.93024 -11.83951,-6.93024"
         id="path6189"
         inkscape:connector-curvature="0" />
      <path
         style="fill:#d9d9d9;fill-opacity:1;fill-rule:evenodd;stroke:none"
         d="m 431.55773,619.38737 c -5.90409,0.78937 -10.1346,5.55667 -9.45586,10.65558 0.67875,5.11471 6.01444,8.60326 11.90272,7.82997 5.90381,-0.78937 10.1346,-5.55667 9.45586,-10.65558 -0.67874,-5.09891 -6.01444,-8.60354 -11.90272,-7.82997 z"
         id="path6191"
         inkscape:connector-curvature="0" />
      <path
         style="fill:none;stroke:#000000;stroke-width:2.40520239px;stroke-linecap:butt;stroke-linejoin:round;stroke-miterlimit:4;stroke-dasharray:none;stroke-opacity:1"
         clip-path="url(#clipEmfPath1-1)"
         d="m 486.746,143.697 c -20.92,2.797 -35.91,19.689 -33.505,37.756 2.405,18.123 21.311,30.484 42.175,27.744 20.919,-2.797 35.91,-19.689 33.505,-37.756 -2.405,-18.067 -21.311,-30.485 -42.175,-27.744"
         id="path6193"
         inkscape:connector-curvature="0"
         transform="matrix(0.28222222,0,0,0.28222222,294.18719,578.83288)" />
      <path
         style="fill:#d9d9d9;fill-opacity:1;fill-rule:evenodd;stroke:none"
         d="m 405.95255,616.05658 c -5.9038,0.78909 -10.16621,5.27247 -9.53459,10.02397 0.63133,4.73597 5.91961,7.95613 11.8237,7.16703 5.88828,-0.77357 10.16621,-5.25695 9.53487,-10.00845 -0.63161,-4.75149 -5.93569,-7.97193 -11.82398,-7.18255 z"
         id="path6195"
         inkscape:connector-curvature="0" />
      <path
         style="fill:none;stroke:#000000;stroke-width:0.67880154px;stroke-linecap:butt;stroke-linejoin:round;stroke-miterlimit:4;stroke-dasharray:none;stroke-opacity:1"
         d="m 405.95255,616.05658 c -5.9038,0.78909 -10.16621,5.27247 -9.53459,10.02397 0.63133,4.73597 5.91961,7.95613 11.8237,7.16703 5.88828,-0.77357 10.16621,-5.25695 9.53487,-10.00845 -0.63161,-4.75149 -5.93569,-7.97193 -11.82398,-7.18255"
         id="path6197"
         inkscape:connector-curvature="0" />
      <path
         style="fill:#d9d9d9;fill-opacity:1;fill-rule:evenodd;stroke:none"
         d="m 395.97571,621.59745 c -5.52506,0 -9.99236,3.0782 -9.99236,6.89836 0,3.82044 4.4673,6.89864 9.99236,6.89864 5.50955,0 9.99265,-3.0782 9.99265,-6.89864 0,-3.82016 -4.4831,-6.89836 -9.99265,-6.89836 z"
         id="path6199"
         inkscape:connector-curvature="0" />
      <path
         style="fill:none;stroke:#000000;stroke-width:0.67880154px;stroke-linecap:butt;stroke-linejoin:round;stroke-miterlimit:4;stroke-dasharray:none;stroke-opacity:1"
         d="m 395.97571,621.59745 c -5.52506,0 -9.99236,3.0782 -9.99236,6.89836 0,3.82044 4.4673,6.89864 9.99236,6.89864 5.50955,0 9.99265,-3.0782 9.99265,-6.89864 0,-3.82016 -4.4831,-6.89836 -9.99265,-6.89836"
         id="path6201"
         inkscape:connector-curvature="0" />
      <path
         style="fill:#d9d9d9;fill-opacity:1;fill-rule:evenodd;stroke:none"
         d="m 412.17245,621.92878 c -14.11281,2.8575 -24.61063,9.88229 -23.44251,15.70736 1.18392,5.80926 13.57602,8.22452 27.70463,5.3673 14.12861,-2.8417 24.62643,-9.88229 23.4425,-15.69156 -1.1684,-5.82506 -13.5763,-8.22452 -27.70462,-5.3831 z"
         id="path6203"
         inkscape:connector-curvature="0" />
    </g>
    <text
       xml:space="preserve"
       style="font-style:italic;font-variant:normal;font-weight:normal;font-stretch:normal;font-size:30px;line-height:125%;font-family:sans-serif;-inkscape-font-specification:'sans-serif Italic';letter-spacing:0px;word-spacing:0px;fill:#000000;fill-opacity:1;stroke:none;stroke-width:1px;stroke-linecap:butt;stroke-linejoin:miter;stroke-opacity:1"
       x="407"
       y="673.36218"
       id="text31748"
       sodipodi:linespacing="125%"><tspan
         sodipodi:role="line"
         id="tspan31750"
         x="407"
         y="673.36218">Slow</tspan><tspan
         sodipodi:role="line"
         x="407"
         y="710.86218"
         id="tspan31752">network</tspan></text>
  </g>
</svg>
